<mxfile host="app.diagrams.net" agent="Mozilla/5.0 (Windows NT 10.0; Win64; x64) AppleWebKit/537.36 (KHTML, like Gecko) Chrome/138.0.0.0 Safari/537.36" version="28.0.7">
  <diagram name="第 1 页" id="9GaGdAPO-uL5YjZBjuDt">
    <mxGraphModel dx="1188" dy="626" grid="1" gridSize="10" guides="1" tooltips="1" connect="1" arrows="1" fold="1" page="1" pageScale="1" pageWidth="827" pageHeight="1169" math="0" shadow="0">
      <root>
        <mxCell id="0" />
        <mxCell id="1" parent="0" />
        <mxCell id="AX4hok6wD8gOEV_q3dsC-27" value="" style="rounded=0;whiteSpace=wrap;html=1;fillColor=#f8cecc;strokeColor=#b85450;" vertex="1" parent="1">
          <mxGeometry x="90" y="306.19" width="950" height="583.81" as="geometry" />
        </mxCell>
        <mxCell id="AX4hok6wD8gOEV_q3dsC-13" value="" style="rounded=0;whiteSpace=wrap;html=1;" vertex="1" parent="1">
          <mxGeometry x="550" y="423.1" width="476.51" height="116.9" as="geometry" />
        </mxCell>
        <mxCell id="AX4hok6wD8gOEV_q3dsC-7" value="" style="rounded=0;whiteSpace=wrap;html=1;fillColor=#ffe6cc;strokeColor=#d79b00;" vertex="1" parent="1">
          <mxGeometry x="100" y="318" width="440" height="132" as="geometry" />
        </mxCell>
        <mxCell id="AX4hok6wD8gOEV_q3dsC-5" value="" style="rounded=0;whiteSpace=wrap;html=1;fillColor=#ffe6cc;strokeColor=#d79b00;" vertex="1" parent="1">
          <mxGeometry x="100" y="600" width="440" height="138" as="geometry" />
        </mxCell>
        <mxCell id="AX4hok6wD8gOEV_q3dsC-3" value="" style="rounded=0;whiteSpace=wrap;html=1;fillColor=#e1d5e7;strokeColor=#9673a6;" vertex="1" parent="1">
          <mxGeometry x="100" y="750" width="440" height="129" as="geometry" />
        </mxCell>
        <mxCell id="yzVYJXcNxtGRX3Rs66Ea-1" value="开源社区策略" style="rounded=0;whiteSpace=wrap;html=1;" parent="1" vertex="1">
          <mxGeometry x="110" y="801" width="120" height="60" as="geometry" />
        </mxCell>
        <mxCell id="yzVYJXcNxtGRX3Rs66Ea-2" value="策略编辑策略" style="rounded=0;whiteSpace=wrap;html=1;" parent="1" vertex="1">
          <mxGeometry x="260" y="801" width="120" height="60" as="geometry" />
        </mxCell>
        <mxCell id="yzVYJXcNxtGRX3Rs66Ea-3" value="经典存量指标" style="rounded=0;whiteSpace=wrap;html=1;" parent="1" vertex="1">
          <mxGeometry x="400" y="801" width="120" height="60" as="geometry" />
        </mxCell>
        <mxCell id="yzVYJXcNxtGRX3Rs66Ea-4" value="大模型&lt;div&gt;抽取策略关键指标&lt;/div&gt;" style="rounded=0;whiteSpace=wrap;html=1;" parent="1" vertex="1">
          <mxGeometry x="110" y="648" width="120" height="60" as="geometry" />
        </mxCell>
        <mxCell id="yzVYJXcNxtGRX3Rs66Ea-5" value="&lt;span style=&quot;background-color: transparent; color: light-dark(rgb(0, 0, 0), rgb(255, 255, 255));&quot;&gt;策略关联指标的&lt;/span&gt;&lt;div&gt;&lt;span style=&quot;background-color: transparent; color: light-dark(rgb(0, 0, 0), rgb(255, 255, 255));&quot;&gt;倒排索引&lt;/span&gt;&lt;/div&gt;" style="rounded=0;whiteSpace=wrap;html=1;" parent="1" vertex="1">
          <mxGeometry x="410" y="648" width="120" height="60" as="geometry" />
        </mxCell>
        <mxCell id="yzVYJXcNxtGRX3Rs66Ea-6" value="大模型&lt;div&gt;用户期望解析&lt;/div&gt;" style="rounded=0;whiteSpace=wrap;html=1;" parent="1" vertex="1">
          <mxGeometry x="110" y="366.19" width="120" height="60" as="geometry" />
        </mxCell>
        <mxCell id="yzVYJXcNxtGRX3Rs66Ea-7" value="指标TOP-N推荐&lt;div&gt;高人气策略推荐&lt;/div&gt;" style="rounded=0;whiteSpace=wrap;html=1;" parent="1" vertex="1">
          <mxGeometry x="260" y="366.19" width="120" height="60" as="geometry" />
        </mxCell>
        <mxCell id="yzVYJXcNxtGRX3Rs66Ea-8" value="机器学习&lt;div&gt;复合指标策略创作&lt;/div&gt;" style="rounded=0;whiteSpace=wrap;html=1;" parent="1" vertex="1">
          <mxGeometry x="410" y="366.19" width="120" height="60" as="geometry" />
        </mxCell>
        <mxCell id="AX4hok6wD8gOEV_q3dsC-2" value="大模型&lt;div&gt;编写策略指标代码&lt;/div&gt;" style="rounded=0;whiteSpace=wrap;html=1;" vertex="1" parent="1">
          <mxGeometry x="260" y="648" width="120" height="60" as="geometry" />
        </mxCell>
        <mxCell id="AX4hok6wD8gOEV_q3dsC-4" value="&lt;b&gt;&lt;font style=&quot;font-size: 15px;&quot;&gt;底层数据支撑&lt;/font&gt;&lt;/b&gt;" style="text;html=1;align=center;verticalAlign=middle;whiteSpace=wrap;rounded=0;" vertex="1" parent="1">
          <mxGeometry x="270" y="750" width="100" height="30" as="geometry" />
        </mxCell>
        <mxCell id="AX4hok6wD8gOEV_q3dsC-6" value="&lt;font style=&quot;font-size: 15px;&quot;&gt;&lt;b&gt;数据处理&lt;/b&gt;&lt;/font&gt;" style="text;html=1;align=center;verticalAlign=middle;whiteSpace=wrap;rounded=0;" vertex="1" parent="1">
          <mxGeometry x="280" y="600" width="70" height="30" as="geometry" />
        </mxCell>
        <mxCell id="AX4hok6wD8gOEV_q3dsC-8" value="&lt;font style=&quot;font-size: 15px;&quot;&gt;&lt;b&gt;应用&lt;/b&gt;&lt;/font&gt;" style="text;html=1;align=center;verticalAlign=middle;whiteSpace=wrap;rounded=0;" vertex="1" parent="1">
          <mxGeometry x="290" y="318" width="60" height="30" as="geometry" />
        </mxCell>
        <mxCell id="AX4hok6wD8gOEV_q3dsC-10" value="&lt;div&gt;买入后次日收阳线，5日内回撤不超过3%，什么指标策略合适。&lt;/div&gt;" style="shape=parallelogram;perimeter=parallelogramPerimeter;whiteSpace=wrap;html=1;fixedSize=1;fillColor=#fff2cc;strokeColor=#d6b656;" vertex="1" parent="1">
          <mxGeometry x="670" y="318" width="220" height="92" as="geometry" />
        </mxCell>
        <mxCell id="AX4hok6wD8gOEV_q3dsC-11" value="" style="shape=image;verticalLabelPosition=bottom;labelBackgroundColor=default;verticalAlign=top;aspect=fixed;imageAspect=0;image=data:image/png,iVBORw0KGgoAAAANSUhEUgAAA/0AAAHFCAIAAAAv6w7eAAAgAElEQVR4nOzdeZxkZXU//s85z63qvWdfmYVFZmQRFIFhU9xxGxc0gvseJXHP8opL8jVfkxjCV/1Bvn6TYBJXNK6ILCKoCIK4sKmAgDAwwzAbs/f0VnWf8/n98dyqru6Z7ulhppnp6vP+A3u6q2/dquq88rnPPc85QpIknHPOOeecc02KpIwI/TFGMyMpIgfrtJxzzjnnnHMH0LDcn77wuO+cc84551yTGcr9aY1fVS+55JLrrruuWq2a2cE+Peecc84559z+IpllWZb+ISJ5nqvq9ddff/TRR69cubK/v19EfPnfOeecc865SS3GOG3atKxeyp/+29XVdfbZZz/72c8ulUqNj/aKf+ecc8455yYpkpmINFb2m1lvb2+MMf1TVRsffbBO1DnnnHPOOfcEkMzzvKjzSdG/ceFfVRtvAiRNtt7vlzHOOeecc24qCCGoatb4rREtfRqjf57nMUZMwvRfv6FRl3YwZ1k24keT7qU555xzzjk3TtloP6iH4Bjj+vXre3t765U/41wp3z1w75P93FHQ+Ou7H8rMWltb58+fXyqVPO4755xzzrmmN2rur6/9b9iwob+/f+HChfsUkVPo38/oP3Gq1erjjz++adOmhQsX1k/1YJ+Uc84555xzE2Ws3K+qZtbX1zdv3rzOzs70/UMnHz/hsE6yXC4D2LhxY57nIzoXOeecc84513zGqvNJTf1FJITQuPF3TAIcmAX+3Yvvd7+B8MRuJqTfyrIs1SwdOlcyzjnnnHPOTZBRcz+Gb/Otz/AakZLTY+rpOf0GAJF92y+7+9bb3X99jyewx0M1VvbXDzXiOPXve/R3zjnnnHNNb6zcP555vfUsbgaLCBlFJK8CkKwE1JL3OI+DWhxvnBuwr/Z6qBHXGB76nXPOOedc0xsr99eNkYwb1vuZlUJlUCqD7OgqrgQAG2eqrmdxM1uzZo2qph239QeEEADUe4maWfqmmTVeV4QQUnlS/cxF5LHHHuvv71+8eHG5XK5fBnjcd84555xzU8e4cv9oSAJGBlXZvIX/9V+45ecYGJTly/mn78Kxx1NESaSxYBgzatejvKp++9vfXrZs2cKFC9NYsYbnQv076TKAZAr6jQ8jWX9YtVrNsuymm25atWrV+9///lTTvz8v2TnnnHPOuclov3K/iMSoItj8eHznu/SH16CaE4Lrr8fVV+Prl8kppw7NAB7jOI1XBV/96levuOKKI488sre3d+HChWvXrl21atXxxx+/cuXKPM8/97nPLVy4cMmSJZdeeukb3vCGl770pd/61re2bds2ODjY29s7bdq0t73tbZVK5etf/3qlUmlrazvvvPM2bNjwve99b+vWrSTf8pa3LF682KO/c84555ybavYrAZuZRRHhpV8IP/qRAChlkqmUS/Lww/zk36OvDxZhtpfGO/WNtmZ25plnLlq06EUvetHzn//8Cy+8cMWKFW9961u/973v3X///aVSKcuyiy++eNOmTW9605vOPPPMf/u3f3vooYde+MIXzp8/P30hIh/72MeOOOKIt7/97SGEK664Yt68ecuWLTv22GNf97rXzZkzZ0T1v3POOeecc1PBfuV+UkKGvj784lbQkJtVc+aRlSpF5Le/w8OPQLTYADD2oVKDTlWdM2dOd3f3rFmzZs2a9a1vfSvG2N/fv2nTph07dqjqKaecMnfu3NNOO+1lL3vZ7NmzV69e3d7evmDBgkWLFvX398+aNes3v/nNww8/PG3atM2bN6vqbbfdpqozZszo7u6eN29e4+gxr+93zjnnnHNA6kJvBOwA9aM/ND2ROp/GfbQijLlUqjQr6nnqO33NpDJYtPMfT/PNJM9zkjHGarV62WWX5Xl+0kknTZs2zczSELFZs2a1tramX3n961//3e9+96qrrlq1atXKlSvb29t37txZKpUeeuihdevWmdm5557b0dERYzSzGKOv8TvnnHPOuZHECAggaOZ14SeS+xuXzGOOzi47+ii58QYiauRQ0c68+VyyFDRJS/57PWbaqquqfX195XJ57dq1F1100Z133pll2bp169ra2lQ1zdmtT9jdsGHD4sWLlyxZcsYZZyxevDiEsGLFiksvvfTkk08+7rjjQggbN24slUokBwYGRKRxUJdfAzjnnHPOOQCAguTQYr+kRekm2xQaPvnJT6avzExVv/Od7zz1qU899thjVTX12NmxY0dXV1c9ag9fuU/viCxZJD+6TrZsSWGaADTgwn/mqSerBopwPKMA0uHK5fKmTZsuv/zyPM9V9bLLLlPVtra2W2+99dhjj/3Od75zyy23zJo1a/ny5aVSadWqVV/84hd/8YtfXHPNNVdcccX8+fOXLVs2f/78iy+++Oqrr77jjjsWL148d+7ccrl8ww03/P73v3/qU5/a3d2dziTGuGvXrq6urnrzH6/8cc4555ybmiS1fy/+10S0maJhuoYZKsvJ8zzLsvPPP/+Vr3zla1/72hCCquZ5vmbNmgULFrS1tRW/1/AWpLVzM0B526/lEx/H7+5mzDFnDv/mo/r68xCy9BtM9T/j6eqTnmHXrl2lUimEsHPnzs7OzlKp1Nvb29raWq1W08NaW1tjjJdeeulTnvKU0047rbW19dOf/vSaNWsuvPDC2bNn9/X1xRhDCOkuAYDBwcHU4SfdVUjfWb9+/YIFC1paWnZ7Zc4555xzbuowUovq9MF+GxiUadPRLOEwldCHEMZV59NYEiPDv0lSBDSecopcdz3++Ef09snTjkcIMFANFGD4loDRND6gs7MzfTFz5szG79TX5lOt/6OPPpqKgsrl8syZM5cvX97W1hZjbG9vH/F0LS0tKd97eY9zzjnnnBtOAYJRjHbX73DbbfjzP0detZDVW9Kn5IvJfDEwVu7ffdjW8B29MvwxjBFPeQpEYEZLg3pVsLeJXXt80vHo7u5+3/ved/PNN2/btk1ETjrppFNOOaWlpaV+QTLOJxrPNYlzzjnnnGtqIghALtWqVKsmAIe2hjam4skbHcfK/elFjojRY+Rp1dTGByIQGe9v7ZMR7/thhx12/vnn13+a+vaM/UnUBwM3fueAnJtzzjnnnJu0amFVhaAQENk5uLO30gugI+vsbuuqBVoDwkE7zf0wau6vx+uUktMXY0ZkIVPiByasBdKI64dUrpR2JJMMIYynYSgaLtfqFzae/p1zzjnnpjoCaUUfsmbHI2+/+j2P7nyEJgu6Fnxh5aXLZz+VpEInabfPUXN/CvohhBBCT09P2iC7t6V0NCR+28+hYLvb/a5Kas25r8dJNw127dpFMssyT/zOOeecc1OZgantPEGYCREZdwzsXLN99Y7KdkKrOyub+zYvI6Fixkka/MfK/em/s2fPXr9+fX9/f+Ow23FQwPb+qCdqtMqq8XQNEpFKpVKpVObNmxdCmLxFWs4555xzbv8pUqeaKISJCCgWlVoK5bZSJ4ytoQwVEQGLpe7JaKw6n5SGU/P+HTt27Gs9DLmX+wNPTL3E/wkj2d7ePmfOnN3b/jjnnHPOuamGqQGlCAXS28doolm6BcBoJMm0d3Vy28t6f9La2jrUv39vUpX/xDmAy/ONEwO8v6dzzjnn3NQkIjBi+w770Ifk9tukr89OPAGnHUHLRQETEaE0PHhyGsr9YwfffYrFEx2hD3hG91If55xzromN+H/0BGTkRsQDvy/RTRZpFy8A7tymt91mmzZKXx8eeAinHoEidsrIx0/O3Dj0Jz5JX4Bzzjnn3GjSSuFQiQaBIsSNSPkTuy/RHeIIGiIi0d4lnd0CRZiQevWDa+/zepvvNTvnnHNuipBidbbh38MY2fizoQLgJ+Xs3CFEESwoWAWtcXpVbVJvM9h77nfOOeecm7xEZCjvE0YTYW04k6SvD+oJukOFABSI1pP+ZK3nGY3/oTvnnHOuqdVrfEiCqlqs8asAMENu1c19W7559zfXbF+NCdhG6A599XyvBgC1O0RNFfoxIvc32TWNc84551wKb4ahduQCk8F+PL4Ju3ZJzBmtGiuP7ny0Px8wM8/9U5QIgKKfJ4ChC8bmoUiXv8Md7LNyzjnnnDuATCGApJwjCOzZhe99Hw/cjyyIBABBS4IgIr4MOgWRbOxH2axRuKjvT/9nsPs1rv/pO+ecc64JkEhF24xVu+3X+oX/4j33ytVX4Zxz+Pa3iIgCEG/pM5WNDL3SdEk4AyAiIYQQAoBSqdQY/Sdvg1LnnHPOOSC169ehXj39A7jrd/yf/2G5hfffj4E+vPZctoNkJH2U51QwlG+ZLvZGretpsj+GDMCmTZvuueeegYGB7u7uxx57rFQqedZ3zjnn3KTUMGQpxTsiCgJJqghBQLISZs3RoAyBnZ0Wq2ZCUsHcqooAgAKFjDigaw7DhrhxCn26GYAHHnjgM5/5zK5du1pbW//whz+Uy+WDfVbOOeecc/uins5l6OtiF6+E9HVRxZOasltkerCxnLWEICGEEkKQogRa62F/CsXCqYHF5w4VCARCxinS4jIDcNZZZ1111VXp32984xt7e3ub7KaGc84556aQUZI6BSIiEAI0oygMVeFta3/5nc033fHYb36/4e5znvLCc495Tar28fKH5pQ+VR36cIU6RRb9MwBmlud5nueqWqlU/K/cOeecc5PM0GCuxthvgNYTvLB4pBipgQIE9OWVm9fe8n9/+69t2nLnuju39G1+8bKXdGQdnvubW9rjjfpfxdRQ7OvNsgyAV/Y755xzblKTxr2YBhGKEsVCf+0Rkko7SqCAzLQ0r2NeBimFrKulw8zQUALuFwBNqbgSJKFTaCd3kfsb/+t/3M4555ybjDii92IQ1FZ2Wa3ozl1sKcMoRc4jAIgYGGFCDZSIOCIIiYjv7G0+taxvyA0bN2LhYbWfKJq36GdKbGJwzjnn3FSQJvOShIGDg3hkNdetEUKqVd26jddehbvuAkjL0+M1JX/C0igjxOFLv9ZwWNckalNqY5rhZjt7cMnnUYzu0tofgDblTQDP/c4555xrCkVOUwBELjt6cOsvcftvU5onCagQIpqGdAGwWqLXVPGAYnYvMHQod9Ac6OBd+zNIH3bR5UnLEI0ihBhJFRXQdrvt0xz8D9o555xzTaHeeJOQSAqYqYRMEIpiZqsHySZcym1CExa8zUBGVZByz136xwfk/odUEERptGJ0QzMOb/bc75xzzrmmQgGDSCrMd65Bw3btcM/d9sIX4aznyOXf15NO4DveaVs2Bw1C0kBrxpCcHewTcM4555w7wEQEIpQ9LRk3Y/1GUzJQcYAHKdR7Na1fj7e8Te+4nTNgUayvD1/9Gvoea/latCDC2t6PWmlQk/zNNOGljHPOOeemOJKpj88eUn4z7tdsPqyNTD6wdfYpx1cr/PFPcMftIkqTooV/zHn1j7vvWL+YGlO1f/qVZir099zvnHPOuea1h5Tvuf/QZWYs+uwQxZcH8vNSRQgSDffdA23cwi1F/r+7shw7e6CCzg5RBcCRdf6TuO7f63ycc845N6U0z/Jt81EtlqQJ1lba7QB+ZKSQJoruWWIxBh3q1ykCtpZnXvQR4ki590G87jXY+cc02Kppenr6er9zzjnnmpah1pufNGMkDLDmHcw02Q212uzvlQ0bSJBioNXs7x0AgpRSxhc+39o6ggGtyBVWIoxcskiedf4cPfEELpgvbR2oUhAwcnv4JA7Pk/jUnXPOOef2SFgMZFUqjGYAVTKEAORFjKsnSDZjx8ZJjNEsxwMP4ktfBoi8qhCtAQAMXQAY4vgPLCKiFKFIOOF4/cw/DHZ0yHZ0DaI1l3Dk0vi5z8WZrcTsw+TMs8xyBqWgmcb3ep2Pc8455yY9Dg3rFRGpRzUTkwDJpJpz6zopd9nMMthCQhWSOsUIFQDFF0MPCYJARKC4cotgiLZqx6oNuzadsfh0kqpBpP6R70Morw/tYoxZie9+V+WYn15y4/WVZ5Yf+N/851e+du7xL3uzUXXpUlm6FGYIzZaTm+31OOecc24KquVAFSniHVQAkNy5Vb7xP/japfqM1bJpmvSerJ9e0vK0LNIU0dLmUQCy2/5Nd1CQBJgaMVGgRI784e2r79pw5xmLT8+tCtHb1v66rzrw/COeZ7CwbxdsQlpaxReE50y/5ezum63c8VL7aZz2TouZgmQEAG2esv46z/3OOeecawbDFn6pqSnMjhxfuRwf/wg6q/kicu0O3LamdVvLCf8x98TjcVsM06iNGzd9yf/gS/dgjBSYEDTmyky0HMrVWMmZl6y0vmfj9sHtgMQYQzbeNFuMbRYtSryU1dgdQqsgRm2TShukdkcg/Ulo81T4JP737ZxzzrkmRDKaPrSaX7kMfRWqahnIBFVkf8iXfbXvtSYwDUUthwqE5oX+hwxNvXfEoFKWUMpaM0optIRQAlBWyXSfu/unuB9pD275Y6oHK0lkNFCFFK2mo9VaCu22oXfy8/V+55xzzjUjVcvlsQewcRORQiSUFIgNWvbg1tk7StnM8tq+vkUoBUYjgvpy6CHDkAYuh55qz3/f8eUbH75x28C2HdVd5x1//uLuw3JIujTYp2Om3D9olUtv+49/ev4/KWBUKXZ5QCSkYWFNV90zxHO/c84555qKEBBJwbFcorAoFodYCorSWiode0zp6Ffg+MPxvOcgv0VhIuWDe9oOQG2nBgCQAnJT74ZLfnnJul2PBW25bcPtT5//9MXdhwGWFuP3qQQ/NeOHmWpRwWNqYU93DCj7ek0xOXjud84551yTSC1eKIAxRDLLlxwny1aHx/5QzVjJEAVRxdqm5Se+dnbH4SdXj14hxy7lb24GFV7kcwggjYAZggkBM6sYutqmzWdOsiW0kDQBoKn76th1PvWrApK1R9Y+5VTSM0q4F4KTeS7vaPyGlnPOOeeaR234qolIkOyIBfJn74hHzLMqyj3o7EdrS1lfcBrf9jpyZ458QKKJ7FuZuJsIqQhHRBghlaLRvkVFNApysxyMoKrWwvqeQ2zjHQCpKRr/28iYP+bn3oQh2df7nXPOOdckUogjAKoEAdAKvOzU/hkfuPc7/3jvorh6max7ybL17/vYCbM7O6WqomqBIkpEIBzUc5+6UuclqeXsUAJVBiuo9qK9bN3TxPIIiUDRh4ckTWpj16zelX+PRxYClvOee+WYYyzLpvjlned+55xzzjWJYv4uo0AZTQmSrS3V58371XOnf7JinapWnrvQpn+ZFNHUqTEAFA/9B4+ICAJBM6hiw8b4fy7RLdfhlE382Vp99WuyUtk4EAQc6rhaK8pKbXlQL/Eaquep3fqxHJWKXHYZP/pRnTadTVm2P26e+51zzjnXJIoISDUDowWAIoYWts7V8ozWndtja1u1c4m2dqmmyMiiV6OYr/c/yYrFeACAQSwKJN+wIbz7XeGaa+xIyAzgO1/Gj6+a1/G6U8rH/iivhFrZDsshyzRLpVy1K4G0nbthQV8AgiqiwqAiwim/hcNzv3POOecmPyIt5aZ+nUFzBhVFoLGrRV758njccXbNVTjiiOzF57CtjTt31CfCAgADpngJyJOoNiAZFJBiEaLUIJVK9rWv8uofMsuk26wMDYJtW1p2Xfn+7qVXVWOPapZb9ZEdj962/o6BSu99C085ontRi7YDo3961PpzAYpm3K07fp77nXPOOTfp1es3RADamk3ys2sEP0CYqV2d4QXPLLcumKOHL+WSRZw2TapVpvXm9CsAQN/a+yRLoZ9kViIp/bsMmf3+bgVglNxEwFxMJct2PGV+z0taD7/j1HlnA1j59Zev2flYRvnW3d/5/vk/eNr844aV9+z2LMWnPMVLfAB47nfOOedcExBJMV5ijrt/L3/zcfv1tboC6Ifd8wN75zvsY38Wu6qDyE1gYmysCfE4+GRq6LcjIrQo37ocl38fax/XpbPld78nAMS0Ki+gmlRntbe++bi3dS876T3PeP8dG26PZrNaZgBaKpV68h7spS2PoeEab4rz3O+cc865SY+USEMMj63H5/8d1/9I5oW8iwiQbTt42XexeHF2wZGtFkoKBQnAhm/m3acJUO5AYKWKf73EPvEJ2GA8G1dchtcgbbeGCSLAAFI4b56c8HQ8sAODMTczTeO3QCVKMrzbJkdW/AhgAvWbOQCasjWpc84556YeUwSIrV1rt/4SBlSp0WAGs2zb46Vbbp3bs+JVeurJBqIUAKgXfjxRje9bvbUmjLDa14URxfRDTXhIMcM9d8vHPobBQWkJlZXhFyoGmAkI7UNrBVmEtLfbRz8qM2aSJmUNJAWhaOa5+wcoxSkBICMAMWqsP9hQ39FR/42pdEngud8555xzk58EkjTt65NKf9HdXQADSMYc/QPojW0oZ7AplPMmSGOBVH02FlQo6Z/1OD5GzrRqbrf8nNWqBIVF6YslA0BV4shszXGlVXN188lHbfnv/wivOg8DfaoBaQIXEYeedIyTlDB0QQKoESYgEUPjvZ0pdZ/H63ycc845N/mlFjFqs2bJjBmpk3sEACjESiXOnIkZ08iI1M5xCmW9CVa044w51q8XFR62SCijBP7iuyIgAYaeXogaTVJvfqUS1iaDfz3tP143/Udx3WN/dcECef2Hcov7ms7TWakCWkbMoQGhDBVARGO6MuFQ9Y9MkV0evt7vnHPOuSZgIgLYokX28pUiQWshx4RYsIDnnovWVhhFxGP/ASINA3Erg7z1F7j5ZiEYq8OrfUYyI4Ass2c8gzQzsZgqhGCEQXlMedW0sHkGezg4WDFBsQV4H27UCEFEVnNc80O++9245mq855247GtAICUizXkgapVB+/dGTBqe+51zzjk36RVJXzF7lrzrrZW/esfWDDEiQOXIp+o/fBLnnEMzywL2Wh/ixonF5LOU/hUaoArLgb28ySIkVIRnns5XnyugigSDEFoqhT955eBpSzZafzDCAkqBaXledB/SuSECkNz48xvlsm9gzRr7wZW45mqzSFKMZqaR4L4cdPLzOh/nnHPONQNKseNz/pz878/5+Xt/9JktPaFl7rS5n5k75yXPqK3t0ls6HigiUiyZi0Ap5RZajpCBkYwiAbDdl5gbLglCZ7f922cHZ6974PpfdXSWBpfg4dc9Z9ff/m136UOMZFABJPX439dz09SrSSpSKucL5olmOn2atXRa1Ew0BAE05kGRS+0CZr/fj0nAc79zzjnnmoQQEIFJKVYPLz12eFsvSrPZvo2kUERpLHLnlFrlPeCKlf5U5AMAhk2b+ePrpVpBVxdXnIbOTliqr9/D76b/rtr20NLuJfPm8t9PunjTA79kueW8eO28k56PRf8rVqqqRSmOSa3lDjU96dDFxtgniShUCkJuLJvlEGMoVXoqu3buqlSttz3LyBIAiGFYT9em5XU+zjnnnGsKIhSYWa1dY4koGwNiEAkUEKqqOKAtXDiKA3X8Q9PIzJ1H3HyzfP7z/OrXeMEFWPOoQMa4q2Jm/fnApbd9YSAOGGnV8vzSlgVh47yWHqu2W4xKTQX/QpC1ZqBi6XojPfvYbzIFgpB2BKTHC5HHgf/8Vs+b3zxw5VV849t7v3jFLkFOEpwqedjX+51zzjk3idXzX1p7VlURgaQeniZCETFSMXKNv3HVnyT2pdCjPh6qMQGPmBk1FapHUrgXAkK0t8u8uZgxE9UKQcqe3tGh1p+mCoiJZEEYGQQZCFGitQ1ZkO1bIYLODhFNxfpxePPNse/aFH8MBAEyimXVtrb/e+MJf/mdbsYOObNz7Y2zrvsee+c97X0dv2J/HzVr8o8KgOd+55xzzk0uI/K0NDRjrFWe7KGmfPeWLURsfIBhrMr/kU+a/sdIgRCGmFsshTIbzifl0qZPk+lFkgQp0VKz/Pr3d3t0ulao/YwKQESCkOl9syhd3fjyl/Czn8kdd/Idb5cYVSCCDAJA0y/qHj7Q3Vl6OgpYvT9/ysfXXkCUtLVqpWqpVBqohL9d+64XLL3pGP4yRwegTf9hTZX7Gs4555xrDiMW0WuzmcDeHtm2jYL6XNgxq/i1Xt2R7hgoxlpArteWFJNizWKsUoRkNVbu2HDnZfd8g2RuQ9cSUyH0o2H8bWON08gbHUwPSG81DXFo4K4Vv0KB1BsEHb4Up56GJUvQ3oG8aoKqxWqsAIg0AArR3SbvjsIAVJHd1PfMAXQJouUANK9CYBV23dR3kmkmwqmQin293znnnHOTHquDuPte3PVbec+fphxpMvb6bdoDsE9PYiIKAISoAJpuAuTCwXxw12CPiDDPqQGAwNKmUuHIZ2nW4p+i8n6PxfdSv2EiZiZUQEVEIelGAVIpf+2tESMH+zE4SFIhitLRM47qLncCppql449zC4WIQEhyl7XL8AtCgahYL9tgohoIa/oBXs1/ZeOcc865qUAIMJIUCQBGa8yeVppFAoJKrc5kfEvzxZ5go63vWX/z6ltEaGbpCKn+REIxLAwSoJIaXBaJeGrPDRCRYquuiCIY8sF8cKDaL0GLDktFktf0aB51lJz3OhGRUlkES2ccfuqiFYCG8b+FQ7doJIT4zLb7mP4oJFCMgjS+7aSW+yDVvLg4a+bQD8/9zjnnnGsSUgx2rdf5jPIokVDizGl47Wtx7HIAJuNd5U3XDJH5xt6NNz/6c3Jk1xqhSsyxs4c33IDb7zSzPM93Duy47sHr7998f9P3+RlDquohmVv1i7/97xd9+UXfv+/7K7/xys/+5vOSdcShvRbFfRidPgPLlkOEKrXCqghgH6Yv1N5tkhnDivJvX9d2BRDAiKhgNYO9su2aM1rvBFpVCBnrz6Y5eO53zjnnXFMwYuSC+h6SnIhIUAklmzkD7R3Yl8IbClIbGVVtDWUAZGz4uZGRKpIT69bZtq0AaDYQBx7c9uCWXZuB1Ga0eYwnhKf0XXuTrWrxD1v+cOfGu3orvXdvvu/ujb8zq0gMjYcSEbOc0YoSIBERST1Y6x/WePpvKqGiqqf6y/UAACAASURBVKCEznzLv77gyve+n/Pmo6NDliwKF/xZ9fMvuLLUt8U0C7ADPrk3fdYxxkPnes9zv3POOecmt2KTKGGmHDaQV3dfxC22k5JqERYB0GrtefaWYlNdeDp8BOvfqQ+gBSCbNvPaq/HTG/TXv5CeHoRMETJRBG2+zp7jmX+W2vTUWu8HEWaiM1pmtGRts1q6y6EMUoVFo55iC7CKhHoJ0J4PK7KXFXoxExAiVIgxYs6s+Pn/z379C6x8Vf8vfoWLL5JpnVVGzYQG2oFOxelCJYRw6Hzovq/XOeecc4ccMxNRChuT5bBm+fW2/WmGqyCUADWi6McphJGpiKd4JAFJ070UAlKLiU7KCCopNvRkwjTGVcfuy5NqxMXSU4LVnL+4Rf78/awM2PwFPPu5PPOstO5bnLAxvaj6tcmhEwonkqarM1UlJVJyWiBjfXxvw8bf+u/s72USVQnCKEXDUJJkWHhY+S9e/PqFC8V2GSgiNAogirz28duBWBm3Ymv5TT+3Z61QKR8KV32+3u+cc865Q46qiqTemiM3xbJWQSEiFDMzVeSDunq1PLaROwepqemOjFwtTlGbte25aTk2yUTT6rKyMYmmqVRjnWc6vkmxq7i4ITBrJmbNkZYWiQaLlIZyIC2a3kypnb61izQrPjiNGqqiJqUKlKAaUEzobSiJGePN2df3rf5WKyjUZy48jbmqqgQASN2FilNFrG/g3r9PR5E+9K9/RQcOleIuX+93zjnn3CEn5b9Hd6395ZpbX7X8laVQRi3tCSBaW741rVTw0xvxL59mdhdPiHLDlfrhd+KN05gpqBk01I+ZpnfVs5xZDiCC1Vjd1r+9LWutqPbaQKrgN1Bl78ujwyaCidTm15qRYhQR1ZBpKIXW1tBS3JogI3NBKFoAiRwKK8ETh0P3ZFKBPiW29D389NgWOdCOha2SRSOjqI67if6Iy4MxCuiFQG0ug0JMIBCLVdGMYqBKyJD+nKQEQBA4jsOOiwQAbGk/dD5az/3OOeecOxSZ2UClf/X21WbGDBKJUKzYM03mJfJcbr6FH/kQHrkfJ4A9kN/eZn+3Viuntb+rZ5ts7bGuttTXhYhiod7SX0RIBbQ1lI+dfcypi1es2/HovI55py48pSProJjWC87HNDwaKlJ9OiNJgkLZ2r/1l2tu/tVjv97Sv6UcWpfNOnpnZeeV93//rKXPPnrm0bWq90MnGR54Uu+dCpjhoYfk+n+4YNetH+87+1O44a9uuTX/zbS/P6U1izkZqLJvWXvELYK9UiGoVAVMItHfjw1r2TVd+vulUhmq2RrfPODRT6s2sgCyjy9oYnnud84559yhKLVwKWkoqmjqU7gEKKpxbPNmvfJKe+ABlDJkOTMQkLUby1+7/ZhXv/SdM7keC5bKUUcxreOKSEPptogAsb3UsXL5K1YctuIrd3/1pU952XFzji2eo3Ho1+gl/iYYmetIMCjMgF5Urn34ugsufxfJTPT6h6//8iu/LBK2V3ZWYvXAvl2HqHoCFgFs06bwwT8r3/nz+ZoNGqMG/cPtM94v77jyqNtnVx8gu4ZqbDBGkVWtbKZWq7UPN0zqLYCoaGnBua9iawn33menn67Pea6IMAqCCPevk38690Pvcs5zv3POOecOUWQq/NhDebQqAO3ZiYcfUoWAFlMXfjGSW2cccd+f/fPpJzUcqJgkm46maZFYJJDIrWJgi7aUQwm1EDksSo6e35RDJ5eyoogAKpKuMphbdWZbtyBT1ZbQUo2VctYSEEJR5NPsOy0bEvBgRX75K/70BkBIEBRSVOR3XH5d37PfIPeJ1rZUiKTPa08XXCqWkYPpH+kX9iFhixEBCASRZXjDG+WVr+KnPqUXXggATB8dDtTgXpKQcc2Ee3I0+1+bc8455yatYTNch1h9023I0NIGQ1TkQx1+ABV0MtdoqOZgkQsbj9bwneICwMzSA0b0iR9b48MaAp6RorTU7784LAAbVtIjBHmo7PicII1FONWK/PGP6fJLinV9FVCCyIM75+ggdFePVKtIRVmwIvTXm+zU2iLFoRb+kvYJ155hHG8mVUhhMT8YeRWVCknkVeTVhhkC+xH6h3egkvGc1ZPFc79zzjnnDlGjhG9N+zTNMGsmTj4ZANSsDFGJytjSjuOOkWOPDxSVoBBL7XRGHK1eWC8iIlTV+sXAbs87anQbpbhcRWgydECSkeTwfvPW7JX9GP6ehyzOn0+QWh+RRQLIoXNnVmN7ZksOj0cvS79V28wBCMyMAglqYFALbTtETdSytp4QCMRalf/eYm1x3VebsqwiWSjuuWhGTTVbBtjIOcz79ppHPOkhFLa9zsc555xzk4xIKsPgtOnymnNx52/y736/ZZt1D7AtK5dOf2b1wx+RUllJqy3ej3qoYQFv1Ig27Pujj/ey3b5IZxuKnp3Dj79/W0cnGVJaW/SM0+UpR+lDD6LcVq0GycparcrcuS0v+Oqb9cq18aOf0unTUfRarS33p8swgqRCBgdK228+r29gUEoDFub1P09RPHjPVf5kwwiItC2cRafONEUh3ZOBQBggAgSm3xn3h0OYNLT+NMvTJ26gjjyK1SvNntjbuJ889zvnnHNukqlV5wtpRx2Bz3xgzRn3Xrf54Z7FsvaIw8L5bz/y6FPONItjrKYPFY5bwzrx6PNfhzWONJoZaSSFmqp6AHgZxR7U3mgRArJ4if37v+Fd742rHwEHrdpniw7j5y6Wo0+Zzqu6woyZAEc00CwmJJiRsnkL/+XjR2z8+kVYcgM6tvQ9cN5F/TuP+X+cPatoFrr7doAi06fLxOLCoPiYKKgv/pPEbqX44+wUJMN2ikO1SNcK2e180uXBQbvN47nfOeecc5OIpdlXJA1MHd8P69z2wbn/bds3RJHSjJ9x5kfzeFaAjrHOPzTEVwTjKLJvrNhR1RYtZ7VVfLDeIN7tpr5PlySlXJLnPJfXXq3X/QRfeVRe+yq85IXytOPBXhFG0uqhf2hMG0lKzMWMl/67Xv6NtlCqWNtOtvRH5tdd2fXZI/BP/6wWRcMoH7ixvv8XZH3VX9LUrtpu7N1/dV/juZmp6rfv/faLn/LirnKXYVgv2PrtiINY3OUXps4555ybRFLjRohQIaBSQAuVvENESsLcOljtygQ27owj46jAJmlmIjTE9T3rf7fp9+t71q/Z/nB/PkCA3O8ZT02tFuWLN3r5cr7z3Xju8/AXH9anHS9mEBHUtlPvcaBBFrhtR7z22rSxV2klRIVlllevvR5btkJS59TGJ0V1aPSyCGvHTNdoIqH4ApBKZV/nAOxRZA7gpkdu6q8M1F81ydRjCirprsJB5Ov9zjnnnJtsio6cQ20fS8UirgQxaJUCoUHCmEcpUIxkJQ7Wg9poK7JmWLNj7Qeu/uBNq2/IQrjyj9d86rl///KjX1H/ldFL/6euouodFIISBTJYQRre2zvAzjJFoght9LedJET7erW3n4QUdTUCAtG0WsGOHTZrpjbkdgOCoJQKt6wUgghUoELE+l9FUZxVKvHkkw/IDut0jHIop2EFAqOlHegEozKDNowmOBg89zvnnHPuoNnPRVYtOj2aSPpvgEgqu1GEcR46SNbV2vXsJc+e2TYLo5dhpJ7+1Vjpy3d1lLtEQHLnYA9goZbk1Bf9R7KiX06xzq4AS5nmuRkgElQhklEGRUefjgaY2exZMncOAQoByYEIUCVOm5bNm4t6nC4q/ZkjHS6aPrYe3V3s72NfvwBgFMmGnqqzU974RmCsKQ37+pKRXmlIewsE5bJoVrQcatyFMNYrnhCe+51zzjk3ae1WWU+OtwVjCl2pqqRDOlYsPq1+hD0/FZVgmiKsKiISRFURQROb6KLtEWc1eRqA1jbRFl2Vik26IqIw0Yhayx2y6OGz+/0WEbEoHe1461vxkx9rBLHudGgVkFJL69vfhY4OxBwhK56EFEEGkC3Aa16B6dPwo2vl2c+R5zyHEsBIDNXbCFG/CXBA3lXSYDkIueaH/PY3cPudePNb5JUr5fw3wHJKGM88uAniud8555xzB81oLfP3eh+geAA5YrBq7TgGhLGnL0ntOBQoYXvbnkuxxq6fQ1PAUoXPBBduT56gv2fFu52+Hra9dWRTy8YdvbVaf4ZMhHjNa2TLVnzyf+m2bfMBzJgpf/sJvu1NQkrIhrcAKiY0ZzjpVBxzPLbvwF9/hC3tAESzYTtuBXKA8jA1bWNQpCKin/6YX/6azJwpf7gHInb+eeni5iDO7/Xc75xzzrmDxkA1CMB8AA8+LN/9Lpcvl9NP44L5kFDfqEnBiEw+otvjbnScI1eLwm6t1YyPRdN4XVUNElDr2CiASIDt4enq55ya0oSirc2wLaSpCcxezzNdnwiRW3XQKh1ZB8UUYeKbwRfHZ8OVUu2cohih+xAmZQ+fSu2GwG43ahqnLIuQkJYWvu/Ped55uPWXBpUVz8SCBUN/BsMer2nhn8irEo15VfoGUWpLm2trNx4OMCn6+IMSBLBSSRcssCyTtla0tigCRA9mdb/nfuecc84dTEbCSOrj2/ifX8DFF8uM2Xj5S/WSS6yrs55nD4U+mWn5mWRP/84NuzaUs5bccpLKonAFu+3rrSfZtG4d6w1eai1BUbuAGXVLa2PLUaIaK/dtvf+GVTd88LQP5jGqBoju8cEHTr2B0tBrKZ5OMgph+zHblioiZuPaDp3uxojIvLnyqlfU9ubudu3XmP6Lf6ZGOmlr7/CXMKHUCDMhGA+V/d6e+51zzjl38IhKCr2Wo1JluYzpXYxRKpWcxer4obFZVgAaOK99wZ+e/O4bH7lx7a71Lz7qnFMXnBLBtI4fwWCg7R4q03VBpFimJVUlo8lQ+tzjwKmhZx36maVjDcSB4rJBRj54otS3zNYn4Fou69bbzh457tg4+qDjvdprV/sROR4Y6tc5Rl3W0LwFFVFR1fqjJzr0N1wXiRgByCHT49Vzv3POOecOmlqJNxUQVRZLwAIgFH1REDG0TH6wytxTMg2Q7vauN5/4ltMXnXHtgz/80IoPG2QgH0yjxMQkgmG3Pb5GycAgYmY/XvXjy+///oNb77/2wWtfvOzl7zvlgkxLYw9wbQj9w+bC1lPvUAXOBJeOp4OnjbCSV/H7e/TRR3D8ceEJ34+RoQiPMT/cxqJ/1fpLPUSW0YcZdgtCRUQO3nzekTz3O+ecc+4gIkSKFf3a6j7Fat1ytBSy1tCCg72xlanAXgiTGGN/PlC1WGUVJhosZEZBUKiKmTBNioKRxYUMoQbkyP+w+Z7rHryuLKV1Oza0lTvf8fS3dbeUxqjzKZ6dLIrshxkx2rZWXb7/L7ZW0QQjxKhB2LiMDYkEgFJAuTz+BkrDngJo2JYgKGqf6jN0R1WcxiGSoycbz/3OOeecO1SI0KCADlhl1ZY/3PLwTfdsuueex+89fu5xQj2I7fFrqVdEkFp5CkKQrKdS+dmtPZf/ausm61u4ofdZpw3MzgQSARCaKtJLKFnq9IIQQmlm6wwRKYdyW9ZmI2bM7oGRkhb7SeZM1xLFaNhUHF87vQO5u7e4FAlCikIoIAlGAMXcK2pK/CINtf/jOzJJgQ3m/alkyDTW5x+M4wATvY+5mXnud84559xBM7TUXUR6JSLIDb2bL7rrs1+580td5U4AF7/k4kxL4MFc9a93EFIIKQZu3sILP1v97IVldM3FUetvvKj15S/ZdfHzMC8LqOT1VfN1veuyUBaRRYM9ChoMESb1vD42Fam1fxQpaci0JCKZljCs02VxYXAg3x8jdu7Axg1ctlwIqECK3EhtfBrFvtSvpzPMJHv50SuLOzkMwvF0X0qJ/4nsYya5TyfZrDz3O+ecc+6gSa3WgWEJTkRAU9V5nXNUMgBVq5ZCeaJ75I+TQYKhrPKza8O//p9yUMoM5qXqYG+49soZFz4w7bP5IGOuFlslPHvxs/7lRRfd+PCNh08/8jlHPOuPmx8gYtASUFS3UzB2a8d6558t/Vv/844v3PLoLVt6N23Z9fgbTnzTCXNPMFApqWf8AQz9aecu1qyRq67kRz+GapUllXXrsXYdV5wq+V5vU4x+ZBERKWvL8456fu3VjXPq2chl/rF/p7b/ON1zCXuZzjA1eO53zjnn3KGHxWBXDWCtiEUPdlm3EBSIMIKbHue9P7FqjpBZXiVMorFvEDfcM++RhUcdUfltbF8QurqXTjv8jSe8qavc9bR5xx89c9mqbQ9ZRAgQZeqCM3YaJdN9hijMNvZu/Mbd37h/8/0tpfYHtq4+YcHTT5xzAgSkiRzg0peizbwGZOkSBcyjPLKav/olVpw6VOEz8myHav33ejGTmhwVjXf2Xu+0z0SEIEImoYQPfoDdnYDtdf/AaIca+prYw4aGoW+mFzLqNuWDu03Fc79zzjnn3L5R1e3buHWzqkLS7FcRANF08IhlG/75S4tXf0PnH8GnncDKQDVWchsctErOak4LWuzQHepmM7o0eRYqNKNheuv0eV3z1dhe6gwIFCiIAx3668hYT6kKYcikVOLQTwXDN/XWKo6KH49R91/skRjqZDohi/FDIXvO3H3d9CxE/bU0jlrb4y7mdD0IY+rdmea7FTccRjwy7Q4/SFsUPPc755xzzu1FMfhJhjaVzpoltsDMVEs5mGKuhcD2bl18anfAkbF7lqrAECQjRaiZZNLYRX4cXe+LB6cuR5qWySMp0aoplQp1P+ZmjWqUGG5Wy70RhEEttf0RWn15X4tHquqYe3B3b8x/YDUeWaisjf0a76+nMc5iRegf9mEZEFD/q2BtCK+ymBgw1GI13RiRYRVq1MY/pCeTb4h2zjnnnNuLoh6lSHtCw+zZ8vJzpK0dOURLgDAwdHbiJedgUadgoBpogqKURaQhC6YGmTZUCjKeMFqkZFitIU5tKXpiykaYBoZBabUNzUYzwIaGqYUSJBNASIoWK9y1A6ReRqPmzKHl8wnL/dL41utQTdEoJ7Snk6GAmu5LiLLezLTxPZd6QRGQaYuq5rSylGqdVgESZrsVPR2cBO653znnnHNunAiYCKms5HLW8+1/fwozO2A7gIp1TY/vfCf/8q9AAyHQwGFBa2jqlkAFlppjCsfKvtKw9J5+MeVZxROpU98npgBgwqLZqAYpiwSqQlthpo+u4tp17BekmWUkAWnIxGNdkTRW+EzcS6in+XFcV+3hZCKq1Vip5NXc8sFYGar2sWEnX//+tQ9ec+7/vPrK+674xA2fqNa3LiBtUEmnE+vPdVB4nY9zzjnn3PgpEDOKCLunyQffj1eslB/c2vHY4Lz3rAhHHWNZibIVBIR5MY6slvNIBohCM1XRTCEcRyZND0gbYYvcKRy+5DxRQVKg6b6Clbjl8bjqF9J+r2TrZNWv9W/+IR59vy6g3PR9fOov+KqSQAUgcquVxEz0+ODxEpF9PRMz0xBmtHQv6J7/0JZVgMzrWjC9bSYaO8/WsHZz5I71v73ygStL2nL9wz/eme+cpcEyFRUJRd4WhHTdUExhe9LfIM/9zjnnnHP7JipCCn8qy45u+cujTyROFIAxWF5REnnF8qLMo7ZgbyJSifmm/o0KLWu5f7AvdSkdT9/9eskKAFDIiNpIAda67xxwxkhysE++/c3wN39nh623U4B//7K0VIzEHLAbvOc2vvcC4ctbXl3KjdBMx7Nf+UlSf1eM0HG9RemzUlWQi7qXXv36a795z9cf79304TP+MpMMtQ/CkHZzw4rVfAEQQpjdNjfGvE06CCAfxIYNmDETO7ZzcBAkECVd+g0/uyeN537nnHPOub0YsTQrhNX2a5LFz42AQFFGG+UZz0RnB5RCrU0Z1rasbcWiFW898a39cbAttKxYtKKjpRX7tNm0VhGU+lFOXHE8IEYh1VrxkzvxwQ9J/y4sVclMMMgq0AIpiQYKgB07y//v8sUvbp/eChg0NBTBH/wF//TJ7TX01z7gtN8CxcVY6Cy3P++I5/VUdrWGFsPQ5Vm6V5N2bVBQFGvlwYQWIrViBnvei3TzFtx2B1/6Yr7sFSpCUyrk4I0c9tzvnHPOuSfB3rMOpejnOCKjjZVupVZVUltT369zHN1u2zJTF04TYe25KQIRJYD2NjnxRKTKb4mshc6WUuvZh5999uFn1w9T7JHVvaZAq51GJItfiyBSRQokvQcHcm6XQAiI9fbwu9/Djl2xFJQRaQNrEInMjemsWDVuHOxeHRc8ddc97JrGchmAGtJO2AN1Sk/QOJ+/4WENF1cE5MgZR6V/pqxf+5EM7cmufYhZd08czPLBTmazppX7w0vOyV9yTvaBD9jnLpLQkvqxPoGiowPIc79zzjnnngRD0XaPyT5tYG0sd09fmTTsAeXIfDbUlL2+Dpv+VR8DPIFSF/Zhs2brudAsV8lGtGskY4wMYWipvug2s/c6H61V9mcqSOvMIU3W0trwLx2WSvf3tZFBFYrejbr+cVHVtCe1oaAoE4iBEAmZZUcd1rHybex4HC8/V45YOtSrdBIq+hcBqF2YNfYCkqFNusV7kUJ/nud3ff2lO774BpxxyQN3vOuC38+86NP5rDlgblqJKBtEoGKpwelB4rnfOeeccxOuMbHvHgaHJfvaV0KAKlYfdTSyjF1Vi8b5uz/deFq4PAFDlxO6x1XboRcSSgBABarDulvWat+HjYDdWz42RIGSFIVKiLSgLRHM80qFETFvaWnLLJOG6L+fWKxiS2u3dVdoZqWQylkgQBCUlIGWQbLALLOTzpi2+MIPGqipeJ2cqD0HT4rxtBtqCP0A8I+fxmUXPRNQ9rXGx4/80hezjevtm5dLZ0swUwhEgHHd25lA3sfTOeeccxNu7Ag41PGmtrpvkWRKujnJvJqmUw3LtSRHX9SfmNhff15YvbRod2P15dyTMZ+zGM6Vfndb3871u9bt7N++sWdTqhu5Z9M9/3Pvt4NkKak/sde1h/Nk6iDEjnnhhS+CiKjFMqMgz5APGAYjdxj6DTBZcZL+9V9DCGEx52ocr6upPPooP/2PShjFRCOyPhX+8Ee46hqRUiUiNTs6+DdAfL3fOeecc0+eVPWNFPGjUGikUqIgFT6n/jRaQta2izHEgc6ylLvbK2S52EhZq5CpH3P3OCUyRizfv5Mfejqpl92PKNQZ2edxv8KeUgiaUBd2L3zfKRfcvPaWx3Y89uJlL1o+a9mX7vrSdQ9dv31g567qrlctf/WS6YvH0xpojxp/sQjuyiDQfnvNC3n/u/sv/q+OrXF6P9pCObzg5N6nv6Cl42cyvR9H/Im8509k0VIYKZI2POvun1GzSjeWfvVrDA4KREAlFJSgCrPf3ILzz31j1lqaiL/GJ8Bzv3POOecmHGuZPjUzKVaDU4k6SEJjUeMjCBD2bGpb9c33bPvVa8qL7rzh6jd94fH2t71JsxJI0VohydDRxYoIbhEEUsX8xLwQYX1qE1J9P/YWcIf/yj5TCCVAZEbL9Hec9I4zlz7rh3+85i9O+4v7N9/36Vv+5bHta0pZy283/nb57OVLpi9Ov/IE0v+IxwthpIpAMaMjfurPH3vejf+99tHB+dmWZ3etftmHnzfjpc/KTyNWx9J7jYBFqKZd2eEJX3scmkZ5OcXODSFE2Voe/u6ZkjRKOQPOPAuAxZj2dRxcnvudc845N+FkKKmnih2rDsqqVbjnPps9XZ/+dOtSAjRCxFavl0s+s+Cmbx5t0x7qb137h9uO/ruHZftmfPgjVBUzALXNkWlUqknqawkN6ZlQzEY9wElLCAOViLRKrJJj1NPXc6EC0P1Y7m3cY1qJeSUfzC3PrTpolVltMxirNOlqm1acoexXPUm9RIepJCldRAW0hviy6T9E3xYwsw6R0il5jpIISyGvCMlSC0lJCbmZQj9GfTNrpfJKUk4/U2bNwtYtyDKJQi2TAyKIZz9HYXk0DUEPhcshr+93zjnn3JNBam3RGbHqIXnfB+TEp+O154YXvFCefw6v+QmYQcBBZr/6/fQvfq8jMqdGBGNpYON6fu3r/N3v0jwlFuNOGYkoWrtPkJUYlFJkfTmgob+W201Eg2SzWmY8be5xIgyio5RwFBGLYoZYtWhmeEId94soT4pISUPK5UHKImJmuVlEjMz3p7ifNTHGoaZARgokUhBoEmMXWaYA0g2WswyWGgplzLQod5Fi/3X9wIfMAK8JIyKkzJqJz34ObR1WzWlVyXcigu+9QF7wfIEEVT1ENjz4er9zzjnnngwG0iCUDRtx8SX4wqVsRd8SbNoVO++4fdbHPpFNP7LjzBbZXum8u2+5VSkQUCEipiKycwd/9zs84xmNi6ZBQKTunz07sWYNVFBO2cYIHsD1/qKiXwIAEV0yfemS6UsBiIwepQgAqllnqX3FohXzOuag1nZzn59dhLU0XdsMTCBtvbXGvpNPTP0tzbIsHRcAVQRgrc2oihkJEIyQHIAIpdahf6gBDhr3VI/3xXJSr0QrSbzlzTJjerjsy3J9a37iS/CqF/G9F6BUhpkc1BY+w3jud84559yTIUXXquGhh3j1VRS1Wdj+XPvpA1h+q525dn3rD7YtXNHeStL2vISukNRFp57mmUal6lFPwV//laxaRVIWHIZnnpwGtHICuvqkhF3P2WPleIFAAqSj1HXywmfU7lEcyA2eIlL079+/tWSSQmCgj7/6Jc56FrJS6kyTfiikIY3siooslQBBaQdiE0Ux71YmfNrCBCGpIgRj5MqVsnIlbv7jO05aOq29rLWhbEXx1ME+U8Bzv3POOeeeLAKCkRs3YVev0FAFI0IUBZGzvJlzd+XTZ2Rbj2t7QPsDKzEoIsCgiNI9Hcc/TVIrz3oVO9MG3unT5fzXD6ufTv3jJyBr7VMBfcrTBoJp+OuEODCZUgwDg7j+pzjtNIYMoipp2hQZoKoRopKRFAnF1oX9eN76h8Vab1TIpCwKqo9dU0VeFQk46+inAZpXoYGqakbVQyL0w+v7QPS3eQAAIABJREFUnXPOOfckSK07IQxBpk1DOTORYZOdAvM229mWDZaDPvtpPW8/twcS4v/P3nvHSXpVZ/7Pc+5bVZ0nR43yKKEsoQQIkMjJwmADxmt+Njiwxrs2a2N++zPY3jX2BoPttY3BaxwwJiwGw5IRUSCJICQUEcoaacSMJs/0dKz3nuf3x32ruronh+6pHt3vR5/RdHf1W/etqrn33HOf8xwHmsBkXHECfv51uuh8dtSdTrW8BQBPdpelx6Zi6qHrRze5fmik7rokjGZmZsRsJX2Pxm26iw6oXofMzVx4dD2/9AX+4DZ+5y6bLAWWjhSs+5HvqPZivXq0i7Bnn6kWbOktCDU3qnS5e6hV93hsG3XNIOf7M5lMJpPJzDrJT58kzU8+VZddwfWfshqioawrGn3J4NjVKx/peejJycmFay4e/i/vnDzpXH3mG9ywEOcv58+9Rj//8xYKSTIaOvP9UksrQiiwcgZFcgs9hjcstcNjFyz9vUv0HntgBkSJ7hInx8qPf9ze/p9D/wa+Evrbz9rrn7Pgv40OLeZmuSAdRVWOCHMAwuQEO7s6zytaNeskWbQqy2flvOnIyHF/JpPJZDKZuYCkqECedhLf+pvl5nXj999aH8HgTvSvWOFvfmO47rwr4geuCWvX+ktftmrtwO+/Q6/5Zf3rnfiPV2Oop2rEVVW4arrehu2nkGCt8PEYR10dUV/X6Dz2oF2uoFQlLHrwm24Mb/0tjOzwFVRNNjaBj12/1Pp/6W+X/Z4m9hLyO/2wc/XVnq3ewKtfM+0AaB4wM5G/l02dUnOJbkn557g/k8lkMpnMXNCqgIyh4FUXjHzw/7nh2w9+teFjZbhh5YUnP/dNrw3F03309eGqq3TO2aXHsikruGABiqCyyVD4VKy/R+zZCrisCwL+iikJOyDI5nZYneKfzoqIfT+elIwaHsZnP8cdO2NReLNMbkkaC/UvTTz/4ckPnMof7ykrMh1+XFsNqajhmVd1x/t2SOwR07eOLKrXnOieoB8p7k9nZOnrZAh1TIeUyWQymUzmOKQlgzZAJju194nTBj8q1mHkwIWyn/XY5MSYynEoGshAADEK8BT0V+JyCOyiWGpfdFpbzn0iuzPEb9eedj6gI/ajhBCEQBTwyK1bkTz70fLiV8QEiwebK0+u34u2jiX1Ktbe3ZcOkqldhCIYulUHtS/2+Byyivy780aquD/G2Gw2Y4zJBfZYjyqTyWQymcxxSCsANZjkdamPoMTovQYLwWAGBCAYo0DQqy5VU1XA8yDiP9a4lFoFA15i1zB6GujtA7xlKOkASJMUvRIhPfIovvcVnXADH1zusRQo0AOqB5uhgE4qtpoHVfWsYjNqYgLEkTgVTYWd++mEMK/o5jC6AJDKzGu1GoBGo3Esi98zmUwmk8kc/wgQkFKNIhCYukABKdRkhx9Oi/lb9DnnGFMWvoy+e9g+8hE861m44DwJYKj2XZXcg0Y0S33rW/jN/4iN99qvQv/j6+jpoQEWZSiNNMWg8trGTWf1PuTjRiMAhRrOOgurVgJQ0b0FDJlOCgDf+c53/tf/+l+7d+/u7e296aabXv3qV+eUfyaTyWQymVmlku1UKpgkjyACwKCqUy9a/p925C1pnyKQdKhquFvAzDC6G+MTssD2VqraQTkZ3PXYOvzGb+D++7W0UE9ELzg2rlpBJ3fGwUnU63V7xbnr37X1z7VhA1GHU40Ga3WccQaSkN2Ok1T9cU8B4MQTT3zNa14zPj4+ODj4+OOPN5vNYz2qTCaTyWQyTxlSdr8WsGw5fuZn0debGvFWPyTBY+rEP9+gQEHNSd50s/77H/PRdfrkp+x51+Kdf6CeBlBp0FOhxeQ4b/6O7r8PRQixZGpyTMQBjP564wOX2A+Hmpue23/Xc37t2gVXvIdf+Io/+LD96q/izDMkSZFonyHklPE8oACwZs2aNWvWpK8/9rGP5bg/k8lkMpnMnEJAEfU6ltTRkvNISt15j+3Q5hdVQwMQZVMPPcibvoveHmzfrr4+joywtyf1Emg/vnStf9yDmceIdicqUMYVK/mqnpuxawynbddpr/PzL7WeBbz3Xl1xOQARxLwrw32qM1XXW5ZlURTNZjMfpWUymUwmk5lzrN2BC0enB+1TlNTNmCSCaeEQi0AG9fVKEVKyFiLgBFwh2CmnWHQEIytHR2ewMNi//F1viWsvw2eu1zvfSTLQdPZZOOssCqIMVIdDaGZeUBXFp9Leoig6PT0zmUwmk8lk5oyptrst7b9TUkw/zfHJwdAK5Ji2T4yOCEmU2Om/qWTCY41ef8YzceFF7i4zAxRIEmvP5HNfQC5cpJ7eUDODi6kNskRJhAvIQf88w1AV1jCl+dMG4FiPKpPJZDKZpwqazrEezrFArfLd6TGkmZ04cOLPnve6ntAAmOOTg8HMUkhHwQmR2CM0F6Z6iFFYsxrvfa9d9nSPbtF6Joueq84f/pt3jy9bHLT8pPDvXk8Zi5aVKknSDDC2g/6n5Kd2XpLrrzOZTCaTOabsJWW6RxPQ4xvONOhMrWUB9NV6+2onHJNBdS2SpnT4SWev6vvNOPmDDbcNjw+/cO0LIlggaG9BefvFTsruUOiqK/G5D2+//Q1/ueB7n3tO/3cve8Z5C676Y3e3BYNYMCiACAD21XI45/znCznuz2QymUzmWKCWrUqSZTSjxnYzFOrvJ5QjqX0dfWRhSWpk1vrKKAMcdAClyi0jG7eMbkfl5hn3f53k5S+5oi9bXn/+tWNctwHn9PmFa+AiKXd0FgzkFgrznBz3ZzKZTCZzLGDrD0GI2LaF3/o2Fi/ktc+HO4pwgF8/3snx/X5ob4qkmOof5AQgMbBuMLXkY+5+oJMjpQpgHxqy3/k9oQdvexsXLkA6hmHVQ6F6M/J7Ms95Kh0jZjKZTCbTfaS4LJkvKjpyAWtm31SBeOsTQtLMYFMKnPQd8+o7B1kUQZJwSawXaDTcq4YJ6c8c7R835Hx/JpPJZDLHEnM4YG0pBZLRYiazPxxR0kQ5MdocJcMYx6JKwHeOb986unmybLrBYAaADuz9+Ki9i6AABLkgEJ6Kg9sendms87ghx/2ZTCaTyRxLUl2mu+fAKnNAqgQ8GVgsaiw8c/GZY82xpjdPX3LGCYNrfvjk7W//6n8uvfzMA5997wv/+pyikJLV/v6uSSZHfjAYiNTVqzPWz0H/cUOO+zOZTCaTOfa0QisHsq4icwDSp2X10OoPvfpfvv7I1+/d+qO3XfW28Tjxhfs/t3Vs21B98Mldm7aPb0PSj+FAgT+QGiYD6HQKyhx/ZH1/JpPJZDLHgr1r+PO6nDkAUquXmaugLWwM9Rd9qI4CrGa1wuq1Wq3SjFkK+g8Yzbc+ji54Li85bsnzSyaTyWQyB0VHuW2He/phX27fGdhc15vpZOpj5w4ghFALDQAinDCzggWAAIbCFSZpk2CZHkwEh1K8t9cPcMezRJDo6U06n8xxSdb5ZDKZTCZzYDw1k3UJkWZt9fN0m8PM/mn3I5v+erXCUWpmy94MOl4sMzPUz1ly9qkLTwVQC/VCumz1ZRcsv0CExJFNiyfXXTzeW59c0qg3CJk7DFVj3WTDn660t6cJWLBQb3kLGr1zcVeZY0GO+zOZTCaT2TetmJ5JAG0kCgDTWhgd1VD1uE72W+vupt9j6wXMQf9+aBfX1kK9Furtb9atUQv13cP+D/9Y+4M/uGJ80e+ND2wZX/f6z+AnF618MJgkcb/SHal1cYILFra+eRx/Dp+65Lg/k8lkMpl9045Ek9fhrm3aMcwVy5RyorPgc0Kz4zj+Te6QSKn9Yz2Y+cVeA3FJZRPR+W+fst99m086sMwBH95l7/uj5ac8d+hNfYoT4kxr2PbBC5Q2sTnKf2qQ9f2ZTCaTyRwIgQK8xAOP8vqvYMtmKkWus2B+ctxFYNorVSPY6BCyicwBcKTWWtMQSYlF4I4d+OhHY3MSBqaqXMJ3TfDDX125Oy6wslR0RDkiAAqApWtKIiA4QUy/cvbuPC7JcX8mk8lkMvtDEtoJ0QKo1QATATrzMnoQtINId7hXkhKPcAdkSXKeX8d9Ub08mvktqBJNidi5U09uTp25DAwABJPCrrBkQ7mG48OYaGJwwHr6OHUdw1SfOJvWK0753ThuyTqfTCaTyWT2R7smEjKoSClSAMkVfZZqequQrpt6J7WHlL7sHM9+xtaR3w+hahrrpCkABgco5QbF+2EvNSSs/qSDIIi+Xg72pSMTR+v1DEWsnXXKwvf9nX/qb3TZFfa856OvX5z+Zu3140t0CoEyxxM57s9kMplMZp9Mj4scrAQpklKwyqSXONreh1Obja7hsIfU/pUnN+irX+Ndd2NooZ51sa5oep3uoCmHmYdD2oDGEgsW4/nPx43fBgKLAm6ygHpD1z6/tuxpS/x7p9lZZ2HxYrhmvH1C+hh7S/nTfhPyu3F80v1xf5phpz5/ncmPTCaTyWRmDQeMrXVH03PSTIY+QKWXONB19vz7jOVshmZIws7xHRt3b1g9dMJgffDYLnztzU9Vkrt9u55Yz3POQVGDC9Yq1Z02SG+rU1xU5J136/f+P3zpS6lUQssHe35t7aq3haH+cicQcph5GJAEFAoOBL3pTXrgAfzLR+Q7ALBR5yt/ir/1tigBmrDS4ZJEUdjzEMk6/swcz3T/e2wzBpmD/kwmk8nMCdXqU+W5dYAeXfv+oe317zOWsymnRdLdS5/cuHvDNx/55uaRTWg1bDpWdA5UEh57FF/6MqZrfvZYnU2SIHfA8cQG/M17+eUvMxQMIZjZ1l09H7zr0v8z8jJhtCnmut7DoLXdEsnVq+3978Un/w9f80t45c/yUx/Se9+HZSsIwFpqKwBgjqOe0nRpvr/9UU4FQEolJ5lMJpPJzB2Hpj3plANJVYdUCiAFiOpcyFIGvVrs4EJa5iQJDpJUATCEQAZ0U86LAqxAvQYXArRvaX7bstNdjz3mN99MI+GQRwACd3DJt8av/Lnwb731qK65wXnEdFNU9Q7Gl7xSvRdj02696EK5oInAELh0GXp7ZeR+N66ZpwJdGve3JjiaAa3JsXtmvUwmk8k8BWgF/SlIryzQD5yYTs29KqpuSJWKR63+vq1VLlnbGL1UbEoQFOKkQ86me3R397K6bHesg63Tj4MKIZMayqGR3WF83N19EXdeiZt2cOhmPbsZbRQLhjnUW2wTQzbzPGTU0psF0NmMRSyjNwl4c5JONBohNgbtF36BACSHchb1KU6Xxv0OwTUexx7b8diZS87qnEIzmUwmk5kDpnUyEuBymh1ER612Ih9lE9u3c3JSJ6yhOrYDHb3AUsKfVrBWRxFohddrjCqIoiiKot4oGiL2rMg8lhz0SCTRGKBFi3xwiIDIyUENNxUAFHH34pEfL2j+OO4M3LUzFvV06DGbQz++IACo6vigYEYT6HILReouIYMIS5vG9keoS/aQmbmnO+N+T6ecW0a2/POdH3rHs99ZUyisdqxHlclkMpmnEExeJ1RKkjpFOQ9aK0FBk5O47VZs287XvR6xxF4WMlJSbOKeH+kf/xF336Whfj366MgrX/6t4ds+fvuHH9u1YXh8169c+su9Rd+xi9X20DsdXLI/Ddhdkk4+Ba94Oe6+g4WbaFQAsHJ1uO6nT+7Z/IK4/NTwUy/jgkWCOEvGqMcvJCGBlLxquWXVOQA7OiN31l7noP8pS3fG/ZUGjWQt1I/1YDKZTCbzlKRKz1cC9pZX/34Dpkq2DwAiaAWKhkIg4IFJ6NMpiCeiaJyYxG238sMf1sS4AIxO7Hj6027Y9u2P3vXxeq1noNH/M+e+um+wf9bu84DYXux69tvaaSq7LFgggy1fzl/7pYndjw9/6J9VKjQRTl8z/q63j7/w1ZfpazvDGWfg8stbr1uOSQ+ZttBfsE6vnvxaZmbQnXH/FFJE6wOdP76ZTCaTmTOSBcrDOx++Z+PdF6y66NShk6MY9p/qbm8NBMLlJVua9coHE+rcPKjt6VmvY8lSb44zAoMLqFgvepf1L3NjT+hRahV27KQ+e3ne/RjwqHp8JXaKYtl09zUr439/6Td//Wt/vWO8UUdces6q1c97G30xJsYxOSkvBZAFK+1K7oV8UKRMPpk8+MkOfZoO7lgm85Si2+P+Njnoz2Qymcwc44hjExNbRrdOluOlR0gHrD2dku53ZF6nfrrvtYyxZOmSUrZcdJdMVdqLBzxqOCTU2qLM/MFRqPycdqShqOFhfvc7bE7iuc9rlONn1h+SRUlWBHkhkVYDg7EQItpnBTnoPziSagdAsuvs/Hx69SbklmiZKeZN3J/JZDKZzFxSiVsMIQTSSMJmM4Sq+llNlbXOYr6WaMlC9vgB5FISJR2ViJGCTzRZlgRcgBeEgdFRgIBRcjMXpw4KMkeAIWnMBEu6qaPdSTozr8lxfyaTyWQy+4Skmc2FZIIQpwXisxQEt1xJ93ZxAURoZ+sPK+if2Y+MDGzrn6ozECIIbqADbNQUsnXH0aQqSXegOtLJKf9MRY77M5lMJpPZJ1ONTo8XqkoDxRQLjkzu3jj65GhzNLBY0rt4ed/yo2v5kmoT0p9m09sVF8aVy3ndK1WrUXALOTN9JEgywd1jjBQcakm5ctCfqchxfyaTyWQyXcEMnc9s4smlZ6wc/dSPP/2H3/z9HWO7GrXai9e+9F3XvGvV4Kqj7qVBEjApTnkZpT7EVmBgoK1PzxwJ6Wxq5cDK/nqfCLOs8MnMJMf9mUwmk8nsk7lUnM/Q+czWswCUUQJZejk6OTJZlo2iQefwxPB4HMNs3XVVcpo2FVJsu08CSKUFWd9/2CTXzro1nr7m6ekVLpjVU5mZ5Lg/k8lkMrPCvuQxxyq267bxHCuSvl4dX4UQ6CQZzKYKQ2dvAC2JP1ptAVpylKfWG3EUmf7ZnjJRfap9tjMHJMf9mUwmk5kVjo+Y4zgT9+9JSrpXtylDpcWflcA/qX2ACEwL8tvtDGZ1v3EcQ2q6Tqqjf0LrgOVYjCvTdeS4P5PJZDKzRTvyoKDmJF3eqHf2E52dZ52ZOO4cBrxEM0JCvYAVMO49M3pE0b4DM+KwjuvvzTZ/BtqzTdY0ScxRhi2SBczBvC8O2L4F+ZVJqESZBDgdMrjcqShEQ0itudgZleag//DZy3sx6//QMvOQXEWTyWQymdnBO4L+2OTN38FXricciq1+rgCOMMLeG/sMclwEyiZuuQXXX4+iBu4j6N/fRQ4Gm7m8Wocp0EFc2abyta1UuOTu7q4WRzK+Q6L1TD71TtGTvT+5T+lUekljVHQwgKRPhtSSizKHBNlxfpSSyXQdOd+fyWQymdnBmEJ7EQiG2MTkJK3AlPgYgIN2MCnwI4QCYFq3Dv/3U7rpZkrYsQMveB5XnSBEIRyFnKgAulSF7CThlCgRERJplStop53l3q80tRsRAMqkSJqZefUduDvnxLCl5ftZDUaI9Na2JIKBnTKSKW2JE0RRd0HDuxRgfT1Sw2PSEgG5nVQmM/fkuD+TyWQys0PqwUrgR/fywx/Ct26El7j1Vrz2tbzgQiE6Q6UVmZMIUIi4+y687wN89CEUhvU/0YknctUJR+filT6+CoIpuDwUYiFaa4sjGJkOGQ5ym9GR17eNuzc+vP2h81dcMNQYqixx3HmgLcRRR5LSPblAwtNuJ1RSHSqdboCYbOLm79s//DWX3Iq+mm/7Ln9zae2cIC9FEJ62BplMZu7o6rg/K9IymUxm/iICihC0bh2/+jX86EcwYrLU5ZfxggsB2NxWcdKFUGDJkI8tJ8mFQ61BHtp1UguqmRdvSV5ISknbZBuewMYfsDaBBVt14lK1w/j9r26dV2d1JhLNbMfY9ns23XP2sqcBThqqNlhz1Ip1SiweagpAra6ehghKyYm/hQHuzslJff3r+p23YuMDuAzoAb54f+P+wbV/Mfi0C3i7o2FwYh86oUwmMzt0tb7/uHdRyGQymeMbIhDBGgFDg1q0GEMLMTTIUIhOhGMyxctLc6FspvKDw9h57DVqlyQIo2PasQNRW7byL/5SV18bfvvt+qN38ppn+Pv/RqOjkAif9usp8qVLEgUKoVr7vF3L6+7rtj/2vZ98/84n77rh0RvW73oCU42E52IdlwQXXBgdwd334MYbcccPcf31fOIJCnBVDwCkGCPlfOIJ/tMH+eMHYYV6iTrhDD8cPusDu14bIZJOQ17lM5m5pRvj/k7nqYS7H9shZTKZTObQ8aRvgQgXYwmPlYWjTGjOQknv/pBJinRKkYIQUVlHhgP+7gGunOT4UX7X3frsZ0Z2j3/y3/Tf/4QbHqvC+oce4rv/Ah/9KEmJ6FzTUnZfRpIiRHjHZdMeY8vo1j/7/rvf/Plf+6c7PvgfvvAbf3fb31e3MHdxM4XoKvHoY/iv/wW/9VZ87GN80xv14Y+IECKFljNSEm75k5vKBx6gge4WRYlyjqvxQHnyxvIEckKej/QzmbmmG+P+tpewmZlZ6jt9rAeVyWQymUND4oyErqTUtFUEUduLXGZ2MTKIJIOI/YT7Mwxz2l/uNc7u/JEkSI8+jm98XVu2OszVKsN95CH74hf15JNMNjhT1jiCJJaO6Fa6lc7oVKWSd6eRUaXBlvQsXdyzaKhnEEAzljCKc5YUUzq6kYRa4OLFvnAxFi40FwUiqBL3t71KjUwF3N7ZplcEYFO5vJzuz2Tmlm6Mpx0iWXpzw/CGbWPbdk3snIwlONfOZZlMJpM5EmboYcSZ3+lOcXdVmJuG6kzWmYDAsjX+1l3QOw+o3UGSrp1P+ubNlvYVSUeUPH527PAnHksB/fRXph7U3wczH93Ncsx6GurpUzoYoXuqFUYo06kCQpIAoWX3ORuvwLQv290D0jZDFGDe2gtxL9shIS5bqtNPS4P0gBJwIjYwcUr94dX1DTHWmF08M5k5pwvrep0igLd+6T99/sHPTzQnvnDfF//wmj983XmvDaxGm+t9M5lMZh5igDtTOydJESBScNxls3rbRpNkzdiwWi005IGCA2ylqb3lypN2ClaDK6rAwPKwaHGlIwJaMhiip9cWLE4hNCFV3QNIq/XiZS/Faafyq1/zJYv9la9iMRY2j6I2QfXUGmVPLyHVYGYWDCardP/QkUqUDgLCJdIEhVRt0Hr7Wg+YbuOfXrfVq/0Nv8Dbf+BbHgujqPfCzOyCvvt/ZeATRgmiPLv5ZDJzTNfF/e6AYbw5vn74idHmaEDYNLZ5w/AGSbRZ7FaYyWQymVmmBGECSJFEIWu7vs+RledBktaaCZ98bMe6r6375t1P3jPQGFzTv6oW6p0WRAaqMrbH2Ahuv4eP/qsNrrMtI1q6HD295GisoSwomhYt4mWX4tRTozS11UkqVpezp4ETT9RZZ2FgMCxZ4jueGF2/dvf3foa1kY3rr/rxUM+kT2wa3VQvGqPN8fE4FlhIkZiV123mQY0qW9IU3osESQZ0ePar9VtV219aby9e+Nzx977tsf/9nx9eNf5YA/H1J974O9fccv637/GxWrL7PPpDz2Qy+6Xr4n6SEEgWDD2hR1Jv0ZNmxhz0ZzKZzHymEOAGk8pycsPwBhEnLjgJMFLyDnVNd7B9dNs//vAf/+K7f06zbaNbLl5xyZqFJ3ZK0r3SLmnzFvzzB/Fn7/HVG3E6/DNf4OmnxfPP8bt+1LN1bFEfxgcH8LOvKn/xjXWzKtHfDthdMAESStfkJMo4OlJ+7yuLPv1HPz+y6Rqu/t63H772sc/1X/PGV/ziRc2Htj94yepLXrz2pSEQzrlpfUUQBkNtpv6nJVcipzZDU3UOxkaPvXjtvc9f89aRnY3A5sCaRVpzjbNOlWBq6zYHw89kMlN0Xdw/BdNRsHeetx7rMWUymUzmsCkhUYiEQ/dsvXdkcvSkhSdLTlrbs7IbSMtNVBlCWNa3PCoai6hScusoRk3uPB7xta/q3e/Rpk08uUCfM0zqoUd17dJ7/nLRJxuTj9RWLfz5Xzn9ub9+3uIljvZpR4UbTWZoi16Md98T3v2nxcP3EUsn1DMSe0YeeWDVKZ9/8e9etWbzGTe98MTXLhtYAAA2F/qo5C6KDRv10IO89JIZep49Hz9l8++QxzhZM/QPFdsFK9GPZj2wte/pskOeTOapQBfG/a0eKkqKwRTwd9F6kMlkMpnDwFEQUVKpySd2b3h02yNmtmn35qG+BQ3vRuFHFf2j2R4YaV4Fq44qt60Nm3Dbrdi0EUbFkiVUUhNjYcfg6We+4SXPDjco9NibT/Ya3FvCHqhVkpuu3CoONo257nwId94FGoiaoskLo69b3/zSt+NZL/GIEWlIhIHuPhd+d15i8ybecQfOP/8QfskAo6mpkV3aPSl6GNkNKNmpGuegMCGTycyk6+J+Sm5IVf4zYv0c/Wcymcz8xeACRNyw/rt/8rn337X+h2b2+Qe++PZnvf0ZJ15VecN0wbnujLXGYZUX57SxtXcCnBjBtu0g4VL7BybsLgY3nHyJryixaUssBhA91ApVjyH2XtRgk5PYOQx61d5LdMAlTDa5e3uYGEcItfbx9xwE/RRkhJHFVKTe3vns87fgdIuF2Qkn4uKLeN/9qgVcdBGXLICijFOunu1kXyaTmX26Lu4XQVXdDCsjf4JeNSxMpv5t5c+xHWomk8lkDhUKYxMjY83xOusgRsuR0ebosR7UNGYkmApMmeSnH3B6yDu0CKtWSaqsdSINgIj+Aa1eJvqEyiYAmtx9r5pVpo2FjK7eAqsXeygcZbsNlgno6w0rT0D/IGNZDdI498cjHWXY2t+zCwYiWA2XXMy//wd85Xq487rr8JnPoBkJl6y1c4jdds6TyRzHzIN/bO1tgJmFEFrCnxz0ZzKZzDyDQmrFWJiFIrVmLDp8YA5nYm81do/aJ/HAV9nP9Tt2Aqy+Yx1PzWVL8Yxn4NzzLAKiB3kQBgZ42WW88MIqS2VguvHOe2TnlVuRvgF4AAAgAElEQVT9gxsFzz+Lz74GkAEgBZMV4cwz8bxrLKDdIItzLI6vmhgcHJVAl4CXMKK/n42GYimPSC0IjKykPpZP8jOZOWMexP0Jko/tWPd/7/10GSdLb+ZpIpPJZDKYOvutQmqqageW/pKsJyngCFrb7nVDkhT2gEt6ztX4g98evvDUXYA1DX39E294xc63/trEYB0Y3194nq4sejIGSqM9+2y+85180UsgER56jC+61t/+e1iySqNjZOAcCKJajQkO89enOhy3HIckKQS6MDGOiQmOT2B8FGkbkBN5mcxc0XU6n30hafvEjjuevOMFa19U0EKuCMpkMpn5zFEr2VKHhwwJIpaTwQ31QhJEgCKoAJRH4elapLMLEJJ6+/HTFz70zIv/9xM77jezd6z8v2uf+ZLijDdiNCIkD5/99SamTIiSWEaUZSh05dP1iY/jhtv06fv18jP4/Kerpy/e8yQsoF1SfNTD5c4LVtef0t7vkSXc75NX+5mOog2SDDUsX6GTT+ITG9So4dTTOLTkqN5BJpM5APMm7gdgCEWokzTkqD+TyWQyAAC2vCYBjI7gvh+Hr31djzzM5zxHV17Bk0+DO3n4xaP72Z84lJTsqUR1VW3LqvodKGqqLwVKwUgRQfuL+dN1SID9fVx7Bvr6XSoRenq59lxeOaSLT0Wjj2W0kLqezdpBvSQS+yjYnfrm/vcwnZCUKpt/Gdlo4NpreMEF+OxnuXwprnuVjupOLJPJHJD5FPe3EZ0s0HUdHjOZTCYzx3iKg4VIBD3+ON/zZ/rXT6AW9Lkv2Ft/C7/1VhmR8v6HFflPC/o18/ukolemnJIJdcqgOmCps68OYpUyA1BgwUJddhkAA1zu7u4qSzQjJcnU8vg5fMHSAZGbqQBQVd7ubZE9+FOaThMOSUCExFrQwiH2DyR9E4rs1JfJzB3zKe4XAXrbzj/X9mYymcxTHkOS7yMAYHQ0Gli+lKHmixfR6CpTnqjyzDkUZnSPmVZKK1RqfJqZKILpvySPkeBpM0AeOKrtrO5FtVVwg0iQAj3QoiKMYICxvdsBMP3vRwzd6SA90ISOjY7h4PYwM6/XOhwgSRSVnEmCt1oWzIJgKZPJ7It5U9eLNDPK2tVCAGY17ZHJZDKZ7keS6PCWYsSl6HA3OQCrynwP3ykodY8H3b10b5lOEpKiyvs33/flB67fNbFTin6w+peOpwBQ7ShIEpZ2EEnOOm2BNgEuwuEzjC+PYtAvSYwlnljPL30B990Hl6uUV46inVugAyfp99KHR23XJodEyHIGL5OZU+ZT3G9t5+BWt4/5Nf5MJpPJHHVIkgFFDVa1gWKy9XQHIKOqHlmHTBQ9miGA7hHNWJCBiq0MvkPaMbFj/a7HSy8BQ2o3o+gznm4/+4EZDqFK4qB2uNyOibnnwnfU5TH01kgnSz65GWOjMEJWlqmSOEKhLKPgrtL3u5WStOfPU7JfEmK0mE4yNPO3MpnMbDKfdD5tWqerx3ocx4S93nhlUTdzF/SUfZEymUw3084WTzeQiUmQc0jClVTRq+Gd2rnTli9zOkWGAAZwDwcITctYT33fKHdQTGqW1tgK81rPaFmMaby30VMMDUVSDrAdhpOBRacrP2UIBTElbgFm6GOm3d2MbHf7SwObKCVvehQ9qknS4rS4+KhnymVgMMaI+x/Wl7+EBx7Q6Biefkm9p4iOctIaFItQJerN2zuRPfU/ex0bEWAl+vpx7nno7RMJm/a4nPvPZGabeRn3P6WZPitWkT2x12Uyz6CZTKYLaUu63TtdYkJrSttvI9gZcnAXFPHgg7j1Nr3spSYTOuLRBGWprhdxxqxYqc9V9cGaUYc6tqtn440v2v6F09i34dabLvvs5qWve433pWiVBUn5TG16UgVVF29Z2QAAXT4VHjtk+8+XEwVrq4dOeOFpz1/RuzzQSkXZnnHx0RT3ywFA23fgi1/Gxz+BgX575KHNv/8Xn/72ins+qVMf8wfvji8+Xy+KCqjaiokdNQnVgtQa0rQa6FbrNAb09+Cii1AtXjkIyWTmlPxPbp6R1jxJZGtBmaoDA/ZqwJzJZDJdxp75/oOk/StJeQ/ACcJQ1FQUzqkoeForXFaekinlT2DqTxJeiVLaEb+kLVvt4/+85OP/47nN4iQtv/3eJy76g1t6Nz4+/pvPHB7Yvg07d2DVMkyXudt0OVGalj25+nhbyG6A24GC9fTgocbQUGNIgNy55/FFdbWjRvtmSKqvBytXrt81+Fd/Gv76I37SOK+QfeRH9sWeRf/v0qf9Us8tnBiFZHJNnW5MHxKT5CpdMCjV4yk6C8SSFFhrPeoo3kQmk9kfWR8/z2g3tE/NKVMdGIxkMjiiu8fYnF79nMlkMt3FwUT8+5nEWtsGSESTVRKkKS8dgFeZ66q/VYzNZnNifHLM3ZMpXPuUgXs8i1r84Bb/5w9q505HmERtlLWRjZvCJ//00W/+wt/5u94x8aqf0V/+laTKXoKOaRb3Xo1QmJnXF3QQtjjtYbh7qgGQoqQJH6+aYWma285RoaqUSM8eYxn13dv7//ZjgxPjaljsow2YPzy+6h+2vuzOeBY55qyJLRPVvQzFp17bdm81BgMt1Gj1agnLQX8mM4fkuH8+44JLGzZoeBhOJcMjsxBqlf9cTvZnMpnuY+qkEkBHjIuWIESSY5/Hle1oMkaJbj0gGaNbwRAqW08qtpMjZsVdm+788kNfJuleqjKmnxpEZ+gvJ2Aju+2+B2z9EyQKuUFBCoBtxrIfhUvi8rXF2Wt95aqpwXtSW7ZPYVMyJqlflEbSvvmDmZlbUzhT8QDJwGJJ7+ILl17YV+sDYGbAUY6ZO2N3ktvKwTt2n7ZrtIAQY1HKowcAW7XsnuZ5ZD9NDrZ6kwGYXqXbCjAoIZaanMTe9nI5RZXJzCVZ5zOPUWyiqOETH8flV+qii2IIIfCuJ+9dM7h6Ye+iaVVlmUwm0zUk6UeVEbcZgh+rtDeS9h36Vw817Niub9yIe/9Vi+7Hlvv86rN1tRBMZIBilDYMb/jCg1/8xiNfH2gMnrH4jHNCjapqc9uQdLUy0gTgMWJygt4aaUrnS1ErFumaa+LTB2uveIFOOIEy0QItSflbciFPvQIs/X7p8CYAumAHFPYD0yWaScyU3CxWD61ePbT6UF7pQ2PGOUSTnEQPUlvi9B7JQfhEs7llO4tt9BKxCTehpAJoe94ZEdDbpwsvgEsEbWa2MS9SmcxckuP+eYwkE8AQiSAALtQ/f//nX3rGSwcaA4FFnk8zmUx3QlWuPowkOV42R8vdAdZX660VDYdMwF7CyIpkJ79lK/7hA/aed2vVNp0NfOn7+sjggt9bfsprawPWHCfNgHu33v+3t73/9p/ccfLQyRetvOQcnJpC+HYn3SRPJw2qenG5c2CAp56ChUNhw4hz16kaXxImFopYsBAnnlHWF8Ij6FGITW/ubu4ei6MLkwe/ABhSnQDJRsMvv8wmJwHAChyslt1TG7LW3UIQ6FVxQts76Kj7+UhVAa4L7osnd5xtDxRklJg6IZAEF566aO3VV2Biiz//p8MzrxRFBe3tzqoR9tZ5+tqqGiPkqCOTOZbkf4Hzj7Y7ZzpeJZAqq0QQsVYU6UQ4B/2ZTKZriawEHk58e91N77vlvfdtuZ8MzznlWW95+m+cvexsR6TCvucxI/Hdm+PfvE9bt+GUwAHZkOz+4ZUfiC8+c+GtT8dNpS+tuwpxQWPx0r4l9VpfnaGKm0mo6uDbFrd0xtOhwGWX67qfwvvfb5rsx0R/pA/08epn8ppnUw9DxIbdG/7p9n/6P3d/fLwc//T9n3tT7YrXtkz200mFIFhhixcf6ovTWcKbjiAIVQ2J93hBjqJ/Q6UnqtWxaIFq9b5ev+rS+EqNfvKzPRFegiW4dJle/PoFl/7cc/2ufrz29VX/gZbRUMdgfKrPlwiVQnLv6TjeyVbTmcyc041xP/fS5A+cEmQe1Z7k85C9zZPtTvXWLvnKcX8mkzn20KFpM7alQLFS15RC3Dyy4f6tDzy+cz2AB7es2ja+HUAyLUPYS5jrEOTbtuL2O7hhA8AYo6qGvQwbfPU9E2dfXru1FlTZ+LiXXjn9c8oKrSrGbV+4irGZan118kn43bdz0SJ94hM2vNuXLgnX/VT81V/Gqh3EpBS4a3L4gS33r9/5WD3UH97+0PrGCo8yekQMncuXT6vjPdyZeZ+r3lGZ6tML5ZTKphYO4fWv4+AAzj3vzGuu/qNHGyvW4MHPc8kuXXKKveLn/dd+2XqHTseZa0NrmW67M3XqtaaNjcVUfcPU0I984JlM5tDoxrhfHX5qHd90iL4Po/pMJpPJdCOydnyX8utu7WAxEgFwkr31/sH6gKjeojdN/jZdCN4S/YMkndEwGTE6AagyyU/FupKibIL9JawgIwyRkAVGYSIKipWRfCunzhnP0vopAZx8Cv7kT+x336aNG7l4KZYvI6D4w0rHTrJe7+mvDRZm/fWBItQNY0Swjoa7e13OuoZ2Es0oeBKOApBQ78GK5Vq1kvXeM8+If/7esPuNmPwi/r9fjAtOpERJM2xFu/UeM5nMNLou7qemWdG3Z2EnwNasVPFUT/xnMplMd0OHt60aq9ZOmpYSrlx3BE/lo3vzg0Q7rCTgohQ2blz0k62nLTqh0b9wZJcAsHLR1KKJzSf6bRZ+Eq0wOBsTqo02xxYoLCyKwnrcYe5e9UGBOpeStn9/9aXgwoKFXLgI7ohNWIdJf1LDe1HKAli6IwpBpDPKA6e37O0uHDDRqqZl8JYpUWuoXqIZGZ0wSN6Mi3qAldIQFU30SmVaefN34Q1mMpm903Vxf+d56LR+KOrwekvKwFSXlWecTCaT6VJkIAQnrCOgTzG6HGKlS9xTmjjVDWoaLpQC+fjjjR/dfsW5z3vhyxd++iOEGBFELOzzq16y6vJLX4p1K/0FL5m4+NJ1d9i69//prl2PTCza/pFvvmrN2Te/iEIq4q22CntxmOlI/EOCu0gGg1dtf51SKESvlVtWO4py0YAtLguT4KUhJOP+aqsT99Fy6xhSSUPTTiuKpkJskpQImQwwwegA6Gbm7igJyahUtWy531YmMw/puri/TeVH3yFYd0RJjrLDfDkL2TOZTKZ7SVM0XVDVYwREVCEPNAD0aFF20K0GDQBksEKh57wz7fffvLNv3bb13xnu5+Sa+pPXvnTiP/7h4iUjV/iPBsJLXvKN7zT+6r/i0dtW8wQb07qvf3vhtq+cNr74op/q2YjxpvZtGNS5rFTyIgBuFLy/lytXl/XaunvW3PmX79j+yDosuXd00/N+eNbjj/j7Tw0GT8763jq96L5zaUGQFAmTZEUTjRE2Cw/RGuMwyc1kjALV6khGxMnKQGK/VkuZTKab6da4X2ZiyjGYmZxm1lfrqxUWWKuFOnLEn8lkMl0PLXnbsFU5CsFCbcJ6dgsQYujZXSsmU1HotF/UHlVeimQQjCbQLUrRL1z15Acu+qtdP75hd+gbGPr75Re8TKf+dryjDGquf3z8i5/tufWHok2qGIc54XdOnvHR3S9/Zv37S7Hh4PtFVeMwQLQzzsKZZ//w+/7n79Kt3xzUqs2MjZFNSz63fsnSgWvfufRHg5Ob3MxSTh0U4jRTzi6gCvoZUqOtic1rdn7/urKcNLORkTP1DBjgkAUCUCpmWLxI557PWi0JtfLSm8nMU7ou7ndEQwCdkCtKJrEwjMeJf7nrIzc8eoM7XnnWK89aehbSxJTnn0wmk+kaOtP27Wx3crSRaFDUxO4nTtpyy6XbNz7KRty5+vzhZ/5YNmGOWCl7vH2p6aG/SYIz2X8aQChG1l3Li03Li5pq/YqQZAEENm+wBx8mHQoGJ8RUYPBEXPHQxJrFXJ/GmHqE7eNmqjZe6S4cSo8cG4k33mhf/Wq7/Zdo2MlFN8Yrbx2/4Xm83p1Vqy+oC/P9JIEgKUa7/Qd9H/tvz9txy+U64XsYXnXbNy7+WBj7zZ/e1st0YuEAaAXWnIgT1nRsxXJ9XSYzL+m6uN8QJDWsTgvbxnYEaiw2BxqD20a2/v1tf7t9dNe3H71h5cDKtUtONzPmsD+TyWS6ic5I3eUGpmZYAqSIovb9x0764I+f99DWK+Lqb6ExfNdXX77+7hv47Ft2Dz046WjG2LBWj1hXCKHzymlTYQCCIwAFWZIiVDgMbpBIVlrQgBAkeCVbb1G4GyMqzb3U8bOZO42pPH/6Hx2UtGVbse6xKX9OEUZSvnOy97HtC2SjNrQLVqcgRCJ02zolyR1ye+hhf//7wne+2cCCzWgMc2LoJ4/hXz7St3bJ1p8ZUHQEGBBbNvzRGcyTyCcH/ZnMvKTr4v5qWjf7ny/801ed/crPPfCFN1/25nOXPG3L+Nb+2qD1F20ZqB3RZOr7UXbOFq0GJkf+vB12E4RHJSe7qlG82i8Rshoqk8nMLdP8GCqDtiixBA2+AUv+dddLr996ueqjaAwjTE6Ma8cdV73gnPdceO2nBgf6rzvzulWDqygYCWPKuKuK5gWAATsnuOlxTtzF+iqdeLI1iujmTLuL9rxOrl6jM8+CYEQMBdIWxBBPrm84o7EeE61Jkntp3bUvSAHq6UF/X+oGUHn7uHsA6iev6b/yxThxwF/ycp57LgEiwLqxPRVJlx5+GLd8D0aj6lJwL0zhyQ3x5m/o5VejJ0BM9bvJTKnITtqZzHyn6+L+5Nns7icvPLkn9D6w7cFLVz29r9a7eWyLJHcv5UcYyEqxsmKLpUKB1Axx1qZlSWk1EdNp95E+U6tDiuQSxpGK42KJUHMvW50So8mmVsoc+mcymTmBpLwEgB/ervWP8+rn+OJFBIKigesmV/9o/BSAFs29oEWXJkZq40+ctmTi8nNO09pFa6cy8O0GumCy/PGI734X7/oT3/pVnB39B3+Hsy4o/rC3//wazU0wa8XwXmr5Il73Ctz6fX7j644xogc0Xtn/418Y+uQC7oyiVVPzId/j4sW8+BKsWIVNGxUKOWWBDq06u3HeT68iLsaVz2Ldqqm/+4J+AFJslmF4GBNNl+gO0NJKMVli1y6MDltPaFstHevhZjKZo0TX7dyrZDUBVzOON70pxXbS+qA9H/YHW6CoVX+ZzUmt3cGQezYjO7x7ScYSDtTrrPWQZK2uWq1WaxRFnWQ91AqroVUYl4P+TCYzu+wxk9HFsXEM71YskxzTLADWVN+kejp+zwi6tHu83DkyWaJ09/aEPzVztbYCt96mP/5vuv5LVCkTJnfii99e8cc3PfthnO5xzBXcnQItBjNKV12Bd/+Z/4e32vmXxnPP13/4dX/329Zds/o+L8VQI/zwJuFguPpZ/PV/r4WL4JOm3YyjuPAC/vs36eyTpN2TKCfajeePfM2aHaxWaPESDPQaIKPoMY21VtfSZRxaBpVi9wUJmUzmSOi6fD/JKDd0BuPW+dPDyM3sgUni+IR+cIsuv9Rqvclo4sivC7TqwGac6+7jmPcwnzQdGhC87z584hO6/iu6/np77gtuf9F5n3zyG1979Gs3r7v5eadf+7rzX7+osRC5r0omk5ltWhPM1PwX0ixelcMSKB2G5rL6ptXjmwFDhx2zma1apZNWKzlgYnpOJDXlgnx8HN/9Hm7+TuezchI9d5YX3Th++em1+0gxmAh5qPxDDRdfwPP+J7/xUHhiJ994uet6+GdqBkqlYKQf8r2SgFaswG+8hRdeoH+90R8ZxTVvwCtfpEsvDfEHkNFIh0w8movLUSVlhc48Ey96Ie6/n05v56hOOdle9HKECZfTjsaKm8lkuoeui/sBBJoEUaRSC/fpVspHPIe6QCA6vvglO/dcLawffZO19iqoViNJN7VUqp0tIQ/jdig4SjLoR/fw/X+rXbs0Oa71T9668rl/t/6Do82JH8RbNo1ueuHpL1ncs6hbU02ZTOY4hKiqPtviECJQVKWtLE4LP7m254ZvD5+7HktQAkGAXXhhfMVP2eLljF5NidPmfMBFgLt2YeMGNSdnPulI7HkyLm9af40lBaS+L62fxpJNV6OungYmxw3jVmM6UggEJatcfg7yBlviSYkLFsZXXKdVl+CuzXr1uRqshaho556P09eqp0FS3ZpzIckCVDxxTXjzb2DXsD70b4hNMvoFT8M7fsefcwH4TVpyIs1kMscR3Rj3A2iljYwMR33eTMpR0dFoVMVNRzHsnz7YavAKsJk6n8O9LxeZNKwEsWIJjNAQFgwEsxUDy3aM7RAH+xuDraU363wymcycYS3vl1ammBCU7PsRavVy/DWn/aB43t1/9cg1942UaOCSZ8e3/id7zvPjTetp2LMno7ecQNXT8IEBS2mTzqcsLPZhd4Em1O+d5wgAgFCoFhklB0IRaZUNj6ztxqO9NQY+0H0aoqxsKtIATDbpwc2I/j7093W5OKaVDzJSZ5/pf/de/PJb9NHbJ89Z7m+4Cv3LwIerFRj7PK7OZDLzku6M+711VgyHDikvvn8fm87viLDK6nk25jQHLCWFAPCJ9ViyTD2NPYdx6KRu9wEUCJWCSyrpAtCMMcIlCLH1/LmuN5PJzDrtbiok4RC9bZlGEjAR9EhooLf8xdeXL73K/u2HgRbfcAV7BnznmEmxPRtXBj5Aij2Ti87QAl50EU4/nffcGQNigNdQks01xeNP77mbGHNfGJLfvFIdVCU7IhXIwGoyJFyKdAjxMO40pfzT1FqE6rKFIQRKhJRMjNLDun/ulWi9PPf8gV868ewFjYUDCxRLGAmCrlaiLJPJHCd0Z1bCUDV8Qduf/1D1Kuxg7w+YXf1LdT7KWALAP/wTNv4EitQeqapDR5Tk7etIspRfA2jTTDzReh0O4eL74MiGnMlkjnPMp2YPF+VMeZWOOcRLCoBARRsa0qmncMUar/WhLNNKZKyS9d6u6235+lTz2NXPwlt+efKUE8pJ9OxC704OPG3Jxl9f88VLi9uhXmMkamCaaKtsfhoeVR1EUHCADOkAAoe1FqTxtPY5mjJvSNaexj3VSl1Fp51FupcFjcWXrLzi9IVnQlaoBvqe/ZIzmcxxQHfm+wG067uAwwr6xyZGJ3wCQF+trxbq+3t0R/MvwafbFzic02qMD5Gp9FUlLqpK1KYe0E4IdR6m7uNgtT08khEKLf1oGl86ut5zpj6knNO+HjkvEleZTOZYITpgU0luOk2sUbUOO/9kM6Cqoiq6IRZBQeaWJCVVle3MhFT73HJwCL/wgifPuf0rD3z8jh6Mv2zgrvOu7Ltk6EH7ypisTsoRDaBSo9zO4TXTX9zdyhJlky6fnDAp+fcfFVs3STZf5smWffXUIbk705aJbpoyUc1kMscT3Rv3szKiCQcT9KeVxt0BkPzO+u++8xt/sHlkk9C8cMXFf/qC9yzvW1pddv9z2TR7fQdstk9EpsaTgv9qydzHg9ujIYMqEVHb6vooIi9B4rYfYscuXn4Z+nphR7v0OZPJHEekuTr5bVrwbSPasE7xTgyeydUXqA6XvF0U6yoBgG5Wxfpxv+egndKanqJ59cAPrh78pELD+usYvETFIlldhFmdNLmnKXR6FieQtBB8aFALFuDxxxjMFi7U4ADVmkUPLdL1dl1Aexqfj8mRGYOnAMo5s0wik8kcH3Rp3C/JzCRNlmNmduBMzPTZ9ie71t+/+d7dE7sdCqrtGNvWjvv384zqbAlJHhMR1H7S7e0HxNgkaVagPVQdshXdAYiuWs02b9XGJ3DxRfJGjvszmcx+cHfApNgsecM38Md/bH6TnSjc8gG8+N/ZfzqPJ5vJk6tPJbBBx8xmB0rvpMLgpNKJ3mNoQBbVg7KH5Qi3bUFRIEaMjycBPzx2XNNIOCGaPfOZ/Md/wte/polxvO7n0NfnEI2HXr1qDndEOJtxskzay+PlXLR1CH60V5ZMJnOs6dK4P8Xfg/Wha055fkhntvujSusY6MnrmaG/PpB+1lvrqXwz6dy3X+cMHbwkKIKh8wFHckeHQXsdSu7XaTFzeQi1GQ846u0Uq4o6I4oaknroqF4/k8kcZ6TSW9K+cxP/6F1+8024Eg749i360Adlp4V3KCwt5M0OIwVvi+8PfH2lRDRFMsAJOkCUXDCICy/m+CR/8gSedo6ecSXrdRlTqqJtCiTBBLhkxLIlOPlU7tiGBQtT+e/hTe8kTWHV4Cry0r5aD+Znvn9PpLbBUSUrPabDyWQyR5PujfsBLOpb9MK1L0jqnf1SlYKJRKsUyVXGGEOHo4Lt16R/eHzXnZvuvHjVpT2hUe0BmF4cP1bVz+251pAOokWjibf+5NalvQtXLzix/ebNxrzMZKeUBnCgjVcmk3kqIyXPfI6M6Mab4ve/n9L6lVBy13bcctfg7QuXvaAvxPFmiKDkMBhVCodsGWMkRScLuDC0AD/3Wlx+OW6/zV/2Mlu2Aj6J6FRs2+dLCqS3n8WFchKxFCKjEIrD8z1LK8UJC044YegEpGVnvpvfJHmtmYygE54qJXLkn8kcN3Rp3N9px4mDnY4tpW3av2Jm7Xk/qYb288u7myNfevALZy97Ws1Cwbo2bNCtP+A116inQeMsJTym1DuCtwZvtpeatrR7uXfTvX/+3b+4Yd03lvct/7OX/9XFIA/5bPpgOVZKp0wmM+8g6Q5JW7biiScYy1Qsq5ZqXzuxeGO5TLvLMDqKADZ6Akp4TIWkVPXfPlH7f86WrDGJ8imh6fKSgDWbik3SWG+gr0+0qo8Y01GwDHST+nvtqqsUIxgUDj9v0p7AHdEUKpOFeQ3TiXnAqhP4iuvQ0xBx9PtaZjKZY0eXxv0zKo2OxEey1VtR+8/ck2yEflR5bnF4F++8U898Fuv1WYp+O2+q6ufesT/pXD+8lQ5bP/z4Deu+tmlk2092b3x89/rzVPYcsSvofobXsQznDUAmk9kfyV2svx8Lhkg63ZWs0EwE6mvX9P/Kb6NxDoaH8apXYfVKMMAYYzXPiPZLy2cAACAASURBVP8/e28eJ9lZnfc/z3lvVe+z76MZCWkkhHYJEBICoYUdDCReWW2DscE4/LwQx/gHdnASO3YIduJgJ3gLAcfGZjEIbMxiLJAQGCQhJLSA9pFGI82+dE931b3nyR/vrerqnn3v7jnfz0ej6uq7vFVdde95z/uc50x1VZh+9Gz/CdHyZhRorC9/BjBJIgtmGeSF5+P8C6xBnyLhoUNQYWaYNw9HkTSRRIqsL4wJxUlcGT7mkERfH/r6EB27gmDOUfdB7M2vH4Ku5kTQjTmPLOin6mvwpEcB0j6rlPLxDQVUAZAoQjSlAphUoB5bJmcjqjg+oQ0bObGHVWufZWHWSSORaV5z0VAxOMRBIvlxvCQ7gKnWRkEQBAfAASxdosueqTVrRVNBT6waEqCzLui74JVrdO651ZnruO4sDQ5VEGDpMAPLbjIi1zx1/JE7rVpS/QyKBpoFmKbVp3a0/oKLPtlYYJ/nOsClv7sc2nN7miNBP5DfodwRUjMnJAiC4JhQX6ryd7ssS8ycIp69wn0yL+rWlbsHLgUTp1zLu/2ychq749ZsAEAH4CjVbbzSG+sfZjffnj2959/pTHZ1YfJNT/Kv/kpbdyk1sa95TtcdTw6HZG2kUpLJHAag7PHzOUY9tubQPSwIguNM1vfnB9de5+94m5Yvw4QaOzWynYPPvcLf9pMTZ53eYrudWMldZQW4vNbc96ji93HlqbMkhHKg7+paGOeovTdvle8LlXzystkZW/cUJGF1d60DCBoP5dI/U26Xxw52+4513p+9padBEMxeCnSk8EVRzKiv97TraZ6ZtL0qvV3JpaoycV9tqg5KHd+PjWrPGMcnMH8EUw0lukH5EVRp9WxvktQzb8jN2wEHUvf+pA9/2D77WT30A95yC37qp3TtdRwYAHIpVa1xqnX/YHOgpYrlziWtUn3NpjX2AC5UvTmzbMVzUFO8IAiCY0XnOiyASxbjZ9+uS5Y8/th/vbF44O5/vfI7V77q0nOueYmjUW9JyoDKLAEVgDp0L+WNetFV6PEry9e0bgGAmk0B3LULLoyMwAprTu/MaLSO11k9Q3D3yr13cTsIguAUpADw5S9/+b3vfe/OnTv7+vruv//+17/+9TMthyFppDmysH/R5oltI82hpQOLARxhXxFVYNJ/+wP81V9j40Z9/vP8mZ/RT//UVDl7zZFMKurbTGVIIMylTk1UZw5hklC2kRoYH+MXv4Cv/BMk3HUvLjifV16FwT5J3VIqklJFmtD+7lfOfuIP/3rzos9q88r3fu2ZdvHN17g3Zc7KOp3tM97bBSwIguA4454vQYRjaIgvfMajOu0f9dhttnCVBoZVvCJbQna3T72OZajMbKQ50pN6miKXZ72UKgBYsYL/7lfxzGfrzu/oOVfwec9Hfx9UqfLuNZzKC7n5nEZyqDk0f2B+XA+DIDjFKQBceeWVH//4x1ut1vz589/4xjeOjo7OwIzIqnmr/utL3/+pez/5b6/81fn9C1JqmB+u+xvQbQN8/w/w0MOOCps24b7vs2z1rvQeqLzsoMev1woK5HtVj0xIHZt9kmg0AcClgUEsXsiJEgMDyFkrGQHBoQTWmSoz+9Snit9795qNjzVxyQhGl93+9b633XTRh1Y/+2p8sYDV04mpI4mbXBAEJ4aOJ4HMUAlVaaqQyMr76U3KlfLVsBYldhv0ZuP/kebIi856YW+qoufi5crinPxUs+krV/DC89gwPOc5WrGULi1YwKed2fGfQW3dXKPCGs9efXnndHFVDILg1KUAMDg4ODg4mKPG4eHhGZgkzkKXRQOLlw+tWDi4qKCZd5T3hztFYRKB1ODwMNttWuGFYerSwaE0kdkvWRv04ANcugzDI6gcxWTmPr8QTUzw4Ud0xum1CV0puMNdlXPy3HVBmkTAxsbwJx/Cps0kXCzRaBvxqK/9v7tec+HATUuw2+vOZflMdefIo3gZQRAEh0e+vjkq0sh60dLgoETU179Ou5XOTlmdb5MlT53ncy4j6+/Z6+msii5WrlaJVkkkUTxrnc48C3uF9TPtXhYEQXByqSux3L3dbncr92dUyNi15O8VaNbVWoc/RRGqfAdCx62gvle5S5WmcgSjVdUGwI99TA89hLKN7o1HPeYPO3fgLz/K0VG49xb+Tn0tnccuM3vwIW58ku0WhSmzlIfaq3e0VqSqYlUCqPLxZaHvD4LgpGCoXXTIulcusinZFG+0+npodY2W73Xtnd4pttfTORcJgJ6N+WmarJiaeul2qHN5n3xwAt6EIAiCmUnt388eZlR1b6abCuqCI03kEAnKtg/J2AbpEoD+1Gepj7SUGgZmY7gjuD9IMhJFg8lgYk5Zoc7BoxaeJqWid/RutE4bmg4VQKA2qx7sdzOQysfp1jYUE6OFdoi70Veg0ey8JzyeFp9BEAR7M1WRPynXSc56HtCzJU291/B9ODQI0/WWndAfMoJg3bWXEJmf2WswrOcIUxrCBEEQnLLUfj69T83MdMhBr9eHOmx2KsTgYJLaxuLJ9o7vbLnv0W0P37flvnPmn7VoaDEkl3gEfj5kDt/dS5tqD5cnEuJer6X+0bv7AiBrdVBKdMeZZ/H8Z+Cee1i1UtvEgmYQqme9/ZkLmi+rzjub171IW76kDUJuJnNkRc9BEARHgAD2XnPonWuQkDPxnNRkMkGepYlVbeiTySsCdVEUp3XC2nsesO+rXBYI1VfZ7h4zUL8aBEFw4pn07z+54zgoBx1h95p+kFA9LxMLAPKaryf++6/+1hs/8aaP3f23L/7I9X9+x1+MlqOqG1c59jHlcOy/pcvkMCx1xyOCnc4D3TH0Dom5dVjv7nuZ+P/yu3TJZRIde+A7VLZ57TV44y8PLVy3Nl10sa1cXq+EGCR1lxdmP3PmhQTB3GWvZH2nYVavxWf3l9ldIV9dU89exikNU6aG9YcatE8XCE0dRhAEwSlNcbIHcCwRc5veWgbaK9PveOf3bAmATmqiao1V4wONZsMbLRVjrdGqKs3MsygIvleiKC8f1/mn+vhwyETQlR04uwr7bDudO83sYyV7/68GopDFrABw8UX4339mf/1hfuoJ9u+xF52NN/+kr1kjtUq224Srk9+a2jss7fPo+8cl60xFkCW5+R3IPn0n/PZ5wIRfEARBEARBcGjMqbi/W9eFuukgTJbLFSpliamgHPN3FPAqEkgyMbk5PZEymFcH774uKBcdAMhu1OwZxj6Gt6+nco3yvqJZBxPrOQwAuePsc/Qb/6la+g0/c1F19ekYSHTKyJLe1RRNPfkRqH2MrKcaSgWLWgmWQ/+jMDg9QtzdwFwhUb/lkboLgiAIgiA4fOasCjyhMJiZ5cpaR5X94FylSMjpMgEs8/YlJhcHANAOHlzWIX+7LUmf/jTuvkftFvYnNJJB1rUPEipJDkxrIN/7uHddHEBKHG9zopUaTTQLtpytEqhT+ulYCXsmF0l2jfrj67H+MWzdinYFuNiJu3uHdZwxMxhJkZOF3cf/tEEQBEEQBHONOZHvVycXLCFHivDNE09NtMpW1Rrpn0eywcaOiZ3DjeFUNCXBzFNCOVkXlkiRqZOrp0vukgxUHQ2zY3TUayzd4f77sXixdOb0WLi7TTZIJdotkShYtJ1WkoAJrmzU7z17iR2BDUmpkqwwTzSJEpJ5QQCehNwP7Ai6mO1NFkRx0xa94+3pm/+icpx/9if6w//Bq1/Avr5ppzjeAXh3GjZajlEYKAaPxsopCIIgCILgVGZOxP0d9wfIAHdU5yw+93XnveGmR2+ePzDvqrXPWzqw5Ptbvv/er/zmmYtOv3rNC15w5rX97vBqL1+dXAlgVI7RaRK6qqFcLktOL8DNEvxGAaMhdRTxnWPmzgOQpSQ6ZUUDkI/vqRqGtEAlkax2msuCH9UlwJ2IH2Cn+s2JgnXyO4EyEakbix9Vu7EuJkga3Y3tO0Sw0dToKHdsn2YyesLIvYo///1/HGwMPHfNlfOb8zv9OCP0D4IgCIIgOAzmRNwPIBvnG3NDr/OXnveBl37gv33jA89d87xLV17aSM0PfOMD/3Df3+/R2FdXfvXilRetyBWr09r0OhzmiUpJlbPdghkaTUAOsadxTG8HmfqB6KKpqruJScxdAjprBFVVQZLbX/+Nbvw7e+6tuOlRvOLV9qKxctgr5LYylU8W1O7drF6wnsLWHof+Kf5CzqOaAEgECCMaucmA0QBLJ95XR50pE0V1jJUc+6mGCILg5DHzHeGCIAgCzKW4v9vWl0ytsp1/KuVtrxK9YY2i2be6sWC4b7iSk1Ayq3L1bueOlai2khve/wf6wpftqad409f0i7/IF1zHvj4Artw8a7LzLkn3BBJGE6pKZnXryawNgrtoEmF0pd/9HfyX92NiNxaLn3iYH79h+DcXPfPN47fMn9gBF4eGmJLqUoRpPjzesceeEn+LyCofdnQ+pmMju6fnhQevVUQnCQpMGG+Pj7XHxtp7RprzItMfBDONKd/KmAMEQRDMVGZH3F/7SEJl1aqLYtnYX/QnCfDEBskEFjSSMkpVqUqqDMxhuQOT7poyVSVJ7hnT177NO++sDPbwQ/bCl+D5zxcKqTIrgISO8kbu7mBRGvsgRx+LwrwoSKJIHOinWbuqTXBsUF/7uv7wj7BrVEsNfc6mafOu8j83f/7KXz7/8o2ftR//EZz7dM0bBlNnNrKXeagMMMol5bJfA7slBMdG59N9G+v+l5PHP8F0qzVuXn/TH3/zg4/ufuwvbvvfv/Oi33nWyssKa0QXniCYQbiECvd8H4+t58UX+7Ilh9D00NtVq1LZY6jgh241ISck5+SibVwTgiAIDsrsiPszC/vmPXPlsxqWEgvuy8q9txn7NNBxqumo87tJcasglQa6zCmTJwwMY8GCVDkbfWqkLKcnU31OZvFJPgt27bAvfluDX+Dm+6pVr8VzT9vYf9+duv07apd+9dXF5Zex6Gu7p7Z95w5OTEhkWVFQWZHwTTsb3x479/zV3x066ywuWMDs3XmAmxcpGkknLBsEwZ1T7pYHvvlJFZFmvlimax761O5Nm/dsG2+PP77rsa2jm7I7kx12X4IgCI4XrtIE7NqFJzbq3HPNChkPvPJYsDh9/tMqlZPXq8lmXweHJpK9NmYR9AdBEByU2RH359h97YLT1y44vfvk4TZx6hjjTN6LhIpAQWsMbys3miZGqsa2xsAO0FVWcGe1T1G7W0dNs/FJ/+V34u9uwJvGdTPK+/5Cv3Lx9371vrfOH9+Kj/2NXfGs29/z8U/+y6oLPoW7HtS3ntLEOE3sanWcBml8e+VNJVCls9Ht1rWf25gksZQDXqEyGGD0Sj16f0n0OoXWdQ6l4JCZTW2QOaPJIy9oMPUVfX2pz6yQFEF/EMwoalsCIxr5MgseMIg3sFn0Xbzyou7uwGFc0LPLgCTrOp9FT78gCIJDYHbE/ajDXYeTVDayObLsTncvg1zJrNyyu73+hrdv+WYbZ97Y+sG1D+xqVuP/IxkdrLp5dHouAnbIYNnWk9Rvvc8+/Tkv2+ijLWbD9uB3v3Hl2af91GsH/tdg39IvP3nBO3+6/75N+CXnn96pHYB60lOEQ2r02UWX+MA2AfBEO+DrSikBePm6V/Q1mgPFIKsSJBuFp8JI61QAAJDRbHINIIuNbLLL8KyhXq7J85hJb6UgCGYm9YIq9lqH7EVS13n50Mx56ytwx72NtALNArRcoNW7cwh+giAI9sfsiPvrGwNSfRs5FpYuFZNV42NDS973qefcvOW6cdujkXvx8NUf/b2FT5//3Z8bemC4GqtbZ5Fd5x8TwWx6g0fX65++wnYLZQVBLWUjzuHP7776Vf1/Xdrgrz3ytnvK4ZTQTy0pbFcJFwRrIbXREAzwN77ZL3ym9X2FWbLfcavZt841vw+r56/MP4oNgP4TP2F9TW+mKvuPdnB3AHAp34hzY+BZej+UkUz12Odss7kgmEvY/nU+7PThO/SD5e7mEMBEQOefh7PPQX8fRNiUWoJZepELgiA4AczlEOog1nIVibGvtK/6m22vHFNTgxNsTADlxET1O5ve+kh1hhtQNGQp21OoY7GPOp+kJzda2UbtCVSf0iBt381ye3nrk6vXV6cRLCtIbJeQINhSe2pdWj8fO9bM2/b/v6v6j7+ulYvg3ukXVv9/338XSe6dzLcLJAguWKiBwcRin8vqH7rtQ4/tXI+pSw2zinrYk+qoE+4oGgTBgTkiH0/vfXAoR+hUa5Ekm30cGWKjYAJ5kFqCIAiCIDM78v3748CSlQNkfRxgKoXBb49dNK4+g1VlQyiAAtBWLbx145qzmt/oG93Bsg1AqCAIiRRgWcB6xtPQ3w8zVBVQl/y6hOVnLugbWb61dZnf20Tbci9hqJ4f/MTA379z+UeHH/3ez/3Q6IJf+00u7sfDPW19Dwh7M2S1qDUvPlRiqhP83TdHMrOt49taVUsUfJZmweopkPZ6JgiCGYKZHX7ob70PDv3ypK6av+eEdeg/Ky9xQRAEJ47ZFPfvrdo8wos8HR2f+9JRp53ouZ5WEE3Vc56r5kN+zbXpuhepr5l1Jtk5M0fQEpcs9h/7Uf7XD2DXrjwYUjbUP/Ejf3jZ4H2vumDVyxvvHNSGfHxXbbXva4v1KxobhmwLfLNXtHxkwjjFh/NQJKqdDQQkoBb0d+++JHOz207X37yxCzZbbo7ZvBVTY4KpaqYgCE4+R5Lvr1WU6MgaD9HE05mvYHtfxWbLdS0IguDkMZtSp0eTr55yW5IZUKogd182eE8fK4FmEp0U4MOLedkvvaDvZS+1X/h5XHQeGk0R3UpiwmpnILdfeRff8TYOD6kkxuEjy/Rf3o8XPbdq7MY55/BNb7ahESNSBToagl16eXr5pY/3Va1KhSNZIiBXSfWO0HEkyfmqnpd0ynnzzKH3ONnGdBbdHNXpXjzFhWkWvYAgOMXpue46MeWOQ6CW5+QnD/FmdBhen0EQBME0ZlPcf5jUWeHcxgsySfKOARwBujD4oubXXjH85T7u8VFHizlU/uVf4Znr2la2Wbkm2pCmpdLrllJJg8P6T79tX/8efuan7fd/177zLbz156x/gBSdeO+v4V3/6v7VA5sGC83ntuvP+P6H/uOms9dVSQZWxjouNxfbrRzgUlm3cwR/l9rjSJ018L19S2ep0CcIgjmACShLluXJHkgQBMGpy2zS+RwmVqHW4pdtc3daRUNVWuWgkNxV9A+PPfH7P/y1NQuuveFmPbZcp1/ib/xxvuXNGtwIwERa1uwDmNoXLD+Qw+AXrilwmeNyYAVUCU1DoiofaOo3rvjMW7/y8XKifH37c2vPX15c8D/9rw2oCkuqzeyEkRFccjEHB5CO3J+0Ho+6yp8pRcC17SgBodPqZg5P+YIgmBn0XMxk5GmnYWIxSXQvqidnWEEQBKcoczjuRwIlVSX7mtVAX8LEYIlmc/5Oa7jcaIBXUlowD7/1Hv7UePrgN/XrL+aSQTiAJ+qUuRumqWUydcrfqIpCxRJs5d9YR05PACj7VvZtovYotZ0rvCRQmszzkoMgVVq6lC99Obq3QOUKhMOLyzvql+zdidzGiyRRN+qSRIhMeU3jSN7QIAiCw6eTL0k477xZpTQMgiCYa8zluF+eSKVC//iF8pPvf8No/5OjD1/56NMGNl/cv7xwCJat+WVlqeERX7wQgMYnrK85abAjY7fZ1WQd2hTNjJs1QaHOo7sEeiUXAPX1cfsu7RlXa8IANAukQlu3cHwCjVTXp3kFQJ02uuSR6HymFAUnz03s95TjE+We3a0x1VIlHkn5XRAEwVHQ8R2jUNKT6LRouR0EQXASmMtxf4Wq2cDff5a/8At6fMNaXbEWj151z12r39PPD1pabUBplWD0oiBKKysCLIq22NcN6q0n2N9fnirb+efHJAVh0RLr7weJ17wa55/HP/kQr7kel1+uhQv56+/By16BL31R73gH5o0QCZgsGj5KF2oRkkqh3wY+d89nb3jgHx7cct/f3PPxV657xS8995eWDS5DqPyDIDjh5AsjkWCTbRCDIAiCE8xcjvsbiVu38z/9Bz3xBCWRLQ3s4i7/7CcbL1m66KeHUx+qbvJepmQwI2V1ie1UY82DIAKQpEaDgH7mZ7KensuWY9ly3Hijv/h6W7GagNau4elr8ZpXsxYLkb3th486JidZwCQ9uOPB72+6Z6w9vnXPjrs23d1qjWMwgv4gCE4ycRUKgiA4WczlvAsL3H6bP7Ye7oBMAMvCkFDhX3Y8fVSL4E4p94rsiuDrfY8o704wm8wxGUwkUbblpdqVjU/AS9Sa/pq6+Vb9+GiRlGhdM5+U0nDfSLPZHGoODjSaTB0jfxztqkIQBEEQBEEw65jL+X6DV9WkA4+6Qn3SYYSZWba7FyBVeUvVG2d36cOMkAlJmDTTFAUidQ+yl/f8wZtzHQrZricxbd2zdcfY9j0+vqccTywkmVC5ywF4Z6rBMNEIgiAIgiA41ZjLcb8qu/hSLF1mT26uBAegVJlJjkv77hkY3+BlyT17VFbTVj2kOt9/BGnxKWY+gCfCkNVDXSOL47TMff1ZL/zzkeV/+Z2PnLv0vBeeef2Nj3w1n8vMjKiNhqRer89YcA+CIAiCIDhFmMs6nz2lL1+CX/m3vmCh5ETp2JO8wtUvx2te2z8wfwRwLFqU1qxRqs0lrNuY6+jj4VwkcKSSocMih++rRla95KyXXLbqWT/8jB991qpnNyyBnhVE9cvxHOuL3Lc5aRAEQRAEQTBXmcv5/kRrtfHa16M5gD/9Y9wxP81zv/YC/Nq7/Ywz34lHfsT+8L/zHe/QytUc6OfuMe9NgVNHK4I/sUE1yXbVSizaVTXuY6W386SOJi+FujUwW9XE1vFtSwYXF9aIuD8IgiAIguDUYS7n+xMlTxJ/7Ef4pX/SW96Mj/6l/uh/ad06GJu2fAXnL9TCRezvRycj7oQ7AOgoRPAnOJ7Op+tWBgsVZch5fSTISIKSBOPmsS0fufMjm8e2lN4OL/8gCIIgCIJTh7kc91cirSLVahVlxYWLsGhBkrOqKEleomyby90BUFZYI4E5+D8acU5vPF0f5zjPBNiLWUfDI07qlnLnHImeDYWO63iCIAiCIAiCmcbc1vnU0W0qqgSWbbYrt+SJyY1MxqVLUKScL188tPDnnv32eX3zqZzsP2aRcd3J60TRM8OgVOUZQH6N+V/TVGW/z+3ZXxAEQRAEQQDM6bg/h7adkNZoSYVRRs+/6R/UL7wdbOYK3MIaiwcWAoD3VsIeBQIIEXShVaKq1xCOQcXwfmA+Y35cR/ambm+wzvM+bQAh8g+CIAiCIDgFmMOZXjmVRTu9z5pAwbI0xpo5GQ7S3XvaaR0Lcnkwkgg+/youWASjpi4kHGu9jQGovKxYSdznifZxxoj7jyeSkD1kJ38MnVUQBEEQBCeBOZzvhyk36iowNfTHvgIvs84UiMdKlOPI1v0AXvzi/COB3BEMgniMK4DzS3jF2a9cObyysHT8FhaCQyfLrNCZXvUKroIgCIIgCE4kcznuz5By30e2+/jHXtY9I8sSqaFuBp6TgeAxJL+iC5dfEOnkmYU6jZx7n5P2bqGQnzyxgwuCIAiC4FRh7sf96pSxUpNJ/RMQXalO85IAGo36tN1fH4fzS6JQyQF0Xuj0hY7gJEBA0z9y+/wERtAfBEEQBMHxY+7H/d3YV93mterpz3WskdRJ59fCni7HO6YjCSIh9Xj5z+H6jVlCnv+xzuVr1y622xgeRiOB6WQPLgiCIAiCU4g5HBdOpror5HCfxzXiz9AOLtU4Tjqc+rDeo2U6HqcJDovu30AVXLzjO/j8P+CpJ91dVazGBEEQBEFw4pi7cX9PMjV3r2qkBjmpuT9eyDrHt32eSMdt4lE37p167DCQmQlIoksE3PKENDtKnexxBUEQBEFwCjFndT69LpaFNQC89bKfGWoOJRphJ6aRFkntlXSvf9z7F8cOSb0znAj6TzICSRkpiA6CstrWKQiCIAiC4EQxR+N+p0wdz/Q6Eb5gYGHXL2V/QZdUp8vzA5KQHU3UvN/Y7vgEfb2W/VSnN2+Pb0zkmI+EziStnkGpym0ZRDccgkZ/77ecofAJgiAIguBEMzfjfpIiWlXV9gqAQwbu3ZNr7yCYoFACyVCh3ZY0W7Ky6vgWqUfwY2owP123MgiOiJ7PAEmwQF2sG4W5QRAEQRDMGuZm3J9SouNlZ798+dDyxIIdR82DZ7sJMVHAitV61Q9hcJApYTbkyLuSojy9MTMybR7bMtravac91vZSEqTeqt/gCJDEO+/UiuVYuiw/E0soQRAEQRDMCuZm3J8dLS9Ydv4R7GtZBDRvHi+86JgP7HgyvTXBq8599Zr5a//2e3/77JWXPW/N85YMLQNqZ1FG8H9EUBCBm7/Ky6/AkmUAREdk/YMgCIIgmA3Mzbh/nz79B87LdqX/XS0QvZKlQ9l35tDb8PWM+aefMf/0H2z+/o9f8NpV81bV74YMmNZXIDhMGoOwJmrrJAOOb5V2EARBEATBMWFuxv2YourJNZQHcSydjOy7j6xgbzXnbICc7FFQetvQcJRj1VjpbcrMzFFhVr2imYYkqKIqcfLdjqA/CIIgCIKZz9yM+7uhe9fR8lDolsZ2jjL9aLOCHIy6Z6sZhxKFpJRz/IY0N+p79y7R7l3rOH7UJ5o2hsj3B7Ocg3oeBEEQBHOAuRn3d+m5e2VTn4Nu7NNXBvLdcFbdBPNaR534Nyc5Vdgzq17Mfti7SvvERCrMtSPwWutfP3sCzhwEx5EI9IMgCE4F5njc38NBgv7JzaZxwL0kURDgZWmejUJnaEemOlE9mdTrfaV7zXZmA70ZyhMWtWRrVx7F2xVF1cEMpE4TjE/oe3eydFx+OYAsZjuU3etpcM/G3WWxIAiCYOYw+6K9GUU3lW7rzsLihbBDsAo9CMQN7QAAIABJREFU0eQ/cZ3+z7diCp2yh9nKR+74yH2b761Udp+ZLUULIiBIcsjd3fN8UQ7N9j9KMEuRRJECqpIbntCGx4RK02qBDnjREAE4pk7FZ8tXMgiC4NTh1Mn3H2u6ku6iQQCvek2nS/CJUJkfPnm49W1YhE9pGWuY6gU0c9hn6EBy2/i28Xar9w2fgYPvMH05JY+ZmKK/YvefIDjhiIIqQWYGEpWTRNFpd0iKsgPmiQRjb5r/UPqlBEEQBCeWiPuPlM4dTZJEg1R3y52hATQgEZJM+V9TZxowk+PmfY4qNyaDSfTZ0DR3erREsqqQrHpw2/rS26tHVvWnATObmX+C4BRBMApwB4yNZt3pD/WX8KDyxfzryc9wvjIezwEHQRAEh0vE/UdLJ6uVzf9nYsbW3QGXCLKRmjm+NDdrzBqV194lvCSpvX41I9//feKogOKep+7e3d490pzfPzhwskcUnKJ0y35026380J/g299GSvjWN/WmN9g55wkVcKCe5fWKnKzTEbw7A4CMiNA/CIJgJjFrIr+ZSCdhPqlFmZG3ODOjjGbbR7feufGOR3Y+Otra7eZdcfnJHuDhkQdcSQ5NG/zMDDGmOyRCAAiQMrOUEily5q9aBHMRdQrNveRDD+Kmm/TA/bzvXt18Mx9/Mm+yv0r0WgLUlfJXkCcCXqFqQ076jPxCBkEQnMJEvv8oIAgHZro8w91FyP19X33f3977yad2bGyVrd+45jeXDS5DvqnP6OEDPRFGfuzu7LRklgQjpvZmnjl0W0fTJbXhAqBq7/pInwV/hmDuwR6n4qKBhfO4e6GqNoaHYRRBJXUudNN37TQ4d3cmQ1EJXgpFIhqAXHDMnoL7IAiCU4GI+48Sk/Ia+My1wsyy/vFqYrQcG7R+Mxutxkqf4MyVJk3Sm1PM/5qZmYlMLAprkHXkMgODfgAkHaIIK0AnqaJAkSCTCNWfmZlaExLMdfJ3p+vZUwpVG67sxUMBXiIV+7u4db+bO3f6P9+CB/+GAz/Arjt5xY/iCipZfKaDIAhmFhH3Hy2dO9sMDfoBGEgygQYmMyNNSGweYJdeU44TMsb9DsPAUg6pVZVtb5nZt5+47RN3f/ymR2/+h3s/d/1Z17/+wteuHFmtmZrvB2AOUdi9i3/1N/jcZ7h1GwC87GU2Mh90p1Mwm7mfn2Auk11lia61FJnAKj8WQdv3PaKbL5C4ZSv+/E/xB79vqzbZadJNN1VrvohfvS79cImGZIyWFUEQBDOFiPtPIWqf+ENYdu815TjJoT8xv39+f2OoPb51sBia35h311Pf+8Q9n9g6tqldabS9++VnvWzl0GnomCnNQOop1NZt+Nzf6Ws3c2w3br8KV1/tIyMATJYXZGbmpCUI9gk7hj0kbrwRf/ZnemoTTrdynjBC3nkn/vdj/WcODj67n5U4bVIbn/YgCIKTRcT9pxDZBWcWrb2TdPdr1r7gnc95R6tqveisFz9twRn3bLl38cDiqqoAjPTNc0L0WRBGqMTwPC5eLK+YCgDqGfOsqLIIgl4kStq6DXd+l+sfl4SqYgmUgEMPbVtw98Tpzxr4Fr0UpxRBzYJvaxAEwRwl4v45zhHcYmeI6zbrsomqsMaCgYWDaXDZ4NJkDdSVypJUdZp2zeQMopjD+kJwVp2KZEz2Hcg+5zN09EGwf0i2WxrfAzlVV9rUgqHSmuMYEFJilWvbT+pIgyAIAmAmq9KDY8LeZhoHvv2yw/Eb0iGSVUmGBKe7l96efLZD3pKc0vh2pjFZNOmTPxC1pU+escyENzwIDoWe710F+IIFWHWa9/XJJMANnq8xC7htVeMJs1bbjfJp+wZBEAQnhYj7Ty0OGmB6J4NOFwVJ2XryxDPZnMsmI2OShAFWBxD0+skZHE50V09Idn9Q56s3wwcfBNPouYQYgGbTn3cVr7nGBAJW0QQOLeDznjX6nNM3aWLCOpXBVCh8giAITjKh85njsOPTV7fkPFi+jYIgumSsvT7SybxX1wIY16QshjKDWe4PaiZU8pkbUmi6gMcBSnnqIgnw3IAsNz+aoa8iCHoRwPyNI+CXXqrfeOeOvi17nvz6+ADLZY3t//oljV966e4VH3M9kLrz2lrwFqUsQRAEJ4+I++c47ap0d4cOWwlDqjCrpGQnX/FvtYi/boNlpEhkx0H1BP0zr4tCj8+QxGzdYyap6vRLpjrGKBH0BzOfbjWKBOWEAv2yp2368EV/vOX7Xx7HyMg8X3bpq3H65V7WEh+b8U3NgyAIThEi7p/jXHvmdYuGFuVcsjynzllBWcAjojfNXBeYCiga3LGLTz4lL1k0O9V6Ltqk84wf/lziiMgNQb0j6QGwfffWreM7JtpjT1t4emebWhJ0AsZzZNRvshOknA0aUlEUBdu5E1m9DcLtJJjZdD+f9TUjf/tK9mt8dfEUbTPSsJys6uvE5PahZwuCIDjZRNw/Z8m32+euuTJHkxUkAjJD3SZWdFiCAHh2lyFJlwgsX6r3vY833MCtW3XttbzyCjWbmGY3eUKC/pSSpOevfb5ZMdgYlPS8NVf91vW/9Zn7PrN2/mnXnHHt2vmnAejIZ/ahkznm4hnW71jvObpNjCD0nq5ef1DuXsRKJsDItKm142P/8qnP3vuZ0fbuLy/70s9e9rMXrLgoTbU7DIJZAUkjZAkqHAkyGlEUtIKju7hzF1KhopE3DjFbEATBSSTi/jlLHe6rBEAmk6VGC8W4irLZaMPkICun1WWydcqfoKC+Jl/yEjSaePIpvPTFmj8iI3VysukkV81bhbw8AaxbfPa6xWfvnNjxwjOuP2fpufUCxf7T5EcTZChLc1jlMlwCJEVw2sICJx8QzEMliZ7iXQDIBwPEtGnPpr+779PfeOzrAO7d8oMr1l55ztJzBhtDRzzUIDgpWNb85JJ75uJesSpxwQV6y0/jgvNx3XV49rNhzI2BI+gPgiA4iUTcP5eRlFg4RAFFu7Vl9eidL6ha9z/lz9x1Yd/yASQaap1PnbImCYItF1toj7M9wbKtysnGSblhT5oGirmUsPQKrko+Vo2X3k4sQO5q7Roo+lNq2D7kw0cu+s/vBpDqbL5KeqLLUWV7oam2qN0TTemN1iujqtcK6F5hXt/I0oFFIvuLvsSEIJi9TBPxuNBs2GlrAOKq52n+fNZBf1T1BkEQnExmrh46OEpI1rJxp5n94+ftG7/zGxs+/HvVXT92w+++7i1vGLn1dmu1VSk3wSLgUK6drUQwNciEZEhF9prstcw/ka+iLnjNBQaCOVJKXfvLXJ/wf+/4y4e3PQyXo9prnIf9Ic8HyHW3vvEp37y5Klve6R2AHOSoAqqpe1nP7pLkjqqq1wqmyRtIlvSyU9t7+G9MEMwkxL2/aKoc7bbarW5XutogID7vQRAEJ4mI++cykqqSTH7P3f4f3zv4g3ubak4gjTNVN99kv/bv/PEnyEmjScsJdTJlNQsAuJDrgOtfnehcXW+EQCYSSp11CWNSXZbQUhtGMzOkbnL9CM9Y7yiUFQW76Z/t1m/arlG4aAWSOU2pINK0rw85ZWqUS41TSslckkPIXRGckEmiT29AFgSzmMmedAmAei4XgtxQN6vQXta2QRAEwYkidD5zGUk0wPmFL/KRxyp4ruh1VTDzr97IO+/AyhXWbE7fC6kAiMsvV7vF+cPJCu8Vq5zA6H8/Z2KurHVzOna1du1ojW4a3bxqePVQMaBOh6+jPDObGBN2bLI9T3HFBRxaaNWNN9pHP2o33+zPepbe/W4+/Vygp5DXlSdO7iBlhvXrsWGDVq6wlStVUABotXs/pyLfR7o0CGYLVLb2mU7W+6Nu2gWEXVUQBMFJJeL+uUzOuFWlbXpSXlE0tPuwazWqpjxZSg8/iolxb0yV7k/+sGBB90nruOWc6Nv2XnpgKv9nWS7/8Xs+/kff+uAD2x78i1v/5w89/dXveu4vrx5ZC0B0w5GL5kl89jP43Q/wzNs0WuqhP/Kfexd+dOcP5t30Nbv/QXPh8cdw9jpYQ6yIhOzTI5SVkmH9ev3+H/ATn9T2bdYo9EOv5q/+GJ4OIbcfmP56QBPgWQMdBLMOcd9TdLIj6hfA+tscGv8gCIKTRcT9cxlJcKZCy5cjFZYSfM8S3PVGAEwQuXo1+vppNnWXaQcBgJMj8gEOEiA4uHH3xg27npgoy93Vrke3PzrWnhCdMspAh/ZV6Lt/cpcDmj57g979Ht51ly8TdoL3f4/veS943sCP9Y0MzxvGwBCN2XOf+RR0iVVJS9y8Bb/1H/Sxj/nu3aQqER/+Cxt/aOg3x/h0cyLLffLOyIKquh9ZREPB3KLb8i9PDGpH/5M5oiAIglOakBbMcXKAed31XL4CldQomAyNgl7hiuf6pZegr09S1p7UjbH2ycl+HdOparmRJ2KgMdBXFIONoSI1RHYl/nsH/doXUzcgiN178PFP8P4f1BFLAyS46TF99qtLHt29wCGpyq6mmizttdwWDfCvftVv+TpHR0FQna/YDf88cvvDK9reJxKyuii528N05r3DQRAEQRDMMSLun8uQTIXccd751X/+bZx/HiVUjnapK57D3/0dnrYaOVoVMbs+DCkXGxhFq5PlkiT2hvJ7xdJTNfVTFjG6ByG1YT02bvSq7QAIOsscoW9oL9uyech2T7BqqVHAcnVv5+CmVMDF9Y/a6G6QHMLOZ+Gby7QJ9HE072uv3a7hHmfSaWNDtx1YVPoGQRAEQXDMCZ3P3McMQHrZy3TJhfzqzXh0Pc48E1c9R8tWwqwTg87CfLOkzvDrQLlWEVCApk9jBBDuDuP3N927fteGy1ZeuqA53wxkbQrUORT7B1A0ABNcAKAiu4g2zz+n7+d+g3evwRXPwUUX7jUeAjCqr1lPRoax+9n49h6MbNZSwIc43mAnsifEKUXSEoCUdVWTvoehhw6CIAiC4BgRcf9cpnbNA3Iie+Vp+omf6Ips4Q4pR8lwd7PZlO/H1LlK7lWguv44+/lM2xrIjcxgW/ZseWT7w+cveYY3h6mid0szSDhtjV9wkd9yi+3YjkJeeEmUFC6+amDVKy8ri9vs/IvS/AXdyofcsYtU1YYVuPhSLl/GRx52o4OJqgSctnD8snn3L9SOeji9PYY7kwF21dCdPxE7fYKDIAiCIAiOklkW6gWHS9d80wxwVo5OPyllr8nMrAv6ezGr5fJIlstsu696mlyGdXPiVFgilVjsc6EjQW99C1/yQvX1c8z7d2Kk7X3XPr964+uqVStkXppKdhYYpHptgaQVAvzZz8RbfrJ95pnYpaGd6m+juXgRfvFNWy95xpgs+ZSqAACTBj+S4Mpm/93DBkEQBEEQHBMi3z/36brLM9FqYYlIz1aY6FGVzCbqplcVyS1jW7aNb59oj5etCYAOMeff9xXT5xmCCKDokdn0vBsUZGc+je9/v65cvd4+ctuuHeUrl97+yrc9/5zLLrBmwZQIOcR6QpXb8dbHl1g08OY3lGd87+9v/tuHV4w9dHa58Zn/6pzn/8jaeX9MeCWASFlcNJ1UZ/eJniS/CzYL/0DByWZ/VSKzUdQXBEEQHBMi7p/7qHbRBjq3fJJA2rsD1wnuyXU0/PB5PzbSHCys7xVnv3LV8OpP3v2pC1ec//y1V68eOQ0ATBTB/b6iLG7C5EuuE/b5ty5XqRWr7N9cf2v7ix8vuBlL5nP+GUoX0uESaAY6J6dMnPy/S2LTXrT4xhcu+kzZbKXWqC1+nRevk9idjUgVQFDK1QUuSfz2bSjM151lg8Oik0kAI+gPjojZ8l0OgiAIThgR98999nfz3zssmBWBQs6vrxxZnn88Y/7pT1twxobdj7903UvXLVyHOs3JnCPf+xVlAT2F6bF+x/Wzbk+WKherUStKinTNY9VngIykprlwdutuSXpFFDShbI8QfeSoUr+Xg3CSghM+OSSBJgcAuQl66AE2mrZ2rQYrIGHyb+eh+QkOhWkl4JK+s/E72/dsv3jVRYv6F8/GMp4gCILgGBL3gGBW0mvA7+5Vh26C/4BWmLmrgaOnVZZNZu4JQDAzY3LQKSW0jZNW/fUYOvv2Rlq52EBJiZXJiYZ5BTpJEbJJEyL3NlTLlSA6gWRKJolInGLzGd/T4LBxd0k7xrc/OfpEq2yfqNU87lVTHwRBEMwUIp4I5g61L38t058uYeo+yC7/DjkqAzvdu7x3+zwNsH01MJtstlVbJfXu5/l5VokU6EkgaTTRzYHKKYGlCLOCPWeoh8duKXa38CAIDpWeBaK8cmWkmRUntCNEdJ8IgiCYqYTOJ5iVTAvre6PnfQv6ezQ8+ZncczcrH/JkYB/77SuAyfW8XWHP1F+aUIKJWZnDJBIk6RREyFhBhQoAVVW1UZmjqlSp6vQdg6TuNMUB6xnErBBiBTOAWsMmdSxiT8AnxyUJXglVfEyDIAhmJpHvD04J1BXuk81UFFaYFQdYH6jh9EYAHfV/j/PmtD068T3a49g9ivExju7WRBsACSZLqQFgqDEw0hyma6Kc6EuNkb7hBk2qupFTTtka9r1qEQQzjlyzbkaG1CcIgmCGEvn+YK6xv9Q9BbnW715/+xO3/2Db/StHVjWWNxYOjCQ20SsEqrL6H0ZziZ7rcHvypq0WSgeyNer0mbMsmQONPpx1Dk8/HY+tx/LlPOtMDAxqdAybt3B0DNWe1YMrPvjKP/r0PZ/aNrbthWe96OyFZzWLPmsMqK9PjYalRu8x3f0ASxlBsD96VreO/4yRVCpYJKQCBD3mqEEQBDOOiPuDOcX+ihclgdwyse1XvvCuLz/w5XbV+rPb/vx91/77N13wxpH+BrIVjwNOK5IRVds7PQDYa6cjiZdchBVLAcC49+lICgKEn30rXngdP/0Zf+H1dsFF2rWDL3gBigbbbV32TA4Nze+bt3Jk5fz+BUuHljR2jfG739SXvqiq4pZtW6+65Oax+9bv3uCoVg2vvGrt85YOLO0e/7i+gcFcohvun4iPzehOPvkkGkmDw2y1kGzfOrkgCILg5FGgY42Sf87uKCd1SEFw5OwvvjEzOFpl291H+key1UlVtUt6DuvdSzNj4q47HinHNfz0ZY0Fg5UDktW+nbIs47nyqjr7fuCRwDE8gqFhpoaqNkfm4xd/Se/8/0CCTO5wVVVVli1JePAB//Vf5x3f8aos/uELd/zKa/49v/SdzXc6dM6idR98xR9fe/o1EfEHM5dlS/Xjr0PfEB9/jBdehJe+tOpv7qs1XRAEQXAyqfP92QkxtATBXEUSCFJmtYUODCUkyZAcMivuvbv93/6kUXzuLoxObLzoea9759CLSwwmdOqFLauWVTnNYHR3A2Hsev9ncs2AYHCHl/UAUNGTgXWpAYzUc9dc2fZqft+IVY/5gnlYsoSSFix0YEHfgtPmnQZgQf8iSY4qxercHKWu567nkie+dx6BST8rSYd++s7qFjBvPl/0Yi1ehPvvx9XXaMXS5NKUFxK3lSAIgpNPAYBkURRFUQBoNBpROxjMbdTxzC9ACS2gQd7xXX/3u+zLN+qaNgvaN5/gtx7Ab1/RePVE0Q+SSO45JjKrJwDdFki2/5imrnEkJVNPLQAhkgv6F3Z29fqwVnccc1SllyTbKI/fWxGcXLq15mCnIhyA5O5MVreH6/SjOG7zAfUq2Ugeujxn8mZRtiGg3VZZstVi6XWZ7+SYs9QuN8eISUAQBMHJoQDw6KOP3nLLLRMTEyMjIw888ECz2YyUfzCHqdP3ImCSo0Ib/ld/yW/e5pWjaWyKDeLR+/F/Ny28sBg8vyFVcMJy1HJEbiXTTE46HcdKkrBEgtt2aOsWulMFKwdQAanT5qvX4z+YM0zG9Lt2AcDICAGSKSVgSnR8nP/6BlQH32ovuuOXkQIsUajnrhRKV7sNVcjNLqzTGu8YDjwIgiA4HAoAGzZsuOGGG3bt2jUwMLB+/fqc+A+COUyW4mRHzmaDT21MjzyssVG6qxQMVUUCemR02RMDq85trree/lm1DOLo8q+sVwwKgpK45gy9/g34+/lqt/Ccq3DuKmy4NYXo7pRBN3+DFF7yYgDu/sSuJ1JKy4eW59/22vIcq49ETtVPJuwlHmlEnhP7MrCzYCUjQJ55BhctwtCQd1P9iGx/EATByaQAcMUVV1xxxRX55ze84Q1jY2Mh9QnmHpyabjezneO7/vRbf3L/9vs2P9W4/fGfrKpnEX0AciyetzR1G/RabkRKgXv5+h/xkOoTrViGn3+bVi5T34Bd9Vzfeis2GACPCOkUgAKqlgoDCWnCW994/Jb+NPCys1+GHjkZjsU8sBt1d6u56jIVAbL6t4d/Fies/po4Om62Om0NTwMA64314yMdBEFw8igAuHtZlmVZppTGx8cjxRjMSXpns5ISuW18860bvnPrxtvFMfWdUzWfwbGigAqggAM8c2TjCnvMUAkGHFOfKwF1cS/coPa4IbH0KrW9vYdVWfftUqT8Tw0sddT9SGBKjZTSMfzTdw/VK7fvrh44RKbe3x328bP+TahbBVcCSZdQgQkAej/JkfIPgiA4SdTt3HNdb7PZ7M0tBcFchaQDIkb6h5cPLVo2tHLJlV9Y9LS7rMAEilH0t2Fnnu2vf9X2py0el2TJD1C8ewQIynLnHC2RSYWpyF5Dfez5Gsbi21zFuxXmQG7VLHkdjtf/n+QozzV5BBcqV+XoJPtveezrX3zwy5I8TzvErhD/sOkG9vmBkZ2u2D1zGI+gPwiC4GRR+/mgUzgY5YPBnEcSKEuEiqqCu5fy5sr7f/7NX934f8YH7rnXhCWNide+/bzrVoz3305sB3WM58OTxib560YCKU9FlAh0VRPB3KRjLMu9wnqv0FXMVIbU3eZorsz1WYzdAvO6shztXa3duyd2AaAcyCW+h//hk4EO1TagBzQFitRSEATBSWNKCW9kFoNZjOxQAiMnDGgTVqJotq1vzMumt5rVwPh5pz/x7tPeVz61EbCB4Yl0xn9W21Q5WPft4mE4mx8S+zwcJRyOsj9/bXOh8uRBYvY+syEJSdmtPxvoQyDBgl5WqCQV1gDg7qTlzQ/xz9rbhxGo6nSOIBfo1cOPGqW1Z5CELKGRkMCOleeR3QXoAPJM5kh2D4IgCE4IYd0TzEpUB/A1DgP9AIFRR3yM3IarcEvN1sZHhh/95Hs2PvlwVexMe55+95WtF+y+f0UxQaHEsJd9VrYFt1YLrRZcOrYS/2NBz0s+KS2fgiMk9+oCgDtu8//zEdx0syTe+NVvvegZH66+/S+PfL2Zmt94/JbXXfC6py85V3LgMFZiyZx7B8l2hR3jO8dbezBESBLtrrskYe0ZeRiuqkLl7h3Tqhn3IQ+CIAiOFRH3B7MSTlULJB0kWKEAuKSx9tiO1hhsT7Hhws/8w/NGv3dVtayBoSe14dIP3t1YvfDbP9F8eEhjlFsCFizigvnatJlLl2HBQqYZp77pOgJtb+38+qNfW7dw3dmLzoHx2FYjBMeWWtOPiiQefcxuuln33E2AKT20avNNA7c+vPn+Cmo2Bl5wxrXnLj5XU3ecxt7zAUk5bX/X5rv+7PY/vfHhf/7okv/zC8/5N685+1WJBSwReV4gZ11agM7qk9yEMrQ4QRAEc5KI+4O5gB+sElESafMG5j1n9eVbR7fv0IYdN/7Ujoeu8HbBoo3GhKfW1tbyv9z9ry8d+fqlxX20pPFxvuRl/Nm3ScL112nVSvBYWqwcW7xdPrHryWWDyxyVeTry0szgOKNu+wgkAUjG4WHNX2hwjcxrWnOkf3j+wHw5hhuDBU0Eu7M4kodshkNy29jWJ3Y9sXvP7id2PfH4jvUtVQNFU8kAYzIC/ejrT/3jNl4UfbBCAM0Z9rFBEARzlIj7g9lKb+az8rb7gVL+OV4fKobec/VvXHvGNV+7776vN152C4a2EHADE6sk4OFy+eOtp11iDyD79Ms1MIDhEQyP4ISI5p1IR7IfkWhgYpErQY/1uIJjRq+TZlafOQT3SpWVbUnucnft5TybSwJcsp27tX0b5s3j/AXah6R+UhREWkqpaDaaaaBRDPCJDfjaN/iFL9BVbdr0xKXr/kkP/NP9XypVjrZ2P3/nrjWWJAnHuow9CIIgmBlE3B/MVmpZAgDg1ee8atnw8gNtXMdG7vALll047GfcWixqOSgIuTRAmOKi43WdrEp4WcdCrn2FWcfuFbF29jx8jtbvJThxKHeGA1gXipvD4YYpBprTgn6xWxLgeuwx3P4tPuN8v/QSuuUgvf7ruzrVufXnQZIqpyoAduf38N//u757eyXjvffd8aOXfGDRd+9+7DZLuOfJe+ePPns1KJnt34snCIIgmNVE3B/MbnJwc9aidQfeLMdMtET3kb6FF5+x4BlP5y03lWOjRAGZUoEKWFtsWNN8ILEF9JEUQRiYQMtR2nGNreWeHEccdB1rt6Hg+ECgp9C8fswkVDnuN0xzU3YSYiJccrpAwhoCWDkSyO5l3GGGjj1QLw6rUDmBBQu0ZDkBzp9XNGzRUHPFggVyLh0Zsj3ZUrZiVPYGQRDMUSLuD2YrWefcaXskwMj95rxrt0QXSXnl5JvehHvvw+c+i/EJiOYlVgxs/clFf3dO2kgvkIyoPcil6gBu5Ecz+C7uTsrdzR1eN3Q63GMysrSzC7poBEBRqOi2Dy0ZAfOqzdYepQYbTRi8SGw02GgiNTBp5Eop98it+7E45BUkwmQCPQHW+VyRKr3VHHv0Gbvun6+iGh0/wxvZLTRXFARBEARzkIj7g9lK7V7Z6TrX89z+MRJIKanCunX6vd9LF6zTZ+7i1tIvuAxvuWzjdZ++cfi7D1Pk+ASqUgQpspbcH8N4aHpwVxAkzz5Lqc8G+n1n6p404/SEWv6/t6RHPcc79LrP4OQiJ7OOXszBuSHlvrk9+n45yQ1P4Fvf4pq1ftFFfOBB++I/+nfv4gMPAoaz16G/Lx+Q7LTMUm47YX0D6C/EZRifAAAgAElEQVSoKrE5bn0TdGH7Tjy1iY300Poz//mT19378Et3DnwN/bvu2fHyr639/GW7b19ZUO2Wx4coCIJgLhJxf3BqkaXSNEg84/TqN3+bl9/j67fbS56O09NSrfsF/d0NHB3Tsy/j5Zej2cSkiAI8hoH/tOjcCoJ2yTOzwqLuqUpHJ743GZjrD/bl495jYzrF/iWYmXinWW/t0JPDf5OXAAw0M5dISiD0/9h78zi5quve97fWPjV09dwtNZonJIEAMSNmBGa6McbxbOI4vOQTX8e+9ktiO+85g9+9N3aer3NfXgZnwAl2jIkdrpP4OWYwDsZmMPMoBiFAIAkNSC21ep6q6uy13h/7nOrqQaJV3QIN6/sHVJeq9tn71KlTv733Wr+lXrhUQlzmwSH80634xk1UKikxdu2kP/hDzJ+XNKvJBhVAjnXvHn/fv67edP8HRobO7uSlPYW1o+fPdf/5E3Tv3YOl/Hd3/co3n7ykjxTLYpDs74xu7Ty/o+W6zzbfnI3LalV1DcMwjkVM9xvHF0QEJAVQyzGpUjaH5kYFqFjXlvngh6mhGeVRuuhibW4GRyIxSzA490pu1iT1uGYESgqFKCPEYqiqqlCq+6cOuK5U6gWokpqsqsHRBVMEjRhHBkwqEq6l9PNKiEmLUizFRQHKWpYQvMWkQhCCF+QinTOHyjERIZeFxGPNhsq/CkB37aI//3/lm/84d6DpDNQt7Nx+yW27mpb9V3zoN0/OLV/8+nPy9MO/1PO0MIn4EGqETsx5uHzW9fHClbrJqncZhmEck9iijnHcQRVlzRo5Bbjs1bFm4BGXEZelHGs5hihBuK1dm5vJOYI7TAH0UlnCZ6LgrU5ERMycWLKMhWWPUXkmpAPEpABiKQs8KtZAh54kYBxW0imdMggSj7+iRMm15lra8u0RZ3JRbm7d3MZMo49JYiVWAN6Lemavql5EwpwhaSTJRQlzP7rrTvmXf4kGB4HMCGX7Xa740gv0v75DG5/xMhp37/R9+2IKaSRE4MRZaMA3dJVaAbafBsMwjGMSW+83jh+komaCLI40eN5rxGBmAOAo/Csxa8YBDlddXVkzn93F80qkD6dr81qVzuuYSYk5cpyYO04I6x/zbSQCkOd8NspGnMlwtrrK06x22ZgpY58IQdMQsrDXAwipvmvxZWvX//aPX76rLqq7btV7Cpm6yCk5FiECohzUwYNYK5afrGluiwIhqbezU1/cSHv3eQhBImhOYwKwbRte24ozmqh5rtQ3ksIRabAGZRAI9TzUHvWp92Tr/YZhGMcipvuN4wdOpX+Ina42y1ciEgIzhdX28N9xQfiznS87uTFVHxb7AfQM9XaN7BORvMsB4KnKeYUSSwR6fu/z97x2z2M7Hnu29dnu0Z7zFpzTlGuu2LzMZqeNGRM+F+nc4+JYF8xXTmLHiFxYvG/PtXcU5kVZ11xoKpfLj23QJ/5Nc48iXoVlV9H6IV/PscATOaiS6kTjTkW5rL5U9YRISE/3XnyRVGn1KnfWiD74kA6PSJjqAmjD/nMzzy7N7GSNLL7fMAzjmMR0v3FcwQAqor8CEVcCJMaXU01SJUkR/phlGT1xLhFmJu6UOWv+6PI/uP3lH2Vd3cVLL1p7wmlTHldViVjE3/HynX/35N/2jPTGiLuG9ixuWtiQaTTFf2SSROw//TSKJVx3XTDeJLCqJ4BYRSSWchS74qje/iP3P/4H73oO50D33o89/9bw2bYl/9m3tGp3skkU7HvCzAEAqYI6OnjRUmRz6stJJA+BRf2cuTpvocMQ6uvoN37dxSX8wze1Z4RQL3Pn8G8s3vAboz/N9ZdFydb7DcMwjklM9xvHHZMFcVUcfCp3QrR0UqhLQEwQ6OwtggbFP74jzCwCACfUn/CBkz4wGpcXNS04d8F5BZdPhN3E6QoB6jXOZjJz6jsyLhdLKZ9pDE3NWleN8VSuloPUSD7gpCu90MhlEEmyp6QAJHGkhSMigEXp2Q30rVv0+RdkWaSt4AHw7r66WwevWdHyzIfyd6hmiBTKk+u15XJ65ZV48CHcczdBASGvaJtDV13NZ56h9KjCY8UK/NEf0fW/7H7wFIpwHz/Pn7Z1sOHr/dIrDGd5IYZhGMckpvsNI4EVykReUC4HV5TUuJMBIDhpzhYHaCpk9MZS9oCX8khpuOxL4nIH8REKelEkFolVVeGR2pVOp8cHEa/HIQc7G5oUcCDScEmkr0zzRg4cCVZpVgkkHuTSNfqEZEMJAAkpmMEOmzfr66+TAGVhL1KGV9ZdmP98+Yyrcg+1uiGFo/HFdYlUCSq0bp3+8R/rnBa652UazciSRvqND9PHf12b2whh9V+pUK8XXqTlBegdlgvXiO5VkcgxVGpZ7CevEEXZqxcrIWcYhnFkYrrfOM6pSBwWJlbB8hPhy1JfoKSe0lgi5tvVIwXgQtInuXQB+GCoanB3qWQGT4hkSnTnAYRp9bsqnZhQOOw44cCnOuz5AEnurA6XRwZK/YVMoTHbqKQjpaGB0nBDrlAf1U9up9peSYgBBbx6kGqaa85ADADKMSkg6lEapbisaQEvEFiF4pIfKY+WRvrA3TI8HErRVUgC1UhVad259N3v4c7nsLmT37NWVi1I8kHSogFC4DhGKUZZ1MeEmJhEBQCz8iFJd4KDA+bNAxOampRAEEyVlGIYhmG8g5juN45zKqpLmCMGYe2peOdcDIkIBPYusfKkYOBIIfP4IO8Kpp+UCv7gDjSuWUwU/WEyMK7gsSgScWuKbQJjV0Q4sTv7dzzz5lNLW1ect+AcAFt739iw59nTOk47veN0TNL9SfYIgRSqyqQgQsYrIah/hUeaW+JAIkwRzZmL5hZgO5I5GwCSfGNm/qkLWuau08UL+AMfoOaWdK9AQlJ4OBYzYoGqNrViSV4bmxDHwsxpBBsDINak7AMlWeyhFUcKOsQl/3DZLFuKZUvTkTurHG0YhnGkYbrfMBBW/VW9cpQUQkpXu9+RGJjKQTnJKDjksIlgDTTpaYGyVrcmKlAGPdu5wVF0YtuJ9dmCRf4cFEEajkVEEXHlXAUbKAYJkgJq4/4JSUkt52hwhHp3iw6juZ+aIlWGAoxx0TGietY5dNnF+urLilHxoRib6gVX8eW/fna2RLriZD7zdABCICVNDF1BpKqs6h0xCKd3nFHy5ZZ8k3Mu9ESDyA81oSFheskQDwBwpCrjYpCmU6VaVZMjwxNFSTa8VY42DMM4wjDdbxzvVNRWiGwhHvtSvCN1r7RKMkrtsqlK9CtAiflPosUqK7EEkRhwm/s25zS7sHlhneRN9B8ITU0zQzXlqsAqDmExlOQATCyWrKqqxETlMn7yE/2rr6PtSed8vP02/cRy/ugw15HTxMg/WXynCEsW6+d+RyXLD90WZbuQz+v1V+EPv6Bnt5XxTEw+RlyGY6YIBB2T2CH0x4VPuaWuZXw3QkcrzyXXiadKh5lIVX0yHHhSl14/b5FkAiJCsAW1S8gwDONIxHS/cbwT1jaVpljaf2cW+wEAqmMR1gI/pX//NPEQViaFalzZxxgoDgCoi7KMDAgZZJ0jNz4vwBb+K6gqaWIBq0nlBA9orKKqRHHllRMirMY1Atx9t/63P8aGDXoNECkee1j3PLrGt5//a/U7o/IgnCNVD2VSUohg6Yn4yz+nrl/1/Xdx3dnc9m4qsGITgwiOwREgByrUoFCVcZ+gohIwBCSr/QDAyk4hYOIMIgdhcjlNApMSb59DvRLs4jEMwzgCMbM/w1APVS0L/DvdkzGIyCNNt63JPzSJ1VAwMRHABI6IyGtJVR/d/tjPX//Z/pHeKpE68SjHiW4Lq+BSRXXh5ECI4YHjUNCNmZkioijDLuKMo6wQkIb3THkUIu3cK/f8hDZsUKiSwoEi0BZdfE/f+a931dG+3a6vDwArKoE2ImDReXOxeo0smqsFryhT6tQPYiW4ZINAJx59LOujwriAMRUoiQp8rLG6CFpGz35s3443t6OvL0QDKXxt5jzHycVjGIZxdGHr/cbxDiGKKGJkIEQuFSuVSJixVNe3D0eswOXL1mc5WxflidJ0zEMhkWsEEgWJbtuFwV4sXoKGAhhK4oNOJTnO5//jMpsnkcwBmKiv32/dQu3t8byOe1+7919f/rfXu1+b3zj/A2vef9WJ14ZXTZgwEKXldAEAb+7inbuFx6xhWcGk2LvgrN1L3nfK6nP1qqtx+mkAOM0gCHUY1IM8qYeGZNzgGkrJhJAOPIrqRffQLaVgSCQhHinjsmfOO1MEqopzztYv/SHtfBNMWLlaT1mDsN5fidqxRF3DMIyjHNP9xvELM6v6cxad5f3auqjOEY/ppKpg6Vk84nSDH5gIWNy8pOqp6XZjivVmiZWJtr6uu9/UpmY0FKBlIDV1OW7F3NjUDsqA6mM7n2xw+VPnnTbJE4nVq/b08YbnZNXJA031P9963x2b7yz50jN7NtRnC+csPC9pMgTypy5JqpqY/SuEkctKJsuAB5GEpXQI2EUrl0QXn68XX4ir/xMBFBclnX+qqiNG0p8QrRV6TqCx16R5wxM/yuqLLTSBkP+bWgqBaF7DvGSYS5fTshXjXo/xofrH53ViGIZxDGG63ziuIXINmQZkkjXv2RU2E2ozYdrBD9XLxgdfjZ5MslCs4xbyCU4jpkwEIgFRyBYgqZSLIqLaoomOYsamdlARIt3Rv60p13SKnooJYfriiYmy0GwUZZDJxg25ujn5OUUZVdX6bAPDOedyUS7iTLJCPxZzn5brUixejlNOlrvqtDisjnykcNAysPJEXbVcFIrYaxJwD0CqikugasNnvMMmCVHqmHmwa0QAnjAn1JADoEoa5sDJYxFRQogROlDygGEYhnE0YrrfOK5Jo6I5tS+fTYlTMTkZd8RpzC4qC8Y1kISqQ1UACDMrJfJfVUPxJ0XiRSOpmlRV5VqqtB7NVOZFYeDsiB1FSkLIjAusYtr0Oj17B/HPVdZSR+xGil6o5L33rN7713o2v9L1ynOdz23r2QbISe0nZVw0OXqqoQ4f+hBe38w/+HeNRzMxMqUof/W7/K9+TOcPMEpQJiaK42STIZSVSN+dRvwT86RrYzpbSJhqu4lBoFBUINH3CiWXbHKJyEwuRcMwDONIw3S/cVxTieqZBefBVNFXVlWT9f4JGaKHOUy6Oi48eUah5BFWnUVZoZx4zyOdDKhqtWloKOZ62Pr4zpO4miZUZn2cyl8FhJQF5AX3/Ae+8mVsfgKXANvvwv7vNTRfOc+fXE/Z3kh5sDxy64Zb73717pF41Dm3a2DnH1z6hx2FjlRkjyunddrp/iu/uvH8rc+NPv+6wl+x+I3rP3b6qRedo3d7sAMTdHxwTtJCpd9Bv6ehPpg4qzw4VCnmq746vmvSEad4bBiGYRwDmO43jFlS4VUqKrF9DA8O0+EOQFjI7x7qfqlr07LWJQsaFiuUKQIxXAQmZQJkuDzSV+wVEUcREr+aMTujY1v04wCKVkmqnufYE7G++CL97d/JE0/RIod6oXrG82/mOv/j2sboydyan2rsRuPhhmzDnPrWUlxm5rzLee8BpFOvMLlKGhXPSwq7//e2fyw3bybiaE6HNn9ReB0oWWyvItSSU6TzE6UQn08kAvEal0VjFiJ+6w9r3FTzgvNpetW4DMMwjGMM0/2GcVhI4ub5HfiKqepAqX9T18b6bGF+/TwS1f4e2r4dnbvptNN39O788yf+4u7Nd8fef2fDrf/HRb931YorVRVSVbDsuMzhnFAvlx0B+uLz2LolPAFRKXoFqexfVtp+ulv0ZGNr+YT6E2L1CvbjzXzG1+uFKhRMJKq5WBocKbPGUk8+B1UmNykde1LWtSR7EVrIUWs78gXmaJomm9WeP9raSkQkx+VnbBiGcXxjut8wZo+kXGtat1UY5RJEqlf9g5/KYewCQZmYOeIMEanLYM8u99/+u9x5B0ZHtej7PnDhtv4dPaO9AL/Ru2X30J4y4gnx/ceJIJyQtFq9NaMEZpRLPDCspVJ4SoJVvqrkM5nL5l975pn1V5550qrWNX/7xN+UpYwqPx8AgCDkT6fanSAhWF5VSFmVHKuSBzkKM4OquUelnBwAhddymUWVCQAtW4FlKyp+O+kb3jqvV6BJ+6I6K7FthmEYxlGF6X7DmD1IKMRgE0hJm+vowgv0hLlwnIRVHGbRH6gYsyBMM4aHZHgQUYZ0lPoHUfbZKJuL8o44n6l3zoV4/9k69JTPH5mR4hN6NWHtPC7DRTJ3DuobAABKPlXh+QyvXFq3an57vWuM2FVaIwphVIGJ4TcMVigAdqHsFjSxbFVVT+QEFDrh4bMa2lQlUEubnnUOWpoITukACv8tTjAjyeJNXnwkfh6GYRjGYcZ0v2HMIqkZKBEI1NCEc84dLy0PfxdEWQFAUpMWZWLHGkEdq0t85SEqJOEBSAAw3MwPTW97jbMxxsvhgy1/H/jfOJX+FQP+defyWefQq68oFYN7PgF84QW49FKKm+KySnKSCQJxcDx54lOdLz1usjGpQHJqIhRRRHCqYV5AaGmh5ubExR/Q8bOrI3NOZRiGYRyBmO43jFlmQpB3eHCoNvyHdkQAYCX1iVAkR5xxGWYmAomSQmXMkZ6qmO3CZKDdu+XlTbxypS5aQHBvV7VjAY2T0XQQV6ID90gIlPrnRBFEaclSfPHTw35f+dGfePUMxfpL5fOf5xPWyjN7x06jU4BmPHECAGRc9vLlVxBcqPk1oQYwTOgbhmEYtWK63zBmmbffCZEAUOyUvCop+kb7tvZuebHz+azLttfPmysAMSflvA5zT1TR38dbtqCjnWS+sg83mcN9FnSq6UVtrkSauOaHmBwBojWn6T9c9K0dL907tKc7e/F5i/74My0XnvRKF1hRnY0bIvsPFOk0HZK0EKKGbGP1cEzoG4ZhGLOC6X7DONphVVUhryoEEfnG0zf9bMt9+0e6iehT53/mt+dev4icqscMJOn0EWbKZCiR+w4QfRtcQWc1XbqSmkvkAFVPBR09KbcF0ZvIt/toIIxICDppulG7RicSBikgqjxWN8xEv2EYhjFbmO43jKOdtKgqg5RiqKjUZxu8ehHxvux9GcDkaPLDBOu4WrdvjyXoBHE85aL79AV0pUhtKFgLiIdjZAAHdaokAidwIFU/1jLVPlZSQLWy3p+miRiGYRjGbGK63zCOckRj70tSKvnY+3LsSyGgh4iJlJmJCMrMYxmnlZDxJK939gi2RQKtTDLexhJgUpnbzHyNPATtEBEpgYiZwKrJFEuJtaq6cTrNmEkprAsuCn2fwdzBMAzDMN4C0/2GcRSjqlGUnVtob8o19Y72FzKF9kL7SKmoqkHe+7D2ThKM5cO7Dl9eLyXuk++IdB2bYKjEBKebX6EdO7D6JCxaDGDKkVYH5WtKUN6pUU/yT6nJf3IggcZxLJ5lor9OLWh7KxFROnVR9YmTj2EYhmHMHqb7DeMohpkheuPpN162dP3tr9x+7vxzTu1Y+1dP/LmQJyUiciBAQ44qpab+DhQxB9sfxuxn+1bXKXunUFUMDMju3bRwEeAB0KTb3ZTOSxBV0uClEwJvUD2TIQACoCnXtLR9+QkNHU6dTmHeeajd9VCnxErKIJolayDDMAzDqMZ0v2EcrSQx6NBslOsozJ1bP7c535KP6iap7lBOTEU1AoiotzSwZ3AfEbXWlWPxITNY4Ke/bn3waBTmYIkz9RsxvkruYYKIlIhdBBemNjzW50oBXaJkfZ/B6oiImTMuq4lRPsBJGd3qmQwTkWBBw/wFTQsAdA51RjSjG6kSSJ1SUvVhJk0ZhmEYxkEw3W8YRzGSCGkti1eCqoKEeYqQ+iRYXf2SpsWfX/e5E5uWDhYHzlu47rKll+ZdLplCVMW3HFyXj8+iBcKh4QkOKhBN7YM81E1o7e0PX0lUe+WwNPZ8KJS7ce+mH738o/u2/ZzgHt/5+IdO+eCqtlUHaS1pUZSIIATRw+6QahiGYRgzxnS/YRzFMCgsRLcVWt6/+n3ZKCcSHyxVV32Tq7tm5dUEKfqRCxZd0lrXrOKrA9wrpWqnK9CpOkimBJCIsEahVnB1rDzeZtFPogddQQ9h9AA2d2/+t43/+mr3ZlXtHtp/1glnB90/5UlIEyOSECCwgkkpcTGyoHzDMAzjiMV0v2EcxVSEaUSZlroWAEOlwYOk6qqqECA+Fl+Mi2VfImViyrDLubqsyxBpULZvcdzxS/5EBFEFwFnNZyiXReTIZcK/Vb1aDpNbjU7phKMcknKDJf7kCQCRU5BAIuK2QlvrSAsptRSao8xYTu2h1gWYeY6vYRiGYRwmTPcbxlHMmBcNQb0ws+oBY04qtvTBkx6IiFz3aM9L+zbev+2Bsi/1jvSuX3HZ3Lq5FRfLAx53/J+JB46KbnoV995Dzz2HfXtVlU5cNoB4sDzSnG+oiwoTVsMPYUvhragO4xnbWwiHEA0x+ePjl1LTTxVO0iS8qioSByRVBYTIEaY+m+985rJhGIZhHCKm+w3j6CaR8oAyY3pxJkQEyoBKRLq5e/Mf3f9/PbnjcQLufu0nf+q+9t6T3hsRA4dgKZP43gwV6eZ/0H/6J4yO4J9vk11v0u/89mbe9+LeF89bvG5V64kMVwkiwkHnFTOENET4gCKXds9Tmn1bvTHACF5HYzUNqqxI0/dOcQAiIPwLQSDqlUSSeddhGpRhGIZhzBDT/YZxdFNboackHVVV4FuyTR2FDmZuyjUhiHJ2gExf+ocqs4hjZLPU3qbFEkThIoiQC3aiTGmsPw5zEDwplJjgNPboH6BSCRTmG5JsYyhAnPZ8LPGgMoMKjYBJVcPQJmr5sMcCJVJolKQNEwGsSib9DcMwjCMT0/2GcXRTs4JO69FCVZXU+2ofTwHchDicCW73lX+amAesgCj5OFHSaZKxkoAorUs1axE+VUgwJCWA4HTHdvrHW/QnP8bcDvyXT+mHP0L1DcnUg6acLKWr/klvK36jqjqFJ2larosAcGaUs0Utqct6ZEsWAmQYhmEcmZjuN4yjGhlXpzaV5jruBWBlBRhQCBAsbmTsxaoiwuCqCHgGxktzHbdKX/VwfKoukaonVYEqPCFdNVclZUqjZg7Pej8jCcvxBEd9fdi9i3r2a3kUb2xFcUgbCpU9h6kOX1mzT2J+vIojBgig4N2Z5EUoC0LOgBCRUlzqXDW44V2xV3KI21al50R1kiNq2DgY95mlTxqGYRjG4cZ0v2Ec1VQvnwul4StBaaoGtQ8hoUSNMgAPTZWnhFV5ZqZKIbAJFWqrWgxCtuxLOwfebKprbsu3ko6bDUCUwMIMYSj71Bi0YhA65pMzq0v+Y/ajwbhTAUAdU75e8/WcyUMixRRlDaaCGUREEbnqiQoxK0QJRMIgEQ+muIyHftb40z+7seu1d2HuC9i/6t6nTzwv0g++VzPZcEpobKQkCg6fQZJ+UDkDeqi+QYZhGIZxyEzzh9AwjCOXVD4mX2fWCc+jenU/fZ1UHlJSiypZ8GZlgFT9uGNoao9DNFAe+vnWn2/d/5pIrKrQdJ+hUgdXVdWDxBERUdmXk6zjdO0/HGgWl7nHb02wUnIA9TEnvvpT1w9O3jHe6icE6ry4d+O2nq3VL4KGkwOBCkhVn3waN/9d4dmnMpQZQW4E2dILG7Lf/Eb+scfVC0TGTW9UNZT60pFR9PRodxcGhpKwolk7E4ZhGIZxQGy93zCONTxPdpFnItJx2pcrMS0CnxShhU/8K1WVxoUPVdatVT0rHIWgGgZBNOwzaEW+EhGRU472jO7/zpbv3PPqPR2Ncz91zqevO+m6+qj+MC1yT9xAIFaCOgqFzaYU1hPMPdOTxqQQkRc7n5vbMG9J25IJxYmJSJSIRMW98Jy89JKQEoRJAHEE2vgSntnA51+gmYiqj0xwysCZZ+L/+Z9654+5NIprrqXT1iZ7FLbebxiGYRxmTPcbxrGGExAcABFJ3OhDzSodt78nkixsExwxk1J4l6qOf2FVlQBVgHywulcVeIeImUPhWyWQAgqvEqLhe0b7Nu1/dWf/jj3Dna/u33R56fKGTEMlun52o/wnBSYRqkLndULVLh0rMxxek+5DhKxkeI2dy0TEaa5wumFC4YEAGBlBbz+PFhPjT6VkglEu60Cfjg5T1AQVOJd2L/ShpQXnnkf7u1WULlufJAGb6DcMwzAOP6b7DeNYQBP/TVIlrw4I1vRMQl4rITVp9H9qUR9894mIlJijKYV4CN4hIlUQCcC5KB9FUcQu47IIOwbqmDSpmEtgkJKyMhHlXa4+25CNslnOM5wSyAuSVfjD6ec5fsdjYlBRVbpC0NzMHLw7UbW/4QmJQVDyUk73SRhK+by2taIunx4uyV1GXY6am6muTgnEjqBIawBQahzqEXvysZZLlM0h1FrTw2tvahiGYRim+w3jqGcsWEXBrJnCMEh0tMFzn8uPsAs29Eii/JWVINCQ58pw/cX+fSP7oOqcw4RU1LEUYa9KRO7JXY/f9drdT+x4fF7zgvetuu7ipetbcy1EqsoTRGvID/ZQ0RjIKkEJEAXTrCtcSY34K/peprGETkSa1uMVEWWPVPQ7darKoo5Y07V80NgLRMAOZ5+NM87QHdsJROSI2Auw9gycez5cFGKowkQhTBwUEJBLJL6kRQBm9VQYhmEYxoEw3W8YRz2JD48IKbp7dcudH3nzPy4uNr5C/Yu27j1x4DpmJ6EqlRKBhEAMJQgRrW5f/eXLv3z7K7fHUr5k6aUXLb3E0RS3hTBxUJWfbbvvm8/8fe/IQNmXRspDK+esbsu3qoIr2cTjlSyJKrlKRA0x6/PPEUhWLOdCAyZOFmqEkcbxECBKeoA6uxMHFVbZOeOyscR9paGQd/vCno0/fvWuh7Y9kstkrnnjmhtWfXAVhY0Alx5OiVUYp6+l3/08DQ7Q/U85dEcyGl1yMX73d7Hu7JDkMDSMMrYAACAASURBVBZelM50HBQEh2D3E7ox+/MgwzAMw5gC0/2GcVSTFKsSAREGBukf/qbwk388a2hwka4Yos61t//d6Yu3vfH5frcIY7m6qgghKxBtq2+9bOll3aP766LCRYsvaso1kUJpzBI0EIRpLOWsy7TXzWWKRKQ+U59kDKeGoQBA4zR31TZA2G1Q3bxZmXnRIhQOzc3zQJWJK0nMpKLeE5GSm45dUNpzvXDRhd94zz/8YOP389n661e+57Fdj9+y4f7tPVu8SIZz6+ddtArwqpyqeIGGYbqIrljPZ/wLPfP8im07ly+Zz+ecyXM6KuW/phyFgkCXXggA2SwOc/ViwzAMw6hgut8wjmo4+PKrEDl96GG9+y7a1wm0FMEjoHJc9N//ceNFbY3vzxInNbwq0TBJAquqLmyYH3GOiASeySXJrFOG+4/nELsKVeUoA67FQXhCb1ST1XQiUokJDlu24oXncdIpdMrJ0wmfSSoKA8255uaO5sHydc2Z+jUdp76498XmXGNTvkVEGnJN4TWOqDKbYZAkvv4KoH0urr4yW6nHVX1WJp/G5M98HgBNPZExDMMwjMOC6X7DONphVbCDeH7tde3apwAoJmUHOADdo3WvjK7od01tOqBgCXWj0hX6CJEy1i26sGLaEziQ6EeV9D/4i6dkXN2uQxrl5NX+8Z79IKBUpoFBlEaBpIjAWPgPEcYPEGOR+qGGsZ6/YJ2qioiSKERCwJDGU24zMKgyAFUVKINUBVXTiSkGMdYBTkeVds8wDMMwDjOm+w3jqGas/BZIUBGjREhj3EMWr4BAUilfNaHUF8ZJ0gPK0PA8pdTQ3Uq5roO/fQpn/0kvr35irFiv48pmAoPCXgiQ1ieY1Juq9XgKCRLkGACUVKHwaUGyA5Gs8Qcvo3EluqYa46RnTO4bhmEYbx9Wr9cwjmoYYGaIBzOvPJHmzgGR04hIQQ4Mas+NnFTY1hoNClc59IeSumltWhoPxk8DZpFpNjtRHmvVJoOMizJKH3kJbasLVXIFpMQaEphDm2OJx+lRqtbmiYiZE9EPVghRUgbhoP0MJYmJmWkS0xmpYRiGYbxtmO43jKMeVSVWAJdcrO9+t87pEB2FlsjHxDn+yHUDFyzdzX37dWCISiUARNRe19ZR6Mi47Dh5WqXJiSjdTBjHweTsrCrdpDSYiIgE250g0sHjhHV4IEpxGSoE8iIqniCeiMix56RjmhbOqu7lgTYfiEhMtxuGYRjHFhbnYxhHPUTkHETQ0Eif/wIWz8dtP9ZXBQuW4sNX60evrV9836X6w/1uaACnnRbVN0CwbtH5REmI/1h26USlO8W6wMEW7GvdIpic/Fo5CjMnj8Pqflym3l7k8mhorAqvJ+fIOXiScpmY4CJ4Il+Oqa+XhodQLBI5TSxGxw50IIOg0AGehhOoYRiGYRxFmO43jKOetC6XAmhqwic+jfUfpLte1kuW49zFsfhmf8pn6ZTT0NWlF12IhgalkIQawtuBIP2nUsEHilOfbq+qnX+UwgNWhJJVoX5tJVxnQnB84PXuLflMdkHDQlVlkPT06E/u4ZUr9ILzkcQsESCjI3Tng/LC99H0ggyv0bW/4q88bUHdlesB4ZUn4tpfQn0jJYUFJJ3PhAzncR2u7HLUMGRNx2MRPoZhGMaRiel+wzjqSWtyAYAq4thnM9raDMdaLJGDOokV4DiGjyEeHAmDFOAqiTqVWH1LCcuKYCRaeSYtlMtExI7YxexiihzIExGI1bG6iIiIPCmnpbvGGgnOQqG47+M7HsllCteuuqbgCskUxTFCOTD2oEiBkWH+x2/KX/4l4w2cTvTKUzR4T/z5/9ryv134rtaFC7H2TKxerZT6fgbnH2DybgYRA5oU2AWEJK3TG06sVs8TNMmQHksAGDMOMgzDMIwjEtP9hnGMQKk7TRRFUI7LCqbIEVRAETU2a7FEmQI4UgLp7ChUIQBcyQxQVUAECvVMfmQ4O7pr5fD2Ia3zEhecxtq9Hzt3UVzWJUuoLqe5OiRbCuOchVRJIXe+cvvfPfWNHf07rnhl/WfWffachedVxLoyQdl7EOuDD9I/36bbd2BNxI2iecYrXbj1e7I6jv/TPI9yzL4Mx8zTvd2peiiRsKqMJQGPJTwIAFI+RCNSwzAMw3iHMd1vGMcOFenPTtgRkXqWSCNi1vPOAQCIiBLGmfbUPAGouGdWAuETm05RykQPPJX9v+9Y9mDXr5eaXhzsvPD+10+48n2vrvvh1/DgA1Iuu+Xf1i/+n/jAh8g5YNxuQ/DlgeibQ3v2DO7pHtq/pWdr33Bf6sc/Nsdgh7iMTZv8m2/Cq8ZeY+UYokTbtuvLz/OlBa3POWHnwAI9+GxHVQAhcioujdYhlUiEoKQOxGPmpzqF1ahhGIZhHNGY7jeMY43q+HjW4F9ZiWXn6lK5M13yF4VSUiVANUS3e4qIejbIBV9+cP19w22YtxtOAf/z/69x/mu5Vi2tigiuTkdLNDSEOIZzOqluLRGr+og4cq4uk89FBTgmIuhEi6HYU7nsit6nAxcmhpIIiqMSlzk48yg8IzpQGm9l/qPKqhrlRpEZlnKkHHN+MJP3iD32duvAIPk4yYkgwVu5fBqGYRjGEYXpfsM4upkykbT6GSWBugnFp2YlyMcTQB6AQB2xwgtAKqq5nxUveLW0hpCFQskBUMj9LzS/e+6CZdm6KI41YpCrpCVM6JuShgB6EfGqlXJjACcTDACAeORyOn8B2ht17x4iViQ2/tLU6Bau4IY2UoFTqo4jmkwS0C+xKgn83k1rOv/1j3rKL3GxYc/CZb2Llvr3z+Gs46ee0nddwSeuBEBw5vZjGIZhHF2Y7jeMo5spFfx4t00+kMo/iJHlW6LwDLCyqrJAWUmZhAgy6Bt7Sh0jyKSvFahToREu7JcFRS1EPKDkDnJoUjCcqjrnxjovqupZCQoWEkBJCLp+Pd/3ALZthx/NKJyCCe6qC+nCG9ZkFq7QXB4cyulKJURn8glJ4qPY3XM3/vl/nv3G4+fJKsZI2/MPX/btET/vS3TmjfOxbClOPFFbmgAPcpbCaxiGYRxdmO43jGOBA636k7LyJIGf/kkzkP6hlq0QhBmMsNRODgCyOlRwQxlKw/2ViAWskZYbhnZkil3wo4gixOVQfze19Jl0CHJJBI5oxcWfoCpC4sEuE8F7XrxEv/TpwbrO/hd/0lmvQ+3o/dQv7fzdz7SsPKVZkQdAoOqJ0FSiH0H279wp3/suP/woiMsUlYXLsfc/up1PPduvvKHUFBdRiskLHAMkVd5AhmEYhnHkY7rfMI4FKnm6qhpqXcVSFhElYXVJbH/FNL9KrNaoWwUxKUR9DCqWXM9eX9dIMUHEUxRliue4Z5YUr9oXtzgmz+IciWLtabJm7bLMzlU6VHZnnI7Va5B3Y9mxVVMQSmpmSeLuzwRAmFwmK5mIIyfZDClU4RwJsOLE0k1r/6b7hZ/2F6MmGm46/Xq34L+oNAFMpGkBLlbVSrWyaiqTgtde4x27PAEkJJ5JIyIW0ddedzvfpFOJfMSOIyCGiX7DMAzjaMN0v2EcO1TUf0td60VLLukodDiKgFCoVijx3KwJUYSMYOWQ1+oEzMhGWt65d+iO/8hfeGbmtKXEEMROs5dnH/3ESff17ly0eRgYcPGonnmmfPa/d6y95ovRT9YqCV16qba2VncbSVEtAFQJ4U9cdUQB8FPPyI9+yBuek7kdtHcfXXxJf2NmT//ulrqW9phVXJvrbc2WSSGi4pkpaaWywE9EU850wrYEQD4WHztQYs8fSvyCtFimWJKEBCLSmk+jYRiGYbxzmO43jGOKoHGbck2nzj0FQChPq4raFT8AQFMDTYVPgnecHxqiW27hnffK8o3YsTBa8+7oV9/EQkDJ1ZVHf+Pq3edfPvhvm/XZPXLpYnzwXbpkhTqGkigRvEA9wYWKWkjsdNISZERS5dcpJBSL3vcz+ta3tbeHfFmHh/TElX2u4cldT6yas7otu9xrzCBVpqS1Q0i7FQEAZl26jDtO8FAGKbEnCgnFtGwFL1gA7En6AxIiu3kahmEYRxn202UYxw6VKPYqY34CZqFGV/WSuarzKOfjtgduW7v/F3Ma+kavBr20y9/2TMubTaf/bsNDy3inxuScO30t4WyctBfrFuqKVqKyaHrPochVfDDHr8cn/a/odiIicqSKbA5zWikTqRc0NAxx3/bR/TsG32huahzKtdUnSQLKzCHXYfrCn5lUoYplS/G+9/FLL+GVV4CBVi0XAL74ArnuCplbUJRieFH4pMzxTNKiDcMwDONtx3S/YRw7TBbQhwMRoUyp/NoZvS9eVe6fW3A76wQRUUnktr53XxQ9sSTXKVQCVL16x6oQ72JPkYuYGUQgCjH1oYTY5EMowUsMjIUVKSupQL16UV8uxyM3/ezev968Y1/f3lz2xU+cedrnB/fN51BMQDHR0egtCD0SgYv0ho+grk6/9U338qarKY/zPozPfoYuupC1r8DLlvOcOQSFZjB1xJBhGIZhHLmY7jeMYxsBeIYr01q1gcAKZshIobx7lQy0AoiFvUIVIO3W5o2l1e/KPNhOPR6IGIB4EVDsGPCxcIZUEeoKTzhKtVIXhZAIQDGxVyESUiVSFhGKMve90PrDBz66s6sB8x4uDq684+dLTm/+24/4x3JchoKU5VCmPunoACCT0w9/iN9znXbuQSYrJ3Q4F4FU0dau6y+DrfIbhmEYRy2m+w3j2IaBGQtVVSIVdSLeQ4nLxCViH9JwScfq7ZJ69PVLsRvYzwpEbnnLsva6ltb8XGaGECCkgGpQ2XRgEZ3JOIeMH2mLh8oclSlXJlIv7Ki4CWv/fvN7nhhY7pp3SmFUh4qbt7belL1+QeuLV2YfFnVMwoCoJ5pWSV2iKqNPJS+aycmy5QqwiCiFbrNKmE2QYgrXVMMwDMM4wjHdbxjHIFPK6Sk9/t+6qRCQo0QQ59Q5xN3zi6NZly0iW1JVhhKEoKTa3BGtefc57Y3v1zPOonetp/a5rblca6EtbYwAh7o6OJrclbRobijTizvvln/66/ft6veloWhr82lvRC2l8qvOsUr0VGnty+WTQVkRVjggw8BGf/IzxbMucM/Wo6hKBExT9AMAJBT0FSgpmKHqvFcAzCE/wimUx4r+mug3DMMwjj5M9xvGMQgBSMvTjj1ZwxK1gkgh5JWYdMsb8YZv/9r2f//QyIJ7sf807J0P8iOaGaV8rHCR3vBrfMH7T+I3uvWMs2jZiaqSmAAFoggAXXmFqpLLaMW9MxxKQ+wPE+kP/x1f+RN+4bkWOqmdRtpee/6cvx2N53VE14gvi+uPW4qSBQCXtC2ACPX61gGtL/AIH/JIOf1f2LqQyY6ftsBvGIZhHO2Y7jeMY5XZ8JgnqJIomLS/j/7m63V3/EvdyEgf5mc0zsBn8yieFG1ZzTszwje8e/TjHztxUUNMr5bhy1QuIUuUuIhW6eYoQ0nbCZpE/BMAIt21i370Q33heQKJclnZA/EzT7sfNzWtbS7Mz+xt1e6CG0EZKkl+MBFFkWvN9DRnRggRlKEzGb7Z8xuGYRjHIKb7DcM4GCqJJeaTT+Pxh6WvF5r1UAEJgYnol5t+fmPdD9qLb2aWvVeaPodyiNx3GqLiyQNcKSg2rmVVIiVyad2u5F+3btXdu0EkKgx1pAAIotuKC/aU5y/ibedmnzs5s+nlkYWO1BOBRFXPKD2ybuCeuuEdAKE8DMeJh6lhGIZhGABM9xuGcXCIlQBV3rUTfX3sCAIWUFhQH0Fu12BbudgfYUC0AS7PUhJCGl7P1QW0JoTKTPhTlaAgVnZKxJNj6B0EVBbKr9Ztv3fqT0cH1vx0J/thT0LnnKdfuGH+BfJBvLIKq0/CtdegtX0KzyDDMAzDOI4x3W8YxsFIwm8UhXqJMiogHdPrCqb6d12YXfYxvexkuuhSnDBX39iGRNMnCQbT1N5EqiAAq1bxkqUA4BjKpE6UAcer6nctjvZAROLyBaf0/vNvDt872HjPJjp3Cf/y+WjvWEm0iuKiukhcxh2ihb9hGIZhHPOY7jcM42Aww3tVYO2pvHCxf2kjs/OULyPrhWj+Ypz9yye016+kNadg0TyCIzAqEwMSgKYfLh/2BubO8R//OL3+Ov3iIdVYUAKUrl4ff7Bj6ITniuhVIhbvGht53Skoz8fKNpk7z3lfJoooW0eiEA0VwWqzMDIMwzCMYxLT/YZhvAVBOq86ST/1Kd7bqc8+U4eXzqXSCW3t+Oyn+bJLxD1Zhgg8EAlIxyJ7tGoOML2jiABwV1yhjY247Xv8s90cebp6Jf3qh/zah2J5jgFmUmJVhfdaitV7jcUzUdICJ5kCJvoNwzAMoxrT/YZhHAwN1v1KBPzy9Vi6hH5yd93ml85ubsOVV8ull1DTEJGywhFUQSo1mttXF81VpXPOkfPO0/+1QVvq9NrVKiWWB5V8rBKrF3gwlEgJjgJgACJCfOg2noZhGIZxHBAhsc1OFuhUNdTNMQzDQFrLlklBUNUzz8BZZ2o5VnZwBBGhQSgxSDR1vg/1e4Pdz3QOERbmqzx/iEi9hwhcVjgj5bIyOS40gBwGB4mzms9qLquqICFSRxwW94lIx4qWTaxgYBiGYRjHM4nuj+M4jmMRsZ1xwzCqkODCmcpx8l6IKHJQVR+DHMAaXPSFwFU6m6edVVt9z0nVP5xTUp6bP6Eh2+Ay7JTl4x+j89fxE09i8WKcey41N/HInvBWkVBpi4HqwCIT/YZhGIYxRgSAmbPZbDabBZDL5cwEwzCMlEQ6p9IfzlHlT3LhQfJMIvQ1pnIZ4lWV4AFXw1GJCHAgXL7isvCMQqmhkc46C2edlT6BeFjKsZ/ylmVLGIZhGIYxgQjAs88+++1vf3twcLBQKDzyyCMf/OAH3+leGYZxJFKtpJkZEhT3uMhAnXcCXXQx5p1ALqMgqlWCp2qeAKUQuhOeEk1jgjC3fs5FSy5szjcz29K+YRiGYbwFEYCGhobVq1ePjIw0NDT84he/iOPY1skMw5jAW94WiJwSU0s7WtqTZ6b3xrc6IoFAAIL6DxsOAIDGbP1Jc06qrbeGYRiGcbwRAVi1atWqVavC3w899FCxWLRQH8Mw3hoiUhVViovqYyUJSbWqSnChVu6MRP9Yhm54KkT3aAgyUgIpqY5VBDatbxiGYRgHYVxebxRF5XLZfjsNw3hrNETwgAv1umIVtbSCiOCQBuHMwn2kqglVJZAihA4RhR0AClm8dssyDMMwjLcm8e93zqlqFCV/mvQ3DOMtSOS3oK2NrnxXEOR6GDS4Jo6gic6f4gWWwmsYhmEY0yDY3qV1b9LHFudjGEY11SU+qp9UJVWFqKioAqoAZvn2oamm10rT4zKJTfQbhmEYxnSwer2GYbw1FW092WsfAAicJvFitpf8q4+SYu49hmEYhnHI2M+nYRiGYRiGYRz7mO43DMMwDMMwjGMf0/2GYRiGYRiGcexjut8wDMMwDMMwjn1M9xuGYRiGYRjGsY/pfsMwDMMwDMM49jHdbxiGYRiGYRjHPlPofivaZRiGYRiGYRjHGInury50b8UvDcMwDMMwDONYgoi48siW+Q3DMAzDMAzjmERVLb7fMAzDMAzDMI59xtb739l+GIZhGIZhGIZx+IjC/6qDfMJjC/sxDMMwDMMwjKMdVRUR51w0+d9EpFwuh8dEZFsBhmEYhmEYhnGUEnR/uVyOqp8CwMzt7e3ZbDaTybxz3TMMwzAMwzAMY3bIZDKqOqb7g6XPwMDATTfdtH379j179njvZ7jYLyKtra3FYnF4eJh5RjnEIpLP5wuFQk9PT3Wfa2tNVZ1zLS0tvb29IoLxTqbTbyS8RURaWlpKpdLo6GiYPtXcscow+/r6RCS0U5vbUnhXa2vr4OBgqVSayUcZRlr5NEdGRjCznBDvfV1dXT6fHxwcDJdZDee/mpaWlsHBwTiOw58Tztj0T6CI1NfXM/Pw8LD3vnLRvmX3Jr9AVTOZTKFQGB4eLpfLMz//AJqamkZHR0ulUs1NhVPhvW9oaGDmkZGRms9/5aoIwwwdm9zIIbWsqvX19QCGh4dneEmEr1I+n5/5+Q+thWEWi8VisRham0kPC4UCEQ0NDc1wmKqazWbz+fyBzv80GwnXgHMun88DGBoaQq3f8cp3LZ/PZzKZ8FWa/jU25csqwywWi6Ojo8xc8502tB/O/8DAwAx/mELH6urqBgYGwk/JTG7+zrlCoSAiQ0NDh9Sx6ltc5QTmcrlsNjswMDDlyw61b7lcrq6urnLHrqGRymXGzPX19d77MMyavwLhjblcLp/P9/X1YQZfyXArY+ampqbh4eFisTjzC4OIGhoaKsOsuZ3wIJz/3t7emcieytewpaVlaGgoDHMm5x9AXV1dNpvt7e2d+UfJzC0tLd3d3eHJmn/HK31rb2/v7+8vl8uVOwYO/SJRVVVtaGhwzvX19c3wwghBNG1tbV1dXTNpJyAibW1txWJxOl+lMJDGxsbkPIpIeMOPf/zje++996abbvrN3/zNXC5X0Z01dMh7X19f/61vfWv16tUXXXRRsVhETYFDoa+FQuG55557+OGHP/GJT4Rf8ZnEIBFRb2/v97///RtuuKGhoaG2jiHdNykUCt/5zndWrly5bt26ID1rGyaAfD7//PPPP/vss9dff32hUKh8ioeqzCpJGt/97ncvu+yypUuXhudr/k6KSF1d3W233bZs2bKzzz4b6Zentk8zn8+/8MILL7zwwpVXXtna2hpmOLWdfwBxHP/gBz8477zzli9fPuUVO537RWWM99133/Dw8AUXXNDU1BR+4Q7ptIdjBTWwe/fuBx544IILLli4cGFtp6u62VKpdOedd5566qmrVq2q+YsZhpnL5R5++OGBgYF169a1tLTEcXyofSMi7z2AbDb75ptvPvLII2ecccaKFSsO9YxVdyzozvvvv5+Izj///Hw+X5n6TuftlVeGMWaz2U2bNr322munn376kiVLahhjdcfCMB9//PHVq1evWbNmhq0R0WOPPTY6OnrxxRdns9nafixDU1EUvfrqq6+88sratWuXL19euTfW0FqY7j7++ONRFF122WXhx7LmayyTybz44otbt269+OKL29vbZ9KxMMzXX3/9pZdeOu2000488cQww6l5mCMjI0899VSpVLrmmmuC9JnJFfvqq69u3LjxiiuuaGtrCxfGoTYVJgzM3NfX99hjj7W0tFxyySUjIyPOuRrmS5Xf9E2bNr3++uvXX3/9TH7HwzCZedu2bU8++eS1117b0tJSm/SvNDU0NPTggw+2tLSsX79+ZGSk5vMfxPrLL7+8cePGj3zkIzO8+RDR0NDQ7bfffuGFF5588skjIyOV1sKB3rLlys0/tFYsFn/605+2t7dffvnlw8PD4dPE+JvV9Pv2yiuvPP300zfeeGP4KlUL2ek3FUYRx/H3vve9K664YvXq1aOjo7X9jodpKhH94he/6Orq+uhHPxqWd2v+HQcwODh4yy23fPKTn8xms6jpdxzpGQs3jZtuuum6665bsWJFbRO50A6AbDb7s5/9rLu7+1d+5VcGBwcrH2UNDYbr/xvf+Mbv/M7vOOdmMlMSkYaGhr//+78/9dRTL7nkkqGhoYN/lJoG9SQDC7pfRETEe3/FFVf09/frbPCJT3zi9ttvL5VKM2/q8ccf/+hHPzo4ODjzplR1dHT0ve99765du8Kf4QzUzG/91m/deeedIyMjM+/YI4888pnPfGbr1q0zb0pVP/axj7388sszbKRycj772c/eddddYZFyhjzwwAO/93u/t2nTpgmHqI1PfvKTTz311Mx7pao33XTT17/+9TfeeGMmjYTh7Nix4wtf+MLDDz88wy5VTs7nP//5++67b4atBW6++ea//uu/rgxzJud/69atX/rSl+69995Z6dhf/MVf3HLLLWHr7FCZMIp77rnnq1/96hNPPDHzXonIa6+99pWvfOXOO++ceWuqevPNN3/jG9/w3s+8qXvvvferX/3qY489NvOmBgcHv/nNb/7VX/1VDe+dfAn94Ac/+JM/+ZM9e/bMvGOqev/993/lK1959NFHZ95Uf3//rbfe+rWvfW3mTanq3Xff/aUvfamrq0tnfB/bsmXLn/3Zn91yyy0z7FLoxn333feFL3xh5r0KPPDAA5/73Of6+vpm2CtV3b59+5/+6Z9++9vfnnmvROTRRx/99Kc/PeEQh9qlwJYtWz75yU9u2LBh5h1T1d27d3/5y1+e+aepquVy+amnnrrxxhtn0khlsHv27Lnhhhs2btw4844NDg7eeuutv//7vz/hELV1r7+/f/369TPvVWBgYOA973nPli1bZt5UsVi8+eabv/jFL868qcC55547W03deOONd9xxR3g8nfMvIkmcT/U8taurq7e3d2RkJJvNzmRZMY5j51xPT09nZ2exWKxETYQZiR7Kfk148Z49e7q7u8Mme5hv1TxPAtDZ2dnT01MqlWrbiKicsTDM3t7ezs7OMHU+pNYqpyJ8Hszc1dW1f//+0dHRsEJQOWnTP2OVMapqX1/fnj17lixZEmaWtW1RVYbZ19fX2dkZFqIOaZjVhFWZ7u7u8GlW1ntqXicol8u9vb3d3d3VHauhqdCx/v7+wcHB4eHhEE5QQ2uVK3b//v1dXV3Dw8Nh6ahy8mtoEMDw8HBPT8/AwEDNHcP4Yfb29g4ODtZ8/ivD7O7u7urqGhoaqgyz5kViIhocHCyXy/39/c3Nzaga4/S/AmGMAAYGBrq6usIYZ9KxcNze3t7Zai0MM3wElf3GQ2onLECGdeLBwcGurq5wYQCofJo13DH6+/v37dsnItVNHVLHkH6Uqjo0NLR///7e3t6WlhbMbE8Vk4YZvuk1tBaa2rdv3+DgYJhe1rZ6V+nY8PBwV1dXT09PY2Mjav1WAvDeh6YymcwM3yAaCgAAAvBJREFUOwagVCp1dnYODAxUwgJrWCFG1erp6Ojo/v379+/fHyLBar74K8PMZrPFYrGybFxDawCKxeLu3bv7+/vD2uJM1vu99yMjI+GmXXN4QvhiVoa5f//+xsbGoH+iKJrhMMOnGXTCTIY5Ojra29u7b9++MEyENeBDJAxzdHR07969PT09Mxxj+Oz6+vp6e3t7enpCtGfNpysMs1gsBv25cOHCQ22tIvDCMOM47urqCoql5mEi3erp6enp7e0dHh4O0fY1NBUusziOoyjq6urq7Oyc/oWhlfh+rYqVzGQyHR0d2Ww2iiKMv/QP6ac3qPO5c+c2NjZms9nKr1FtooeI6uvrTzjhhFwul8lkKsOr+crI5XIdHR2htfB8bR8kEUVRNGfOnDDMmlvTdOOsoaFhzpw5dXV1lWFOp6kJH03lcUdHR6FQiKKoZkGM9NOMoqi9vb0yzNpuspULo76+vq2tLQxzJhdGeDBnzpxCoRDOGGYQ9RtFUUtLSxRFoWOYQcgWgHw+397e3tDQUPMYqxvMZrPt7e319fWhNdQ6TGZm5qCqQ2gmZjBMIqqrq2tra2tsbAxnrObJUtD9zc3NIS65cv85pHaQjpHo/y/lWnYtBGFgRSmIBKxo1P//TR93MTnEnLs5wpqk6UgfQx1ovPciMgwDtDQ1/6CVUn3fiwjiv9IaEcUY27bVWpeNMDLv/w+zmPoQETPHGO/7RoI/y+yPlT87Bqm0iEDln1cLvMowp2lyzjFzDfUhIq11CIGIKk3Bmvc+pWStrYlYFH9r7TiOIQRmPs8zx0bBEQ5XlVJK8KrMMXrwflgzxmTS85aywA6qq4jEGLXWGeYrr5qP8AZShxqYmSni1gFaCVKJ3o8p6XO+Uko550Qk72ZNxGI353nuuq4yYlHKlmVBx8RSwUcDTGNMjBGPwWA4WFMVjTHbtmmti1OJHjCv61rX9ZmYBal0fwayXzCLT9FN0zDzvu/MXKPzQQyArqMrHcfxI+//Ax+gJ+byEOcsAAAAAElFTkSuQmCC;" vertex="1" parent="1">
          <mxGeometry x="770" y="426.19" width="256.51" height="113.81" as="geometry" />
        </mxCell>
        <mxCell id="AX4hok6wD8gOEV_q3dsC-12" value="&lt;h1 style=&quot;margin-top: 0px;&quot;&gt;&lt;font style=&quot;font-size: 15px;&quot;&gt;大模型用户输入解析&lt;/font&gt;&lt;/h1&gt;&lt;p&gt;大模型编写python代码，在K线图上找到符合&lt;b&gt;期望收益&lt;/b&gt;的买入点。用户可以&lt;b&gt;交互调整&lt;/b&gt;这一目标。后续&lt;b&gt;优化会紧紧围绕这一目标&lt;/b&gt;。&lt;/p&gt;" style="text;html=1;whiteSpace=wrap;overflow=hidden;rounded=0;" vertex="1" parent="1">
          <mxGeometry x="558" y="420" width="180" height="120" as="geometry" />
        </mxCell>
        <mxCell id="AX4hok6wD8gOEV_q3dsC-14" value="&lt;div style=&quot;line-height: 100%;&quot;&gt;&lt;pre&gt;&lt;div&gt;&lt;br&gt;&lt;/div&gt;&lt;/pre&gt;&lt;/div&gt;" style="rounded=0;whiteSpace=wrap;html=1;align=left;fillColor=#fff2cc;strokeColor=#d6b656;" vertex="1" parent="1">
          <mxGeometry x="550" y="560" width="480" height="320" as="geometry" />
        </mxCell>
        <mxCell id="AX4hok6wD8gOEV_q3dsC-15" value="&lt;h1 style=&quot;margin-top: 0px;&quot;&gt;&lt;font style=&quot;font-size: 15px;&quot;&gt;TOP-5相似收益指标&lt;/font&gt;&lt;/h1&gt;&lt;p&gt;&lt;/p&gt;&lt;ol&gt;&lt;li&gt;三价均价（JJD）低位拐点&lt;/li&gt;&lt;li&gt;乖离率修复（LLL）&lt;/li&gt;&lt;li&gt;VA4/VA5双重SMA平滑&lt;/li&gt;&lt;li&gt;MACD柱状图收缩预示动能衰竭&amp;nbsp;&lt;/li&gt;&lt;li&gt;前日收盘价附近企稳&lt;/li&gt;&lt;/ol&gt;&lt;p&gt;&lt;/p&gt;" style="text;html=1;whiteSpace=wrap;overflow=hidden;rounded=0;" vertex="1" parent="1">
          <mxGeometry x="558" y="610" width="220" height="120" as="geometry" />
        </mxCell>
        <mxCell id="AX4hok6wD8gOEV_q3dsC-16" value="&lt;h1 style=&quot;margin-top: 0px;&quot;&gt;&lt;font style=&quot;font-size: 15px;&quot;&gt;相似指标关联的社区策略&lt;/font&gt;&lt;/h1&gt;&lt;p&gt;目前策略库有&lt;b&gt;4万余个&lt;/b&gt;社区高人气策略，同时同花顺的&lt;b&gt;大模型策略编辑上传&lt;/b&gt;，也能够提供策略库支撑。&lt;/p&gt;" style="text;html=1;whiteSpace=wrap;overflow=hidden;rounded=0;" vertex="1" parent="1">
          <mxGeometry x="800" y="610" width="180" height="120" as="geometry" />
        </mxCell>
        <mxCell id="AX4hok6wD8gOEV_q3dsC-17" value="&lt;h1 style=&quot;margin-top: 0px;&quot;&gt;&lt;span style=&quot;font-size: 15px;&quot;&gt;人工智能指标策略创作&lt;/span&gt;&lt;/h1&gt;&lt;p&gt;机器学习算法在&lt;b&gt;数十万级别&lt;/b&gt;指标库中进行组合优化，收敛得到，一个和&lt;b&gt;收益期望最符合&lt;/b&gt;的，复合指标策略。&lt;/p&gt;" style="text;html=1;whiteSpace=wrap;overflow=hidden;rounded=0;" vertex="1" parent="1">
          <mxGeometry x="572" y="740" width="180" height="120" as="geometry" />
        </mxCell>
        <mxCell id="AX4hok6wD8gOEV_q3dsC-18" value="&lt;h1 style=&quot;margin-top: 0px;&quot;&gt;&lt;span style=&quot;font-size: 15px;&quot;&gt;策略打点与可解释性报告&lt;/span&gt;&lt;/h1&gt;&lt;p&gt;&lt;/p&gt;&lt;ol&gt;&lt;li&gt;指标&lt;b&gt;逻辑&lt;/b&gt;可解释&lt;/li&gt;&lt;li&gt;推荐&lt;b&gt;原因&lt;/b&gt;可解释&lt;/li&gt;&lt;li&gt;策略逻辑可解释&lt;/li&gt;&lt;li&gt;买卖点与用户期望&lt;b&gt;可视化&lt;/b&gt;&lt;/li&gt;&lt;/ol&gt;&lt;p&gt;&lt;/p&gt;" style="text;html=1;whiteSpace=wrap;overflow=hidden;rounded=0;" vertex="1" parent="1">
          <mxGeometry x="800" y="740" width="180" height="120" as="geometry" />
        </mxCell>
        <mxCell id="AX4hok6wD8gOEV_q3dsC-19" value="&lt;b&gt;&lt;font style=&quot;font-size: 18px;&quot;&gt;输出&lt;/font&gt;&lt;/b&gt;" style="text;html=1;align=center;verticalAlign=middle;whiteSpace=wrap;rounded=0;" vertex="1" parent="1">
          <mxGeometry x="740" y="560" width="60" height="30" as="geometry" />
        </mxCell>
        <mxCell id="AX4hok6wD8gOEV_q3dsC-20" value="&lt;b&gt;&lt;font style=&quot;font-size: 18px;&quot;&gt;用户输入&lt;/font&gt;&lt;/b&gt;" style="text;html=1;align=center;verticalAlign=middle;whiteSpace=wrap;rounded=0;" vertex="1" parent="1">
          <mxGeometry x="738" y="318" width="90" height="30" as="geometry" />
        </mxCell>
        <mxCell id="AX4hok6wD8gOEV_q3dsC-21" value="" style="rounded=0;whiteSpace=wrap;html=1;fillColor=#e1d5e7;strokeColor=#9673a6;" vertex="1" parent="1">
          <mxGeometry x="100" y="460" width="440" height="130" as="geometry" />
        </mxCell>
        <mxCell id="AX4hok6wD8gOEV_q3dsC-22" value="大模型策略库" style="rounded=0;whiteSpace=wrap;html=1;" vertex="1" parent="1">
          <mxGeometry x="110" y="500" width="120" height="60" as="geometry" />
        </mxCell>
        <mxCell id="AX4hok6wD8gOEV_q3dsC-23" value="大模型指标库" style="rounded=0;whiteSpace=wrap;html=1;" vertex="1" parent="1">
          <mxGeometry x="400" y="500" width="120" height="60" as="geometry" />
        </mxCell>
        <mxCell id="AX4hok6wD8gOEV_q3dsC-24" value="&lt;font style=&quot;font-size: 15px;&quot;&gt;&lt;b&gt;中间数据支撑&lt;/b&gt;&lt;/font&gt;" style="text;html=1;align=center;verticalAlign=middle;whiteSpace=wrap;rounded=0;" vertex="1" parent="1">
          <mxGeometry x="270" y="460" width="100" height="30" as="geometry" />
        </mxCell>
      </root>
    </mxGraphModel>
  </diagram>
</mxfile>
